SplineFontDB: 3.0
FontName: Tienne-Heavy
FullName: Tienne Heavy
FamilyName: Tienne
Weight: Black
Copyright: Copyright (c) 2011 by vernon adams. All rights reserved.
Version: 001.000
ItalicAngle: 0
UnderlinePosition: -103
UnderlineWidth: 102
Ascent: 1638
Descent: 410
sfntRevision: 0x0001076d
LayerCount: 2
Layer: 0 1 "Back"  1
Layer: 1 1 "Fore"  0
XUID: [1021 14 500265001 4732181]
FSType: 0
OS2Version: 3
OS2_WeightWidthSlopeOnly: 0
OS2_UseTypoMetrics: 1
CreationTime: 1311217380
ModificationTime: 1311324007
PfmFamily: 17
TTFWeight: 900
TTFWidth: 5
LineGap: 39
VLineGap: 0
Panose: 2 0 5 5 0 0 0 2 0 4
OS2TypoAscent: -225
OS2TypoAOffset: 1
OS2TypoDescent: -44
OS2TypoDOffset: 1
OS2TypoLinegap: 78
OS2WinAscent: -82
OS2WinAOffset: 1
OS2WinDescent: -21
OS2WinDOffset: 1
HheadAscent: -82
HheadAOffset: 1
HheadDescent: 21
HheadDOffset: 1
OS2SubXSize: 1331
OS2SubYSize: 1229
OS2SubXOff: 0
OS2SubYOff: 154
OS2SupXSize: 1331
OS2SupYSize: 1229
OS2SupXOff: 0
OS2SupYOff: 717
OS2StrikeYSize: 102
OS2StrikeYPos: 512
OS2Vendor: 'newt'
OS2CodePages: 20000001.00000000
OS2UnicodeRanges: 800000ef.4000204b.00000000.00000000
Lookup: 258 0 0 "'kern' Horizontal Kerning lookup 0"  {"'kern' Horizontal Kerning lookup 0-2" [507,0,2] "'kern' Horizontal Kerning lookup 0-1" [507,30,2] } ['kern' ('DFLT' <'dflt' > 'grek' <'dflt' > 'latn' <'dflt' > ) ]
MarkAttachClasses: 1
DEI: 91125
KernClass2: 4 14 "'kern' Horizontal Kerning lookup 0-2" 
 1 F
 3 V W
 1 Y
 11 a aacute ae
 40 c e o q ccedilla eacute oacute oslash oe
 1 d
 6 agrave
 21 acircumflex edieresis
 16 atilde odieresis
 9 adieresis
 5 aring
 13 egrave ograve
 23 ecircumflex ocircumflex
 26 eth otilde uni0207 uni020F
 23 uni0201 uni0205 uni020D
 7 uni0203

StartChar: exclam
Encoding: 33 33 23
Width: 874
Flags: W
LayerCount: 2
Fore
SplineSet
446 1412 m 0,0,1
 489 1412 489 1412 528 1410 c 128,-1,2
 567 1408 567 1408 596 1397 c 128,-1,3
 625 1386 625 1386 642.5 1362.5 c 128,-1,4
 660 1339 660 1339 660 1296 c 0,5,6
 660 1289 660 1289 660 1281 c 128,-1,7
 660 1273 660 1273 659 1265 c 0,8,9
 622 975 622 975 597 777.5 c 128,-1,10
 572 580 572 580 559 470 c 1,11,12
 542 460 542 460 518 454 c 128,-1,13
 494 448 494 448 472 448 c 0,14,15
 428 448 428 448 399 451 c 128,-1,16
 370 454 370 454 352 464.5 c 128,-1,17
 334 475 334 475 325 494.5 c 128,-1,18
 316 514 316 514 313 547 c 0,19,20
 296 704 296 704 277 828 c 128,-1,21
 258 952 258 952 242.5 1044 c 128,-1,22
 227 1136 227 1136 217 1199 c 128,-1,23
 207 1262 207 1262 207 1298 c 0,24,25
 207 1340 207 1340 234 1363.5 c 128,-1,26
 261 1387 261 1387 298.5 1397.5 c 128,-1,27
 336 1408 336 1408 377 1410 c 128,-1,28
 418 1412 418 1412 446 1412 c 0,0,1
651 169 m 0,29,30
 651 125 651 125 637 89.5 c 128,-1,31
 623 54 623 54 596.5 29.5 c 128,-1,32
 570 5 570 5 533 -8.5 c 128,-1,33
 496 -22 496 -22 451 -22 c 256,34,35
 406 -22 406 -22 369 -8.5 c 128,-1,36
 332 5 332 5 305.5 29.5 c 128,-1,37
 279 54 279 54 265 89.5 c 128,-1,38
 251 125 251 125 251 169 c 0,39,40
 251 211 251 211 266 246 c 128,-1,41
 281 281 281 281 308 305.5 c 128,-1,42
 335 330 335 330 371.5 343.5 c 128,-1,43
 408 357 408 357 451 357 c 256,44,45
 494 357 494 357 531 342.5 c 128,-1,46
 568 328 568 328 594.5 303 c 128,-1,47
 621 278 621 278 636 243.5 c 128,-1,48
 651 209 651 209 651 169 c 0,29,30
EndSplineSet
Validated: 1
EndChar

StartChar: quotedbl
Encoding: 34 34 24
Width: 1063
Flags: W
LayerCount: 2
Fore
SplineSet
584 1370 m 1,0,1
 652 1411 652 1411 766 1411 c 0,2,3
 800 1411 800 1411 829 1408 c 128,-1,4
 858 1405 858 1405 879.5 1397 c 128,-1,5
 901 1389 901 1389 913.5 1374.5 c 128,-1,6
 926 1360 926 1360 926 1336 c 1,7,8
 902 1124 902 1124 889.5 1013 c 128,-1,9
 877 902 877 902 876 891 c 1,10,11
 816 870 816 870 755 870 c 0,12,13
 643 870 643 870 628 957 c 1,14,-1
 584 1370 l 1,0,1
137 1370 m 1,15,16
 205 1411 205 1411 319 1411 c 0,17,18
 353 1411 353 1411 382 1408 c 128,-1,19
 411 1405 411 1405 432.5 1397 c 128,-1,20
 454 1389 454 1389 466.5 1374.5 c 128,-1,21
 479 1360 479 1360 479 1336 c 1,22,23
 455 1124 455 1124 442.5 1013 c 128,-1,24
 430 902 430 902 429 891 c 1,25,26
 369 870 369 870 308 870 c 0,27,28
 196 870 196 870 181 957 c 1,29,-1
 137 1370 l 1,15,16
EndSplineSet
Validated: 1
EndChar

StartChar: numbersign
Encoding: 35 35 25
Width: 1189
Flags: W
LayerCount: 2
Fore
SplineSet
1059 510 m 2,0,1
 1059 475 1059 475 1047.5 459.5 c 128,-1,2
 1036 444 1036 444 1007 438 c 1,3,-1
 822 438 l 1,4,-1
 747 72 l 1,5,-1
 687 72 l 2,6,7
 642 72 642 72 621.5 84 c 128,-1,8
 601 96 601 96 601 129 c 0,9,10
 601 136 601 136 602 145 c 128,-1,11
 603 154 603 154 606 167 c 2,12,-1
 661 438 l 1,13,-1
 417 438 l 1,14,-1
 341 72 l 1,15,-1
 271 72 l 2,16,17
 229 72 229 72 211 80 c 128,-1,18
 193 88 193 88 193 115 c 1,19,20
 194 120 194 120 195 132.5 c 128,-1,21
 196 145 196 145 201 167 c 2,22,-1
 257 438 l 1,23,-1
 57 438 l 1,24,-1
 57 498 l 2,25,26
 57 525 57 525 60 542 c 128,-1,27
 63 559 63 559 72 569.5 c 128,-1,28
 81 580 81 580 96.5 584 c 128,-1,29
 112 588 112 588 138 588 c 2,30,-1
 285 588 l 1,31,-1
 336 834 l 1,32,-1
 130 834 l 1,33,-1
 130 913 l 2,34,35
 130 957 130 957 147.5 971 c 128,-1,36
 165 985 165 985 212 985 c 2,37,-1
 368 985 l 1,38,-1
 443 1345 l 1,39,-1
 504 1345 l 2,40,41
 549 1345 549 1345 570.5 1333.5 c 128,-1,42
 592 1322 592 1322 592 1289 c 0,43,44
 592 1279 592 1279 589.5 1264.5 c 128,-1,45
 587 1250 587 1250 583 1231 c 2,46,-1
 531 985 l 1,47,-1
 772 985 l 1,48,-1
 849 1345 l 1,49,-1
 908 1345 l 2,50,51
 953 1345 953 1345 974 1333.5 c 128,-1,52
 995 1322 995 1322 995 1289 c 0,53,54
 995 1267 995 1267 985 1223 c 2,55,-1
 934 985 l 1,56,-1
 1131 985 l 1,57,-1
 1131 926 l 2,58,59
 1131 902 1131 902 1129.5 885 c 128,-1,60
 1128 868 1128 868 1120.5 856.5 c 128,-1,61
 1113 845 1113 845 1096.5 839.5 c 128,-1,62
 1080 834 1080 834 1050 834 c 2,63,-1
 905 834 l 1,64,-1
 852 588 l 1,65,-1
 1059 588 l 1,66,-1
 1059 510 l 2,0,1
447 588 m 1,67,-1
 691 588 l 1,68,-1
 743 834 l 1,69,-1
 499 834 l 1,70,-1
 447 588 l 1,67,-1
EndSplineSet
Validated: 1
EndChar

StartChar: dollar
Encoding: 36 36 26
Width: 1376
Flags: W
LayerCount: 2
Fore
SplineSet
648 1534 m 1,0,1
 703 1534 703 1534 727 1518.5 c 128,-1,2
 751 1503 751 1503 751 1458 c 2,3,-1
 751 1412 l 1,4,5
 830 1412 830 1412 903 1403 c 128,-1,6
 976 1394 976 1394 1036 1377.5 c 128,-1,7
 1096 1361 1096 1361 1141 1337 c 128,-1,8
 1186 1313 1186 1313 1211 1283 c 0,9,10
 1212 1282 1212 1282 1212 1278 c 0,11,12
 1212 1272 1212 1272 1209 1255.5 c 128,-1,13
 1206 1239 1206 1239 1199 1208 c 128,-1,14
 1192 1177 1192 1177 1180 1128.5 c 128,-1,15
 1168 1080 1168 1080 1149 1010 c 1,16,-1
 846 1082 l 1,17,18
 822 1120 822 1120 798 1155.5 c 128,-1,19
 774 1191 774 1191 751 1208 c 1,20,-1
 751 842 l 1,21,22
 807 819 807 819 854.5 800 c 128,-1,23
 902 781 902 781 946 760.5 c 128,-1,24
 990 740 990 740 1033 715.5 c 128,-1,25
 1076 691 1076 691 1123 658 c 1,26,27
 1152 635 1152 635 1179 610 c 128,-1,28
 1206 585 1206 585 1227 554 c 128,-1,29
 1248 523 1248 523 1260.5 485 c 128,-1,30
 1273 447 1273 447 1273 398 c 0,31,32
 1273 308 1273 308 1236 234 c 128,-1,33
 1199 160 1199 160 1131 106 c 128,-1,34
 1063 52 1063 52 966.5 19.5 c 128,-1,35
 870 -13 870 -13 751 -20 c 1,36,-1
 751 -186 l 1,37,38
 719 -186 719 -186 698.5 -182 c 128,-1,39
 678 -178 678 -178 667 -167.5 c 128,-1,40
 656 -157 656 -157 652 -137.5 c 128,-1,41
 648 -118 648 -118 648 -86 c 2,42,-1
 648 -21 l 1,43,44
 352 -13 352 -13 146 130 c 0,45,46
 130 141 130 141 118.5 152 c 128,-1,47
 107 163 107 163 100 174 c 1,48,49
 100 211 100 211 107 240 c 1,50,-1
 195 466 l 1,51,-1
 498 346 l 1,52,53
 534 263 534 263 569.5 220.5 c 128,-1,54
 605 178 605 178 648 162 c 1,55,-1
 648 587 l 1,56,57
 620 602 620 602 589 615.5 c 128,-1,58
 558 629 558 629 526.5 642 c 128,-1,59
 495 655 495 655 464.5 668 c 128,-1,60
 434 681 434 681 407 694 c 0,61,62
 353 720 353 720 302.5 752.5 c 128,-1,63
 252 785 252 785 213 826 c 128,-1,64
 174 867 174 867 150 918 c 128,-1,65
 126 969 126 969 126 1032 c 0,66,67
 126 1112 126 1112 163 1177.5 c 128,-1,68
 200 1243 200 1243 268.5 1292 c 128,-1,69
 337 1341 337 1341 433 1370.5 c 128,-1,70
 529 1400 529 1400 648 1408 c 1,71,-1
 648 1534 l 1,0,1
648 1237 m 1,72,73
 624 1231 624 1231 606.5 1215 c 128,-1,74
 589 1199 589 1199 577.5 1176.5 c 128,-1,75
 566 1154 566 1154 560.5 1126.5 c 128,-1,76
 555 1099 555 1099 555 1069 c 0,77,78
 555 952 555 952 648 891 c 1,79,-1
 648 1237 l 1,72,73
751 163 m 1,80,81
 793 182 793 182 815.5 231.5 c 128,-1,82
 838 281 838 281 838 342 c 0,83,84
 838 455 838 455 751 526 c 1,85,-1
 751 163 l 1,80,81
EndSplineSet
Validated: 1
EndChar

StartChar: percent
Encoding: 37 37 27
Width: 1685
Flags: W
LayerCount: 2
Fore
SplineSet
506 -34 m 1,0,-1
 352 53 l 1,1,-1
 1200 1440 l 1,2,-1
 1354 1352 l 1,3,-1
 506 -34 l 1,0,-1
392 775 m 0,4,5
 431 775 431 775 455.5 795.5 c 128,-1,6
 480 816 480 816 493.5 850.5 c 128,-1,7
 507 885 507 885 512 931.5 c 128,-1,8
 517 978 517 978 517 1031 c 0,9,10
 517 1166 517 1166 486 1226.5 c 128,-1,11
 455 1287 455 1287 392 1287 c 0,12,13
 351 1287 351 1287 326 1267 c 128,-1,14
 301 1247 301 1247 287 1212.5 c 128,-1,15
 273 1178 273 1178 268 1131.5 c 128,-1,16
 263 1085 263 1085 263 1031 c 256,17,18
 263 977 263 977 268 930.5 c 128,-1,19
 273 884 273 884 287 849.5 c 128,-1,20
 301 815 301 815 326 795 c 128,-1,21
 351 775 351 775 392 775 c 0,4,5
712 1031 m 256,22,23
 712 946 712 946 690.5 876 c 128,-1,24
 669 806 669 806 628.5 756 c 128,-1,25
 588 706 588 706 529.5 678.5 c 128,-1,26
 471 651 471 651 397 651 c 0,27,28
 312 651 312 651 250.5 680.5 c 128,-1,29
 189 710 189 710 149 761.5 c 128,-1,30
 109 813 109 813 89.5 882.5 c 128,-1,31
 70 952 70 952 70 1033 c 0,32,33
 70 1120 70 1120 90.5 1190 c 128,-1,34
 111 1260 111 1260 151.5 1309.5 c 128,-1,35
 192 1359 192 1359 252 1385.5 c 128,-1,36
 312 1412 312 1412 392 1412 c 0,37,38
 470 1412 470 1412 530 1384.5 c 128,-1,39
 590 1357 590 1357 630.5 1307 c 128,-1,40
 671 1257 671 1257 691.5 1186.5 c 128,-1,41
 712 1116 712 1116 712 1031 c 256,22,23
1168 358 m 0,42,43
 1168 305 1168 305 1172 258.5 c 128,-1,44
 1176 212 1176 212 1190 177.5 c 128,-1,45
 1204 143 1204 143 1230.5 123 c 128,-1,46
 1257 103 1257 103 1301 103 c 0,47,48
 1342 103 1342 103 1366 127.5 c 128,-1,49
 1390 152 1390 152 1402 190 c 128,-1,50
 1414 228 1414 228 1417.5 272.5 c 128,-1,51
 1421 317 1421 317 1421 358 c 0,52,53
 1421 413 1421 413 1416 460 c 128,-1,54
 1411 507 1411 507 1397 541.5 c 128,-1,55
 1383 576 1383 576 1358.5 596 c 128,-1,56
 1334 616 1334 616 1294 616 c 256,57,58
 1254 616 1254 616 1229.5 596 c 128,-1,59
 1205 576 1205 576 1191.5 541.5 c 128,-1,60
 1178 507 1178 507 1173 460 c 128,-1,61
 1168 413 1168 413 1168 358 c 0,42,43
1294 -23 m 0,62,63
 1215 -23 1215 -23 1154.5 5 c 128,-1,64
 1094 33 1094 33 1052.5 83.5 c 128,-1,65
 1011 134 1011 134 990 204 c 128,-1,66
 969 274 969 274 969 358 c 0,67,68
 969 445 969 445 989.5 515.5 c 128,-1,69
 1010 586 1010 586 1051 636 c 128,-1,70
 1092 686 1092 686 1152.5 713 c 128,-1,71
 1213 740 1213 740 1294 740 c 0,72,73
 1374 740 1374 740 1434.5 712.5 c 128,-1,74
 1495 685 1495 685 1535.5 634.5 c 128,-1,75
 1576 584 1576 584 1596 513.5 c 128,-1,76
 1616 443 1616 443 1616 358 c 0,77,78
 1616 272 1616 272 1594 201.5 c 128,-1,79
 1572 131 1572 131 1531 81 c 128,-1,80
 1490 31 1490 31 1430 4 c 128,-1,81
 1370 -23 1370 -23 1294 -23 c 0,62,63
EndSplineSet
Validated: 1
EndChar

StartChar: ampersand
Encoding: 38 38 28
Width: 1640
Flags: W
LayerCount: 2
Fore
SplineSet
529 1068 m 0,0,1
 529 950 529 950 575 893.5 c 128,-1,2
 621 837 621 837 727 837 c 2,3,-1
 1516 837 l 1,4,-1
 1516 507 l 1,5,-1
 1390 507 l 1,6,7
 1390 546 1390 546 1378 578 c 128,-1,8
 1366 610 1366 610 1343.5 632.5 c 128,-1,9
 1321 655 1321 655 1290 667.5 c 128,-1,10
 1259 680 1259 680 1220 680 c 1,11,-1
 1220 491 l 2,12,13
 1220 229 1220 229 1089.5 103.5 c 128,-1,14
 959 -22 959 -22 692 -22 c 0,15,16
 565 -22 565 -22 456 -4 c 128,-1,17
 347 14 347 14 267 59.5 c 128,-1,18
 187 105 187 105 141.5 182 c 128,-1,19
 96 259 96 259 96 377 c 0,20,21
 96 509 96 509 168.5 604.5 c 128,-1,22
 241 700 241 700 392 757 c 1,23,24
 133 836 133 836 133 1054 c 0,25,26
 133 1234 133 1234 298 1323 c 128,-1,27
 463 1412 463 1412 789 1412 c 0,28,29
 954 1412 954 1412 1203 1361 c 1,30,-1
 1203 1006 l 1,31,-1
 952 1006 l 1,32,33
 932 1123 932 1123 875.5 1187.5 c 128,-1,34
 819 1252 819 1252 728 1252 c 0,35,36
 686 1252 686 1252 649.5 1237.5 c 128,-1,37
 613 1223 613 1223 586 1198 c 128,-1,38
 559 1173 559 1173 544 1139.5 c 128,-1,39
 529 1106 529 1106 529 1068 c 0,0,1
500 374 m 0,40,41
 500 136 500 136 709 136 c 0,42,43
 746 136 746 136 772 153 c 128,-1,44
 798 170 798 170 815 199 c 128,-1,45
 832 228 832 228 841.5 265.5 c 128,-1,46
 851 303 851 303 855.5 343.5 c 128,-1,47
 860 384 860 384 861 425 c 128,-1,48
 862 466 862 466 862 502 c 2,49,-1
 862 680 l 1,50,-1
 690 680 l 2,51,52
 648 680 648 680 613 660.5 c 128,-1,53
 578 641 578 641 553 602.5 c 128,-1,54
 528 564 528 564 514 507 c 128,-1,55
 500 450 500 450 500 374 c 0,40,41
EndSplineSet
Validated: 1
EndChar

StartChar: quotesingle
Encoding: 39 39 29
Width: 616
Flags: W
LayerCount: 2
Fore
SplineSet
137 1370 m 1,0,1
 205 1411 205 1411 319 1411 c 0,2,3
 353 1411 353 1411 382 1408 c 128,-1,4
 411 1405 411 1405 432.5 1397 c 128,-1,5
 454 1389 454 1389 466.5 1374.5 c 128,-1,6
 479 1360 479 1360 479 1336 c 1,7,8
 455 1124 455 1124 442.5 1013 c 128,-1,9
 430 902 430 902 429 891 c 1,10,11
 369 870 369 870 308 870 c 0,12,13
 196 870 196 870 181 957 c 1,14,-1
 137 1370 l 1,0,1
EndSplineSet
Validated: 1
EndChar

StartChar: parenleft
Encoding: 40 40 30
Width: 769
Flags: W
LayerCount: 2
Fore
SplineSet
514 638 m 256,0,1
 514 168 514 168 704 -142 c 1,2,3
 668 -160 668 -160 623 -170 c 128,-1,4
 578 -180 578 -180 537 -185 c 0,5,6
 489 -191 489 -191 442 -193 c 1,7,8
 357 -119 357 -119 295.5 -27.5 c 128,-1,9
 234 64 234 64 194.5 170 c 128,-1,10
 155 276 155 276 136 393.5 c 128,-1,11
 117 511 117 511 117 638 c 256,12,13
 117 765 117 765 136 882.5 c 128,-1,14
 155 1000 155 1000 194.5 1106 c 128,-1,15
 234 1212 234 1212 295.5 1303.5 c 128,-1,16
 357 1395 357 1395 442 1469 c 1,17,18
 489 1467 489 1467 537 1461 c 0,19,20
 578 1456 578 1456 623 1445.5 c 128,-1,21
 668 1435 668 1435 704 1418 c 1,22,23
 514 1108 514 1108 514 638 c 256,0,1
EndSplineSet
Validated: 1
EndChar

StartChar: parenright
Encoding: 41 41 31
Width: 770
Flags: W
LayerCount: 2
Fore
SplineSet
255 638 m 256,0,1
 255 1108 255 1108 65 1418 c 1,2,3
 100 1435 100 1435 145.5 1445.5 c 128,-1,4
 191 1456 191 1456 232 1461 c 0,5,6
 280 1467 280 1467 327 1469 c 1,7,8
 412 1395 412 1395 473 1303.5 c 128,-1,9
 534 1212 534 1212 574 1106 c 128,-1,10
 614 1000 614 1000 633 882.5 c 128,-1,11
 652 765 652 765 652 638 c 256,12,13
 652 511 652 511 633 393.5 c 128,-1,14
 614 276 614 276 574 170 c 128,-1,15
 534 64 534 64 473 -27.5 c 128,-1,16
 412 -119 412 -119 327 -193 c 1,17,18
 280 -191 280 -191 232 -185 c 0,19,20
 191 -180 191 -180 145.5 -170 c 128,-1,21
 100 -160 100 -160 65 -142 c 1,22,23
 255 168 255 168 255 638 c 256,0,1
EndSplineSet
Validated: 1
EndChar

StartChar: asterisk
Encoding: 42 42 32
Width: 910
Flags: W
LayerCount: 2
Fore
SplineSet
288 703 m 1,0,-1
 392 994 l 1,1,-1
 124 859 l 1,2,-1
 72 1014 l 1,3,-1
 368 1080 l 1,4,-1
 110 1269 l 1,5,-1
 230 1382 l 1,6,-1
 428 1139 l 1,7,-1
 458 1440 l 1,8,-1
 626 1409 l 1,9,-1
 519 1126 l 1,10,-1
 789 1252 l 1,11,-1
 838 1109 l 1,12,-1
 547 1041 l 1,13,-1
 799 833 l 1,14,-1
 667 727 l 1,15,-1
 482 982 l 1,16,-1
 455 660 l 1,17,-1
 288 703 l 1,0,-1
EndSplineSet
Validated: 1
EndChar

StartChar: plus
Encoding: 43 43 33
Width: 1247
Flags: W
LayerCount: 2
Fore
SplineSet
562 1068 m 2,0,1
 641 1068 641 1068 686 1051.5 c 128,-1,2
 731 1035 731 1035 745 990 c 1,3,-1
 745 671 l 1,4,-1
 1114 671 l 1,5,-1
 1114 581 l 1,6,7
 1111 554 1111 554 1104.5 535.5 c 128,-1,8
 1098 517 1098 517 1083 505.5 c 128,-1,9
 1068 494 1068 494 1043.5 488.5 c 128,-1,10
 1019 483 1019 483 980 483 c 2,11,-1
 745 483 l 1,12,-1
 745 85 l 1,13,-1
 636 85 l 2,14,15
 615 85 615 85 593 86.5 c 128,-1,16
 571 88 571 88 552 93.5 c 128,-1,17
 533 99 533 99 519.5 111 c 128,-1,18
 506 123 506 123 502 144 c 1,19,20
 501 155 501 155 500.5 167 c 128,-1,21
 500 179 500 179 500 193 c 2,22,-1
 500 483 l 1,23,-1
 133 483 l 1,24,-1
 133 573 l 2,25,26
 133 609 133 609 145.5 629 c 128,-1,27
 158 649 158 649 180.5 658.5 c 128,-1,28
 203 668 203 668 233 669.5 c 128,-1,29
 263 671 263 671 298 671 c 2,30,-1
 500 671 l 1,31,-1
 500 1068 l 1,32,-1
 562 1068 l 2,0,1
EndSplineSet
Validated: 1
EndChar

StartChar: comma
Encoding: 44 44 34
Width: 704
Flags: W
LayerCount: 2
Fore
SplineSet
339 358 m 0,0,1
 448 358 448 358 504.5 294 c 128,-1,2
 561 230 561 230 561 118 c 0,3,4
 561 45 561 45 537 -19.5 c 128,-1,5
 513 -84 513 -84 466 -144 c 128,-1,6
 419 -204 419 -204 349 -261 c 128,-1,7
 279 -318 279 -318 186 -376 c 1,8,-1
 92 -283 l 1,9,10
 208 -172 208 -172 263 -15 c 1,11,12
 197 -1 197 -1 157.5 47 c 128,-1,13
 118 95 118 95 118 170 c 0,14,15
 118 213 118 213 136 248 c 128,-1,16
 154 283 154 283 184.5 307.5 c 128,-1,17
 215 332 215 332 255 345 c 128,-1,18
 295 358 295 358 339 358 c 0,0,1
EndSplineSet
Validated: 1
EndChar

StartChar: hyphen
Encoding: 45 45 35
Width: 854
Flags: W
LayerCount: 2
Fore
SplineSet
803 571 m 2,0,1
 803 529 803 529 783.5 500 c 128,-1,2
 764 471 764 471 727 471 c 2,3,-1
 51 471 l 1,4,-1
 51 562 l 2,5,6
 51 588 51 588 56.5 604.5 c 128,-1,7
 62 621 62 621 75 630 c 128,-1,8
 88 639 88 639 108 642.5 c 128,-1,9
 128 646 128 646 158 646 c 2,10,-1
 803 646 l 1,11,-1
 803 571 l 2,0,1
EndSplineSet
Validated: 1
EndChar

StartChar: period
Encoding: 46 46 36
Width: 687
Flags: W
LayerCount: 2
Fore
SplineSet
543 169 m 0,0,1
 543 125 543 125 529 89.5 c 128,-1,2
 515 54 515 54 488.5 29.5 c 128,-1,3
 462 5 462 5 425 -8.5 c 128,-1,4
 388 -22 388 -22 343 -22 c 256,5,6
 298 -22 298 -22 261 -8.5 c 128,-1,7
 224 5 224 5 197.5 29.5 c 128,-1,8
 171 54 171 54 157 89.5 c 128,-1,9
 143 125 143 125 143 169 c 0,10,11
 143 211 143 211 158 246 c 128,-1,12
 173 281 173 281 200 305.5 c 128,-1,13
 227 330 227 330 263.5 343.5 c 128,-1,14
 300 357 300 357 343 357 c 256,15,16
 386 357 386 357 423 342.5 c 128,-1,17
 460 328 460 328 486.5 303 c 128,-1,18
 513 278 513 278 528 243.5 c 128,-1,19
 543 209 543 209 543 169 c 0,0,1
EndSplineSet
Validated: 1
EndChar

StartChar: slash
Encoding: 47 47 37
Width: 906
Flags: W
LayerCount: 2
Fore
SplineSet
625 1331 m 2,0,1
 632 1346 632 1346 640 1361 c 128,-1,2
 648 1376 648 1376 660 1387 c 128,-1,3
 672 1398 672 1398 689.5 1405 c 128,-1,4
 707 1412 707 1412 733 1412 c 2,5,-1
 906 1412 l 1,6,-1
 276 48 l 2,7,8
 259 12 259 12 235.5 -5 c 128,-1,9
 212 -22 212 -22 171 -22 c 2,10,-1
 0 -22 l 1,11,-1
 625 1331 l 2,0,1
EndSplineSet
Validated: 1
EndChar

StartChar: zero
Encoding: 48 48 38
Width: 1357
Flags: W
LayerCount: 2
Fore
SplineSet
860 704 m 0,0,1
 860 818 860 818 852.5 913.5 c 128,-1,2
 845 1009 845 1009 824.5 1078 c 128,-1,3
 804 1147 804 1147 768.5 1185 c 128,-1,4
 733 1223 733 1223 678 1223 c 0,5,6
 579 1223 579 1223 538 1095 c 128,-1,7
 497 967 497 967 497 704 c 0,8,9
 497 573 497 573 506.5 473 c 128,-1,10
 516 373 516 373 537.5 305 c 128,-1,11
 559 237 559 237 593.5 202 c 128,-1,12
 628 167 628 167 678 167 c 0,13,14
 732 167 732 167 767 206.5 c 128,-1,15
 802 246 802 246 822.5 317 c 128,-1,16
 843 388 843 388 851.5 486.5 c 128,-1,17
 860 585 860 585 860 704 c 0,0,1
678 -22 m 0,18,19
 525 -22 525 -22 410.5 30.5 c 128,-1,20
 296 83 296 83 220.5 179 c 128,-1,21
 145 275 145 275 107.5 408.5 c 128,-1,22
 70 542 70 542 70 704 c 0,23,24
 70 869 70 869 108.5 1000.5 c 128,-1,25
 147 1132 147 1132 223.5 1223.5 c 128,-1,26
 300 1315 300 1315 413.5 1363.5 c 128,-1,27
 527 1412 527 1412 678 1412 c 0,28,29
 831 1412 831 1412 945.5 1362.5 c 128,-1,30
 1060 1313 1060 1313 1135.5 1221 c 128,-1,31
 1211 1129 1211 1129 1249 998 c 128,-1,32
 1287 867 1287 867 1287 704 c 0,33,34
 1287 537 1287 537 1247.5 403 c 128,-1,35
 1208 269 1208 269 1131 174.5 c 128,-1,36
 1054 80 1054 80 940 29 c 128,-1,37
 826 -22 826 -22 678 -22 c 0,18,19
EndSplineSet
Validated: 1
EndChar

StartChar: one
Encoding: 49 49 39
Width: 1001
Flags: W
LayerCount: 2
Fore
SplineSet
507 1399 m 0,0,1
 543 1399 543 1399 578.5 1397.5 c 128,-1,2
 614 1396 614 1396 642.5 1386 c 128,-1,3
 671 1376 671 1376 689 1354.5 c 128,-1,4
 707 1333 707 1333 707 1294 c 2,5,-1
 707 259 l 2,6,7
 707 231 707 231 708.5 208.5 c 128,-1,8
 710 186 710 186 712 167 c 1,9,-1
 900 167 l 1,10,-1
 900 -11 l 1,11,12
 788 -6 788 -6 689.5 -3 c 128,-1,13
 591 0 591 0 506 0 c 0,14,15
 415 0 415 0 311 -3 c 128,-1,16
 207 -6 207 -6 86 -11 c 1,17,-1
 86 167 l 1,18,-1
 272 167 l 1,19,20
 278 194 278 194 278 259 c 2,21,-1
 278 1162 l 2,22,23
 278 1185 278 1185 277 1204.5 c 128,-1,24
 276 1224 276 1224 274 1239 c 1,25,-1
 105 1239 l 1,26,-1
 105 1353 l 1,27,28
 207 1376 207 1376 305.5 1387.5 c 128,-1,29
 404 1399 404 1399 507 1399 c 0,0,1
EndSplineSet
Validated: 1
EndChar

StartChar: two
Encoding: 50 50 40
Width: 1304
Flags: W
LayerCount: 2
Fore
SplineSet
770 1040 m 0,0,1
 770 1133 770 1133 733.5 1189 c 128,-1,2
 697 1245 697 1245 623 1245 c 0,3,4
 584 1245 584 1245 546.5 1223 c 128,-1,5
 509 1201 509 1201 476 1161 c 128,-1,6
 443 1121 443 1121 415 1064.5 c 128,-1,7
 387 1008 387 1008 368 939 c 1,8,-1
 85 1123 l 1,9,10
 86 1185 86 1185 129 1238 c 128,-1,11
 172 1291 172 1291 246.5 1329.5 c 128,-1,12
 321 1368 321 1368 421.5 1390 c 128,-1,13
 522 1412 522 1412 638 1412 c 0,14,15
 755 1412 755 1412 853 1389 c 128,-1,16
 951 1366 951 1366 1021.5 1317 c 128,-1,17
 1092 1268 1092 1268 1131 1190 c 128,-1,18
 1170 1112 1170 1112 1170 1003 c 0,19,20
 1170 932 1170 932 1139 854 c 128,-1,21
 1108 776 1108 776 1032 685.5 c 128,-1,22
 956 595 956 595 827.5 489.5 c 128,-1,23
 699 384 699 384 504 258 c 1,24,-1
 770 258 l 2,25,26
 801 258 801 258 823.5 258 c 128,-1,27
 846 258 846 258 862.5 258 c 128,-1,28
 879 258 879 258 892.5 257.5 c 128,-1,29
 906 257 906 257 920 256 c 1,30,31
 945 296 945 296 972.5 350.5 c 128,-1,32
 1000 405 1000 405 1031 477 c 1,33,-1
 1210 460 l 1,34,35
 1208 319 1208 319 1204.5 209 c 128,-1,36
 1201 99 1201 99 1196 12 c 1,37,38
 1076 0 1076 0 842 0 c 2,39,-1
 210 0 l 2,40,41
 172 0 172 0 147 6 c 128,-1,42
 122 12 122 12 106 26 c 128,-1,43
 90 40 90 40 83.5 64 c 128,-1,44
 77 88 77 88 77 123 c 0,45,46
 77 150 77 150 80 185 c 1,47,48
 164 262 164 262 237 329 c 128,-1,49
 310 396 310 396 374.5 456 c 128,-1,50
 439 516 439 516 496.5 571 c 128,-1,51
 554 626 554 626 607 678 c 0,52,53
 640 711 640 711 670 746.5 c 128,-1,54
 700 782 700 782 722 824.5 c 128,-1,55
 744 867 744 867 757 920 c 128,-1,56
 770 973 770 973 770 1040 c 0,0,1
EndSplineSet
Validated: 1
EndChar

StartChar: three
Encoding: 51 51 41
Width: 1247
Flags: W
LayerCount: 2
Fore
SplineSet
57 1146 m 1,0,1
 97 1214 97 1214 147.5 1264 c 128,-1,2
 198 1314 198 1314 261.5 1347 c 128,-1,3
 325 1380 325 1380 404.5 1396 c 128,-1,4
 484 1412 484 1412 582 1412 c 0,5,6
 691 1412 691 1412 786.5 1391 c 128,-1,7
 882 1370 882 1370 952.5 1326.5 c 128,-1,8
 1023 1283 1023 1283 1063.5 1217.5 c 128,-1,9
 1104 1152 1104 1152 1104 1062 c 0,10,11
 1104 994 1104 994 1080 943.5 c 128,-1,12
 1056 893 1056 893 1013.5 857 c 128,-1,13
 971 821 971 821 913.5 798 c 128,-1,14
 856 775 856 775 789 761 c 1,15,16
 870 750 870 750 937 718.5 c 128,-1,17
 1004 687 1004 687 1052 637 c 128,-1,18
 1100 587 1100 587 1126.5 520 c 128,-1,19
 1153 453 1153 453 1153 371 c 0,20,21
 1153 278 1153 278 1112.5 203 c 128,-1,22
 1072 128 1072 128 997.5 75.5 c 128,-1,23
 923 23 923 23 818.5 -5 c 128,-1,24
 714 -33 714 -33 586 -33 c 0,25,26
 331 -33 331 -33 96 80 c 1,27,-1
 96 430 l 1,28,-1
 305 411 l 1,29,30
 336 271 336 271 397.5 209.5 c 128,-1,31
 459 148 459 148 542 148 c 0,32,33
 642 148 642 148 693.5 210 c 128,-1,34
 745 272 745 272 745 381 c 0,35,36
 745 639 745 639 469 639 c 2,37,-1
 318 639 l 1,38,-1
 328 799 l 1,39,-1
 442 808 l 2,40,41
 502 812 502 812 561 835.5 c 128,-1,42
 620 859 620 859 667 895.5 c 128,-1,43
 714 932 714 932 743.5 978 c 128,-1,44
 773 1024 773 1024 773 1075 c 0,45,46
 773 1111 773 1111 758 1138.5 c 128,-1,47
 743 1166 743 1166 717.5 1185 c 128,-1,48
 692 1204 692 1204 657.5 1213.5 c 128,-1,49
 623 1223 623 1223 583 1223 c 0,50,51
 539 1223 539 1223 496.5 1207.5 c 128,-1,52
 454 1192 454 1192 418 1161.5 c 128,-1,53
 382 1131 382 1131 353.5 1085 c 128,-1,54
 325 1039 325 1039 309 979 c 1,55,-1
 57 1146 l 1,0,1
EndSplineSet
Validated: 1
EndChar

StartChar: four
Encoding: 52 52 42
Width: 1281
Flags: W
LayerCount: 2
Fore
SplineSet
581 520 m 1,0,-1
 581 1074 l 1,1,-1
 211 520 l 1,2,-1
 581 520 l 1,0,-1
806 0 m 0,3,4
 724 0 724 0 621 -3 c 128,-1,5
 518 -6 518 -6 389 -11 c 1,6,-1
 389 167 l 1,7,-1
 575 167 l 1,8,9
 581 194 581 194 581 259 c 2,10,-1
 581 349 l 1,11,-1
 117 349 l 1,12,13
 72 425 72 425 49.5 484 c 128,-1,14
 27 543 27 543 27 597 c 1,15,-1
 567 1388 l 1,16,17
 580 1388 580 1388 594.5 1387.5 c 128,-1,18
 609 1387 609 1387 632.5 1387 c 128,-1,19
 656 1387 656 1387 693.5 1387 c 128,-1,20
 731 1387 731 1387 790 1387 c 2,21,-1
 848 1387 l 2,22,23
 876 1387 876 1387 901.5 1384 c 128,-1,24
 927 1381 927 1381 946 1371 c 128,-1,25
 965 1361 965 1361 976 1341.5 c 128,-1,26
 987 1322 987 1322 987 1289 c 2,27,-1
 987 520 l 1,28,-1
 1242 520 l 1,29,-1
 1242 434 l 2,30,31
 1242 390 1242 390 1210 369.5 c 128,-1,32
 1178 349 1178 349 1117 349 c 2,33,-1
 987 349 l 1,34,-1
 987 259 l 2,35,36
 987 231 987 231 988.5 208.5 c 128,-1,37
 990 186 990 186 992 167 c 1,38,-1
 1180 167 l 1,39,-1
 1180 -11 l 1,40,41
 1072 -6 1072 -6 979.5 -3 c 128,-1,42
 887 0 887 0 806 0 c 0,3,4
EndSplineSet
Validated: 1
EndChar

StartChar: five
Encoding: 53 53 43
Width: 1238
Flags: W
LayerCount: 2
Fore
SplineSet
763 1177 m 0,0,1
 697 1177 697 1177 629.5 1180 c 128,-1,2
 562 1183 562 1183 492 1190 c 1,3,-1
 492 862 l 1,4,5
 610 903 610 903 710 903 c 0,6,7
 806 903 806 903 883.5 869.5 c 128,-1,8
 961 836 961 836 1015.5 777 c 128,-1,9
 1070 718 1070 718 1099.5 638.5 c 128,-1,10
 1129 559 1129 559 1129 468 c 0,11,12
 1129 339 1129 339 1082 246.5 c 128,-1,13
 1035 154 1035 154 955 94.5 c 128,-1,14
 875 35 875 35 770 6.5 c 128,-1,15
 665 -22 665 -22 549 -22 c 0,16,17
 499 -22 499 -22 443 -15.5 c 128,-1,18
 387 -9 387 -9 328 4.5 c 128,-1,19
 269 18 269 18 209 37.5 c 128,-1,20
 149 57 149 57 92 83 c 1,21,-1
 92 437 l 1,22,-1
 306 417 l 1,23,24
 313 369 313 369 322 316.5 c 128,-1,25
 331 264 331 264 344 204 c 1,26,27
 438 166 438 166 506 166 c 0,28,29
 716 166 716 166 716 449 c 0,30,31
 716 502 716 502 709 548 c 128,-1,32
 702 594 702 594 684 628.5 c 128,-1,33
 666 663 666 663 635.5 682.5 c 128,-1,34
 605 702 605 702 559 702 c 0,35,36
 469 702 469 702 330 621 c 1,37,38
 319 624 319 624 304.5 628 c 128,-1,39
 290 632 290 632 265.5 637.5 c 128,-1,40
 241 643 241 643 205 650.5 c 128,-1,41
 169 658 169 658 116 669 c 1,42,-1
 116 1310 l 1,43,44
 162 1354 162 1354 227 1371 c 128,-1,45
 292 1388 292 1388 391 1388 c 0,46,47
 442 1388 442 1388 473 1388 c 128,-1,48
 504 1388 504 1388 529.5 1387.5 c 128,-1,49
 555 1387 555 1387 580 1387 c 128,-1,50
 605 1387 605 1387 644 1387 c 0,51,52
 716 1387 716 1387 810.5 1395.5 c 128,-1,53
 905 1404 905 1404 1026 1421 c 1,54,-1
 1034 1267 l 1,55,56
 1015 1241 1015 1241 990 1224 c 128,-1,57
 965 1207 965 1207 932 1196.5 c 128,-1,58
 899 1186 899 1186 857 1181.5 c 128,-1,59
 815 1177 815 1177 763 1177 c 0,0,1
EndSplineSet
Validated: 1
EndChar

StartChar: six
Encoding: 54 54 44
Width: 1292
Flags: W
LayerCount: 2
Fore
SplineSet
659 -22 m 0,0,1
 512 -22 512 -22 405 19 c 128,-1,2
 298 60 298 60 228.5 141 c 128,-1,3
 159 222 159 222 125.5 342 c 128,-1,4
 92 462 92 462 92 620 c 0,5,6
 92 1006 92 1006 252.5 1209 c 128,-1,7
 413 1412 413 1412 733 1412 c 0,8,9
 795 1412 795 1412 854 1407 c 128,-1,10
 913 1402 913 1402 965.5 1392.5 c 128,-1,11
 1018 1383 1018 1383 1061.5 1368.5 c 128,-1,12
 1105 1354 1105 1354 1136 1335 c 1,13,-1
 1136 963 l 1,14,-1
 904 963 l 1,15,-1
 872 1209 l 1,16,17
 818 1216 818 1216 780.5 1219.5 c 128,-1,18
 743 1223 743 1223 720 1223 c 0,19,20
 669 1223 669 1223 636.5 1204.5 c 128,-1,21
 604 1186 604 1186 584.5 1155 c 128,-1,22
 565 1124 565 1124 554.5 1083 c 128,-1,23
 544 1042 544 1042 537 998 c 0,24,25
 530 956 530 956 524.5 908 c 128,-1,26
 519 860 519 860 514 802 c 1,27,28
 655 866 655 866 789 866 c 0,29,30
 891 866 891 866 971 834 c 128,-1,31
 1051 802 1051 802 1106.5 744 c 128,-1,32
 1162 686 1162 686 1191 604 c 128,-1,33
 1220 522 1220 522 1220 423 c 0,34,35
 1220 325 1220 325 1179.5 243 c 128,-1,36
 1139 161 1139 161 1065 102 c 128,-1,37
 991 43 991 43 887.5 10.5 c 128,-1,38
 784 -22 784 -22 659 -22 c 0,0,1
516 607 m 1,39,40
 516 559 516 559 516 531 c 128,-1,41
 516 503 516 503 516.5 487 c 128,-1,42
 517 471 517 471 517 464.5 c 128,-1,43
 517 458 517 458 517 452 c 0,44,45
 517 383 517 383 527 327 c 128,-1,46
 537 271 537 271 556.5 231.5 c 128,-1,47
 576 192 576 192 604.5 170 c 128,-1,48
 633 148 633 148 669 148 c 0,49,50
 729 148 729 148 766.5 217 c 128,-1,51
 804 286 804 286 804 421 c 0,52,53
 804 470 804 470 800.5 515 c 128,-1,54
 797 560 797 560 785.5 594.5 c 128,-1,55
 774 629 774 629 751.5 650.5 c 128,-1,56
 729 672 729 672 692 675 c 1,57,58
 657 675 657 675 612 655.5 c 128,-1,59
 567 636 567 636 516 607 c 1,39,40
EndSplineSet
Validated: 1
EndChar

StartChar: seven
Encoding: 55 55 45
Width: 1274
Flags: W
LayerCount: 2
Fore
SplineSet
90 1348 m 1,0,1
 280 1387 280 1387 408 1387 c 2,2,-1
 1179 1387 l 1,3,4
 1206 1367 1206 1367 1206 1296 c 2,5,-1
 1206 1209 l 1,6,-1
 783 185 l 2,7,8
 763 137 763 137 738 100.5 c 128,-1,9
 713 64 713 64 679.5 39.5 c 128,-1,10
 646 15 646 15 602.5 2 c 128,-1,11
 559 -11 559 -11 504 -11 c 0,12,13
 424 -11 424 -11 376 3 c 128,-1,14
 328 17 328 17 301 56 c 1,15,16
 301 58 301 58 303 62 c 2,17,-1
 312 80 l 1,18,-1
 853 1197 l 1,19,-1
 485 1197 l 2,20,21
 463 1197 463 1197 435 1195.5 c 128,-1,22
 407 1194 407 1194 372 1192 c 1,23,24
 366 1144 366 1144 366 1125 c 2,25,-1
 359 930 l 1,26,-1
 145 930 l 1,27,-1
 90 1348 l 1,0,1
EndSplineSet
Validated: 1
EndChar

StartChar: eight
Encoding: 56 56 46
Width: 1243
Flags: W
LayerCount: 2
Fore
SplineSet
1136 1045 m 0,0,1
 1136 957 1136 957 1076.5 876 c 128,-1,2
 1017 795 1017 795 892 712 c 1,3,4
 946 691 946 691 998 658 c 128,-1,5
 1050 625 1050 625 1090.5 581.5 c 128,-1,6
 1131 538 1131 538 1156 485.5 c 128,-1,7
 1181 433 1181 433 1181 374 c 0,8,9
 1181 269 1181 269 1136.5 194 c 128,-1,10
 1092 119 1092 119 1014.5 71 c 128,-1,11
 937 23 937 23 833 0.5 c 128,-1,12
 729 -22 729 -22 611 -22 c 0,13,14
 497 -22 497 -22 397 0.5 c 128,-1,15
 297 23 297 23 222 68 c 128,-1,16
 147 113 147 113 104 179.5 c 128,-1,17
 61 246 61 246 61 333 c 0,18,19
 61 442 61 442 126 537 c 128,-1,20
 191 632 191 632 334 707 c 1,21,22
 283 734 283 734 237.5 766 c 128,-1,23
 192 798 192 798 157 838.5 c 128,-1,24
 122 879 122 879 101.5 930.5 c 128,-1,25
 81 982 81 982 81 1048 c 0,26,27
 81 1126 81 1126 119 1193 c 128,-1,28
 157 1260 157 1260 226.5 1308.5 c 128,-1,29
 296 1357 296 1357 393.5 1384.5 c 128,-1,30
 491 1412 491 1412 611 1412 c 0,31,32
 721 1412 721 1412 817 1387 c 128,-1,33
 913 1362 913 1362 984 1315 c 128,-1,34
 1055 1268 1055 1268 1095.5 1200 c 128,-1,35
 1136 1132 1136 1132 1136 1045 c 0,0,1
611 167 m 0,36,37
 687 167 687 167 726.5 218 c 128,-1,38
 766 269 766 269 766 354 c 0,39,40
 766 457 766 457 713.5 521 c 128,-1,41
 661 585 661 585 573 608 c 1,42,43
 464 532 464 532 464 362 c 0,44,45
 464 275 464 275 501.5 221 c 128,-1,46
 539 167 539 167 611 167 c 0,36,37
643 807 m 1,47,48
 734 862 734 862 734 1037 c 0,49,50
 734 1077 734 1077 726.5 1111.5 c 128,-1,51
 719 1146 719 1146 703.5 1171 c 128,-1,52
 688 1196 688 1196 665 1210 c 128,-1,53
 642 1224 642 1224 611 1224 c 0,54,55
 579 1224 579 1224 556 1210 c 128,-1,56
 533 1196 533 1196 518 1171.5 c 128,-1,57
 503 1147 503 1147 495.5 1112.5 c 128,-1,58
 488 1078 488 1078 488 1037 c 0,59,60
 488 872 488 872 643 807 c 1,47,48
EndSplineSet
Validated: 1
EndChar

StartChar: nine
Encoding: 57 57 47
Width: 1292
Flags: W
LayerCount: 2
Fore
SplineSet
633 1412 m 0,0,1
 780 1412 780 1412 887 1370.5 c 128,-1,2
 994 1329 994 1329 1063.5 1248 c 128,-1,3
 1133 1167 1133 1167 1166.5 1047 c 128,-1,4
 1200 927 1200 927 1200 770 c 0,5,6
 1200 384 1200 384 1047.5 181 c 128,-1,7
 895 -22 895 -22 589 -22 c 0,8,9
 523 -22 523 -22 459.5 -17.5 c 128,-1,10
 396 -13 396 -13 340.5 -3 c 128,-1,11
 285 7 285 7 240.5 21 c 128,-1,12
 196 35 196 35 166 55 c 1,13,-1
 166 427 l 1,14,-1
 398 427 l 1,15,-1
 430 190 l 1,16,17
 519 167 519 167 574 167 c 0,18,19
 644 167 644 167 682.5 206 c 128,-1,20
 721 245 721 245 739.5 306.5 c 128,-1,21
 758 368 758 368 764.5 442.5 c 128,-1,22
 771 517 771 517 778 588 c 1,23,24
 637 524 637 524 503 524 c 0,25,26
 401 524 401 524 321 556 c 128,-1,27
 241 588 241 588 185.5 646 c 128,-1,28
 130 704 130 704 101 786 c 128,-1,29
 72 868 72 868 72 967 c 0,30,31
 72 1065 72 1065 112.5 1147 c 128,-1,32
 153 1229 153 1229 227 1288 c 128,-1,33
 301 1347 301 1347 404.5 1379.5 c 128,-1,34
 508 1412 508 1412 633 1412 c 0,0,1
776 753 m 1,35,36
 776 786 776 786 776.5 808 c 128,-1,37
 777 830 777 830 777 838 c 0,38,39
 777 929 777 929 771.5 1001 c 128,-1,40
 766 1073 766 1073 749.5 1122 c 128,-1,41
 733 1171 733 1171 702.5 1197 c 128,-1,42
 672 1223 672 1223 623 1223 c 0,43,44
 563 1223 563 1223 525.5 1159 c 128,-1,45
 488 1095 488 1095 488 969 c 0,46,47
 488 922 488 922 491 876.5 c 128,-1,48
 494 831 494 831 505 795 c 128,-1,49
 516 759 516 759 538.5 737 c 128,-1,50
 561 715 561 715 600 715 c 0,51,52
 651 715 651 715 776 753 c 1,35,36
EndSplineSet
Validated: 1
EndChar

StartChar: colon
Encoding: 58 58 48
Width: 692
Flags: W
LayerCount: 2
Fore
SplineSet
548 817 m 0,0,1
 548 773 548 773 534 737.5 c 128,-1,2
 520 702 520 702 493.5 677.5 c 128,-1,3
 467 653 467 653 430 639.5 c 128,-1,4
 393 626 393 626 348 626 c 256,5,6
 303 626 303 626 266 639.5 c 128,-1,7
 229 653 229 653 202.5 677.5 c 128,-1,8
 176 702 176 702 162 737.5 c 128,-1,9
 148 773 148 773 148 817 c 0,10,11
 148 859 148 859 163 894 c 128,-1,12
 178 929 178 929 205 953.5 c 128,-1,13
 232 978 232 978 268.5 991.5 c 128,-1,14
 305 1005 305 1005 348 1005 c 256,15,16
 391 1005 391 1005 427.5 990.5 c 128,-1,17
 464 976 464 976 491 951 c 128,-1,18
 518 926 518 926 533 891.5 c 128,-1,19
 548 857 548 857 548 817 c 0,0,1
543 169 m 0,20,21
 543 125 543 125 529 89.5 c 128,-1,22
 515 54 515 54 488.5 29.5 c 128,-1,23
 462 5 462 5 425 -8.5 c 128,-1,24
 388 -22 388 -22 343 -22 c 256,25,26
 298 -22 298 -22 261 -8.5 c 128,-1,27
 224 5 224 5 197.5 29.5 c 128,-1,28
 171 54 171 54 157 89.5 c 128,-1,29
 143 125 143 125 143 169 c 0,30,31
 143 211 143 211 158 246 c 128,-1,32
 173 281 173 281 200 305.5 c 128,-1,33
 227 330 227 330 263.5 343.5 c 128,-1,34
 300 357 300 357 343 357 c 256,35,36
 386 357 386 357 423 342.5 c 128,-1,37
 460 328 460 328 486.5 303 c 128,-1,38
 513 278 513 278 528 243.5 c 128,-1,39
 543 209 543 209 543 169 c 0,20,21
EndSplineSet
Validated: 1
EndChar

StartChar: semicolon
Encoding: 59 59 49
Width: 684
Flags: W
LayerCount: 2
Fore
SplineSet
531 817 m 0,0,1
 531 773 531 773 517 737.5 c 128,-1,2
 503 702 503 702 476.5 677.5 c 128,-1,3
 450 653 450 653 413 639.5 c 128,-1,4
 376 626 376 626 331 626 c 256,5,6
 286 626 286 626 249 639.5 c 128,-1,7
 212 653 212 653 185.5 677.5 c 128,-1,8
 159 702 159 702 145 737.5 c 128,-1,9
 131 773 131 773 131 817 c 0,10,11
 131 859 131 859 146 894 c 128,-1,12
 161 929 161 929 188 953.5 c 128,-1,13
 215 978 215 978 251.5 991.5 c 128,-1,14
 288 1005 288 1005 331 1005 c 256,15,16
 374 1005 374 1005 411 990.5 c 128,-1,17
 448 976 448 976 474.5 951 c 128,-1,18
 501 926 501 926 516 891.5 c 128,-1,19
 531 857 531 857 531 817 c 0,0,1
339 283 m 0,20,21
 448 283 448 283 504.5 219 c 128,-1,22
 561 155 561 155 561 43 c 0,23,24
 561 -31 561 -31 537 -96 c 128,-1,25
 513 -161 513 -161 465.5 -221 c 128,-1,26
 418 -281 418 -281 348 -337.5 c 128,-1,27
 278 -394 278 -394 186 -451 c 1,28,-1
 92 -358 l 1,29,30
 208 -247 208 -247 263 -90 c 1,31,32
 197 -76 197 -76 157.5 -28 c 128,-1,33
 118 20 118 20 118 95 c 0,34,35
 118 138 118 138 136 173 c 128,-1,36
 154 208 154 208 184.5 232.5 c 128,-1,37
 215 257 215 257 255 270 c 128,-1,38
 295 283 295 283 339 283 c 0,20,21
EndSplineSet
Validated: 1
EndChar

StartChar: less
Encoding: 60 60 50
Width: 1506
Flags: W
LayerCount: 2
Fore
SplineSet
133 597 m 1,0,1
 330 685 330 685 481.5 752.5 c 128,-1,2
 633 820 633 820 747 870.5 c 128,-1,3
 861 921 861 921 940.5 956.5 c 128,-1,4
 1020 992 1020 992 1074 1016 c 128,-1,5
 1128 1040 1128 1040 1159.5 1053.5 c 128,-1,6
 1191 1067 1191 1067 1209 1074.5 c 128,-1,7
 1227 1082 1227 1082 1234.5 1084.5 c 128,-1,8
 1242 1087 1242 1087 1247 1089 c 1,9,10
 1346 1012 1346 1012 1354 992 c 1,11,-1
 1373 925 l 1,12,-1
 544 544 l 1,13,14
 685 479 685 479 794 429.5 c 128,-1,15
 903 380 903 380 986 342 c 128,-1,16
 1069 304 1069 304 1129.5 276.5 c 128,-1,17
 1190 249 1190 249 1235 228.5 c 128,-1,18
 1280 208 1280 208 1312.5 193.5 c 128,-1,19
 1345 179 1345 179 1372 167 c 1,20,-1
 1355 100 l 1,21,22
 1351 90 1351 90 1325 66 c 128,-1,23
 1299 42 1299 42 1245 0 c 1,24,25
 1228 5 1228 5 1208.5 12 c 128,-1,26
 1189 19 1189 19 1149 36 c 128,-1,27
 1109 53 1109 53 1039 84 c 128,-1,28
 969 115 969 115 851.5 168 c 128,-1,29
 734 221 734 221 558.5 301 c 128,-1,30
 383 381 383 381 133 495 c 1,31,-1
 133 597 l 1,0,1
EndSplineSet
Validated: 1
EndChar

StartChar: equal
Encoding: 61 61 51
Width: 1411
Flags: W
LayerCount: 2
Fore
SplineSet
1282 764 m 2,0,1
 1282 743 1282 743 1272 728 c 128,-1,2
 1262 713 1262 713 1245.5 701.5 c 128,-1,3
 1229 690 1229 690 1206.5 681.5 c 128,-1,4
 1184 673 1184 673 1159 665 c 1,5,-1
 129 665 l 1,6,-1
 129 755 l 2,7,8
 129 787 129 787 140 806 c 128,-1,9
 151 825 151 825 170.5 835.5 c 128,-1,10
 190 846 190 846 216.5 849 c 128,-1,11
 243 852 243 852 275 852 c 2,12,-1
 1282 852 l 1,13,-1
 1282 764 l 2,0,1
129 301 m 1,14,-1
 129 390 l 2,15,16
 129 424 129 424 138 444 c 128,-1,17
 147 464 147 464 168.5 473.5 c 128,-1,18
 190 483 190 483 225.5 485.5 c 128,-1,19
 261 488 261 488 314 488 c 2,20,-1
 1282 488 l 1,21,-1
 1282 399 l 2,22,23
 1282 366 1282 366 1251.5 343.5 c 128,-1,24
 1221 321 1221 321 1155 301 c 1,25,-1
 129 301 l 1,14,-1
EndSplineSet
Validated: 1
EndChar

StartChar: greater
Encoding: 62 62 52
Width: 1505
Flags: W
LayerCount: 2
Fore
SplineSet
1373 495 m 1,0,1
 1185 409 1185 409 1040.5 343 c 128,-1,2
 896 277 896 277 786.5 227.5 c 128,-1,3
 677 178 677 178 599 143 c 128,-1,4
 521 108 521 108 467 84 c 128,-1,5
 413 60 413 60 378.5 45.5 c 128,-1,6
 344 31 344 31 322.5 22 c 128,-1,7
 301 13 301 13 287.5 8.5 c 128,-1,8
 274 4 274 4 261 0 c 1,9,10
 207 42 207 42 181 66 c 128,-1,11
 155 90 155 90 151 100 c 1,12,-1
 134 167 l 1,13,14
 161 179 161 179 193.5 193.5 c 128,-1,15
 226 208 226 208 271 228.5 c 128,-1,16
 316 249 316 249 376.5 276.5 c 128,-1,17
 437 304 437 304 520 342 c 128,-1,18
 603 380 603 380 711.5 429.5 c 128,-1,19
 820 479 820 479 962 544 c 1,20,-1
 133 925 l 1,21,-1
 152 992 l 1,22,23
 160 1012 160 1012 259 1089 c 1,24,25
 264 1087 264 1087 271.5 1084.5 c 128,-1,26
 279 1082 279 1082 297 1074.5 c 128,-1,27
 315 1067 315 1067 346.5 1053.5 c 128,-1,28
 378 1040 378 1040 432 1016 c 128,-1,29
 486 992 486 992 565.5 956.5 c 128,-1,30
 645 921 645 921 759 870.5 c 128,-1,31
 873 820 873 820 1024.5 752.5 c 128,-1,32
 1176 685 1176 685 1373 597 c 1,33,-1
 1373 495 l 1,0,1
EndSplineSet
Validated: 1
EndChar

StartChar: question
Encoding: 63 63 53
Width: 1131
Flags: W
LayerCount: 2
Fore
SplineSet
637 360 m 1,0,-1
 475 360 l 1,1,2
 449 374 449 374 420 396 c 128,-1,3
 391 418 391 418 366.5 445.5 c 128,-1,4
 342 473 342 473 326 504.5 c 128,-1,5
 310 536 310 536 310 569 c 0,6,7
 310 604 310 604 322 635 c 128,-1,8
 334 666 334 666 355.5 695 c 128,-1,9
 377 724 377 724 406 753 c 128,-1,10
 435 782 435 782 470 814 c 0,11,12
 504 845 504 845 529 875 c 128,-1,13
 554 905 554 905 570.5 935 c 128,-1,14
 587 965 587 965 595.5 997.5 c 128,-1,15
 604 1030 604 1030 604 1067 c 0,16,17
 604 1144 604 1144 566.5 1184 c 128,-1,18
 529 1224 529 1224 473 1224 c 0,19,20
 435 1224 435 1224 393 1217.5 c 128,-1,21
 351 1211 351 1211 300 1198 c 1,22,-1
 300 1062 l 1,23,-1
 97 1062 l 1,24,-1
 97 1334 l 1,25,26
 161 1355 161 1355 229 1373 c 1,27,28
 287 1387 287 1387 357 1399.5 c 128,-1,29
 427 1412 427 1412 494 1412 c 0,30,31
 595 1412 595 1412 680.5 1389 c 128,-1,32
 766 1366 766 1366 827.5 1321 c 128,-1,33
 889 1276 889 1276 923.5 1210 c 128,-1,34
 958 1144 958 1144 958 1058 c 0,35,36
 958 999 958 999 937.5 950 c 128,-1,37
 917 901 917 901 881.5 856.5 c 128,-1,38
 846 812 846 812 798 769.5 c 128,-1,39
 750 727 750 727 695 681 c 0,40,41
 677 666 677 666 664.5 651.5 c 128,-1,42
 652 637 652 637 644.5 619 c 128,-1,43
 637 601 637 601 633.5 576.5 c 128,-1,44
 630 552 630 552 630 516 c 0,45,46
 630 482 630 482 631 438.5 c 128,-1,47
 632 395 632 395 637 360 c 1,0,-1
540 286 m 0,48,49
 579 286 579 286 609.5 271.5 c 128,-1,50
 640 257 640 257 661 233 c 128,-1,51
 682 209 682 209 693 179 c 128,-1,52
 704 149 704 149 704 118 c 0,53,54
 704 89 704 89 694.5 62.5 c 128,-1,55
 685 36 685 36 665.5 15 c 128,-1,56
 646 -6 646 -6 616 -18.5 c 128,-1,57
 586 -31 586 -31 544 -31 c 0,58,59
 499 -31 499 -31 466.5 -17.5 c 128,-1,60
 434 -4 434 -4 413 18 c 128,-1,61
 392 40 392 40 382 68.5 c 128,-1,62
 372 97 372 97 372 126 c 0,63,64
 372 156 372 156 382.5 184.5 c 128,-1,65
 393 213 393 213 414 235.5 c 128,-1,66
 435 258 435 258 466.5 272 c 128,-1,67
 498 286 498 286 540 286 c 0,48,49
EndSplineSet
Validated: 1
EndChar

StartChar: at
Encoding: 64 64 54
Width: 1782
Flags: W
LayerCount: 2
Fore
SplineSet
966 -38 m 0,0,1
 1225 -38 1225 -38 1464 108 c 1,2,-1
 1517 10 l 1,3,4
 1389 -72 1389 -72 1245.5 -119 c 128,-1,5
 1102 -166 1102 -166 951 -166 c 0,6,7
 825 -166 825 -166 713.5 -137.5 c 128,-1,8
 602 -109 602 -109 507.5 -57.5 c 128,-1,9
 413 -6 413 -6 338.5 66 c 128,-1,10
 264 138 264 138 211.5 226 c 128,-1,11
 159 314 159 314 131.5 415.5 c 128,-1,12
 104 517 104 517 104 626 c 0,13,14
 104 986 104 986 356 1222 c 0,15,16
 603 1452 603 1452 962 1452 c 0,17,18
 1127 1452 1127 1452 1263.5 1401 c 128,-1,19
 1400 1350 1400 1350 1497.5 1258 c 128,-1,20
 1595 1166 1595 1166 1648.5 1038.5 c 128,-1,21
 1702 911 1702 911 1702 759 c 0,22,23
 1702 643 1702 643 1667 543.5 c 128,-1,24
 1632 444 1632 444 1574.5 371 c 128,-1,25
 1517 298 1517 298 1442.5 256.5 c 128,-1,26
 1368 215 1368 215 1289 215 c 0,27,28
 1204 215 1204 215 1149 257 c 128,-1,29
 1094 299 1094 299 1066 368 c 1,30,31
 1021 301 1021 301 956.5 258 c 128,-1,32
 892 215 892 215 807 215 c 0,33,34
 741 215 741 215 689 237.5 c 128,-1,35
 637 260 637 260 601 301.5 c 128,-1,36
 565 343 565 343 546 401.5 c 128,-1,37
 527 460 527 460 527 531 c 0,38,39
 527 620 527 620 546 696 c 128,-1,40
 565 772 565 772 598.5 834.5 c 128,-1,41
 632 897 632 897 677 945 c 128,-1,42
 722 993 722 993 774 1025.5 c 128,-1,43
 826 1058 826 1058 883 1075 c 128,-1,44
 940 1092 940 1092 996 1092 c 0,45,46
 1048 1092 1048 1092 1090 1068.5 c 128,-1,47
 1132 1045 1132 1045 1161 996 c 1,48,-1
 1226 1055 l 1,49,50
 1264 1051 1264 1051 1293 1043 c 128,-1,51
 1322 1035 1322 1035 1340 1021 c 1,52,53
 1327 980 1327 980 1314.5 927.5 c 128,-1,54
 1302 875 1302 875 1290.5 822 c 128,-1,55
 1279 769 1279 769 1268.5 719 c 128,-1,56
 1258 669 1258 669 1250 633 c 0,57,58
 1239 584 1239 584 1230 539 c 128,-1,59
 1221 494 1221 494 1221 448 c 0,60,61
 1221 396 1221 396 1241.5 370.5 c 128,-1,62
 1262 345 1262 345 1310 345 c 0,63,64
 1352 345 1352 345 1396 376 c 128,-1,65
 1440 407 1440 407 1475.5 462.5 c 128,-1,66
 1511 518 1511 518 1534 595 c 128,-1,67
 1557 672 1557 672 1557 764 c 0,68,69
 1557 883 1557 883 1513 984.5 c 128,-1,70
 1469 1086 1469 1086 1390 1160.5 c 128,-1,71
 1311 1235 1311 1235 1201 1277 c 128,-1,72
 1091 1319 1091 1319 960 1319 c 0,73,74
 823 1319 823 1319 704 1268.5 c 128,-1,75
 585 1218 585 1218 497.5 1126 c 128,-1,76
 410 1034 410 1034 360 905 c 128,-1,77
 310 776 310 776 310 619 c 0,78,79
 310 475 310 475 359 354.5 c 128,-1,80
 408 234 408 234 495 147 c 128,-1,81
 582 60 582 60 702.5 11 c 128,-1,82
 823 -38 823 -38 966 -38 c 0,0,1
1122 891 m 1,83,84
 1114 928 1114 928 1088.5 950.5 c 128,-1,85
 1063 973 1063 973 1021 973 c 0,86,87
 966 973 966 973 918.5 938 c 128,-1,88
 871 903 871 903 826 833 c 0,89,90
 789 776 789 776 763 698.5 c 128,-1,91
 737 621 737 621 737 531 c 0,92,93
 737 493 737 493 745.5 460 c 128,-1,94
 754 427 754 427 770 402.5 c 128,-1,95
 786 378 786 378 810 364 c 128,-1,96
 834 350 834 350 864 350 c 0,97,98
 906 350 906 350 936.5 370 c 128,-1,99
 967 390 967 390 989 421 c 128,-1,100
 1011 452 1011 452 1025.5 488.5 c 128,-1,101
 1040 525 1040 525 1049 557 c 0,102,103
 1074 644 1074 644 1092 727 c 128,-1,104
 1110 810 1110 810 1122 891 c 1,83,84
EndSplineSet
Validated: 1
EndChar

StartChar: A
Encoding: 65 65 55
Width: 1669
Flags: W
LayerCount: 2
Fore
SplineSet
1318 0 m 0,0,1
 1284 0 1284 0 1234.5 -1.5 c 128,-1,2
 1185 -3 1185 -3 1118 -5 c 2,3,-1
 957 -11 l 1,4,-1
 957 113 l 1,5,6
 976 116 976 116 993 117 c 128,-1,7
 1010 118 1010 118 1022.5 121 c 128,-1,8
 1035 124 1035 124 1042 130.5 c 128,-1,9
 1049 137 1049 137 1049 151 c 0,10,11
 1049 156 1049 156 1048 161 c 128,-1,12
 1047 166 1047 166 1045 173 c 2,13,-1
 975 390 l 1,14,-1
 639 390 l 1,15,-1
 599 256 l 2,16,17
 591 232 591 232 588 211 c 128,-1,18
 585 190 585 190 585 173 c 0,19,20
 585 158 585 158 593 149 c 128,-1,21
 601 140 601 140 614 134 c 128,-1,22
 627 128 627 128 644.5 124.5 c 128,-1,23
 662 121 662 121 682 118 c 1,24,-1
 657 -11 l 1,25,26
 602 -6 602 -6 526 -3 c 128,-1,27
 450 0 450 0 350 0 c 0,28,29
 229 0 229 0 144 -3 c 128,-1,30
 59 -6 59 -6 8 -11 c 1,31,-1
 45 122 l 1,32,-1
 71 126 l 2,33,34
 104 131 104 131 125.5 139.5 c 128,-1,35
 147 148 147 148 161.5 162 c 128,-1,36
 176 176 176 176 186 197.5 c 128,-1,37
 196 219 196 219 208 250 c 0,38,39
 274 426 274 426 333.5 580.5 c 128,-1,40
 393 735 393 735 448 874 c 128,-1,41
 503 1013 503 1013 553.5 1140 c 128,-1,42
 604 1267 604 1267 652 1387 c 1,43,-1
 835 1387 l 2,44,45
 881 1387 881 1387 920.5 1384 c 128,-1,46
 960 1381 960 1381 991.5 1372 c 128,-1,47
 1023 1363 1023 1363 1044.5 1346 c 128,-1,48
 1066 1329 1066 1329 1077 1301 c 0,49,50
 1154 1094 1154 1094 1213 935 c 128,-1,51
 1272 776 1272 776 1316 656.5 c 128,-1,52
 1360 537 1360 537 1391 453 c 128,-1,53
 1422 369 1422 369 1443 313 c 128,-1,54
 1464 257 1464 257 1476 224.5 c 128,-1,55
 1488 192 1488 192 1494 175.5 c 128,-1,56
 1500 159 1500 159 1501.5 154 c 128,-1,57
 1503 149 1503 149 1503 148 c 2,58,-1
 1643 128 l 1,59,-1
 1669 -11 l 1,60,61
 1507 -6 1507 -6 1420.5 -3 c 128,-1,62
 1334 0 1334 0 1318 0 c 0,0,1
800 1006 m 1,63,-1
 669 543 l 1,64,-1
 933 543 l 1,65,66
 921 583 921 583 905.5 639 c 128,-1,67
 890 695 890 695 873 758 c 128,-1,68
 856 821 856 821 838 885 c 128,-1,69
 820 949 820 949 804 1006 c 1,70,-1
 800 1006 l 1,63,-1
EndSplineSet
Validated: 1
EndChar

StartChar: B
Encoding: 66 66 56
Width: 1514
Flags: W
LayerCount: 2
Fore
SplineSet
1158 703 m 1,0,1
 1441 625 1441 625 1441 382 c 0,2,3
 1441 296 1441 296 1414.5 234 c 128,-1,4
 1388 172 1388 172 1341 128.5 c 128,-1,5
 1294 85 1294 85 1230 58 c 128,-1,6
 1166 31 1166 31 1089.5 16 c 128,-1,7
 1013 1 1013 1 928 -4.5 c 128,-1,8
 843 -10 843 -10 755 -10 c 0,9,10
 360 -10 360 -10 71 11 c 1,11,-1
 71 167 l 1,12,-1
 213 167 l 2,13,14
 232 167 232 167 242.5 176 c 128,-1,15
 253 185 253 185 258.5 200.5 c 128,-1,16
 264 216 264 216 265 236 c 128,-1,17
 266 256 266 256 266 278 c 2,18,-1
 266 1092 l 2,19,20
 266 1159 266 1159 259 1197 c 1,21,-1
 57 1197 l 1,22,-1
 57 1364 l 1,23,24
 237 1375 237 1375 422.5 1381 c 128,-1,25
 608 1387 608 1387 808 1387 c 0,26,27
 1408 1387 1408 1387 1408 1006 c 0,28,29
 1408 962 1408 962 1392 918.5 c 128,-1,30
 1376 875 1376 875 1344.5 835.5 c 128,-1,31
 1313 796 1313 796 1266 762 c 128,-1,32
 1219 728 1219 728 1158 703 c 1,0,1
736 609 m 0,33,34
 723 609 723 609 711.5 608.5 c 128,-1,35
 700 608 700 608 695 608 c 1,36,-1
 695 167 l 1,37,38
 730 165 730 165 759.5 163.5 c 128,-1,39
 789 162 789 162 814 162 c 0,40,41
 911 162 911 162 958 217 c 128,-1,42
 1005 272 1005 272 1005 375 c 0,43,44
 1005 439 1005 439 989 484 c 128,-1,45
 973 529 973 529 940 556.5 c 128,-1,46
 907 584 907 584 856 596.5 c 128,-1,47
 805 609 805 609 736 609 c 0,33,34
745 772 m 2,48,49
 857 772 857 772 916.5 830 c 128,-1,50
 976 888 976 888 976 1000 c 0,51,52
 976 1109 976 1109 925.5 1160 c 128,-1,53
 875 1211 875 1211 766 1211 c 0,54,55
 746 1211 746 1211 734 1211 c 128,-1,56
 722 1211 722 1211 714.5 1211 c 128,-1,57
 707 1211 707 1211 702.5 1210.5 c 128,-1,58
 698 1210 698 1210 695 1210 c 1,59,-1
 695 772 l 1,60,-1
 745 772 l 2,48,49
EndSplineSet
Validated: 1
EndChar

StartChar: C
Encoding: 67 67 57
Width: 1522
Flags: W
LayerCount: 2
Fore
SplineSet
898 158 m 0,0,1
 978 158 978 158 1047 170 c 128,-1,2
 1116 182 1116 182 1178 203 c 128,-1,3
 1240 224 1240 224 1298 251 c 128,-1,4
 1356 278 1356 278 1415 308 c 1,5,-1
 1440 112 l 1,6,7
 1189 -35 1189 -35 872 -35 c 0,8,9
 696 -35 696 -35 555 11.5 c 128,-1,10
 414 58 414 58 316 147.5 c 128,-1,11
 218 237 218 237 165.5 366 c 128,-1,12
 113 495 113 495 113 660 c 0,13,14
 113 843 113 843 166 983.5 c 128,-1,15
 219 1124 219 1124 319.5 1219 c 128,-1,16
 420 1314 420 1314 565 1363 c 128,-1,17
 710 1412 710 1412 894 1412 c 0,18,19
 963 1412 963 1412 1032.5 1404 c 128,-1,20
 1102 1396 1102 1396 1169.5 1379.5 c 128,-1,21
 1237 1363 1237 1363 1300 1338 c 128,-1,22
 1363 1313 1363 1313 1419 1279 c 1,23,-1
 1396 1002 l 1,24,-1
 1067 1002 l 1,25,-1
 1040 1071 l 2,26,27
 1030 1096 1030 1096 1017.5 1125.5 c 128,-1,28
 1005 1155 1005 1155 987 1180 c 128,-1,29
 969 1205 969 1205 945 1221.5 c 128,-1,30
 921 1238 921 1238 890 1238 c 0,31,32
 735 1238 735 1238 650.5 1103 c 128,-1,33
 566 968 566 968 566 701 c 0,34,35
 566 439 566 439 648.5 298.5 c 128,-1,36
 731 158 731 158 898 158 c 0,0,1
EndSplineSet
Validated: 1
EndChar

StartChar: D
Encoding: 68 68 58
Width: 1711
Flags: W
LayerCount: 2
Fore
SplineSet
820 1387 m 0,0,1
 1011 1387 1011 1387 1156.5 1345.5 c 128,-1,2
 1302 1304 1302 1304 1400 1218 c 128,-1,3
 1498 1132 1498 1132 1548 999 c 128,-1,4
 1598 866 1598 866 1598 682 c 0,5,6
 1598 500 1598 500 1540 371 c 128,-1,7
 1482 242 1482 242 1376 159.5 c 128,-1,8
 1270 77 1270 77 1122 38.5 c 128,-1,9
 974 0 974 0 793 0 c 2,10,-1
 65 0 l 1,11,-1
 65 151 l 1,12,-1
 255 151 l 1,13,14
 255 151 255 151 256 161.5 c 128,-1,15
 257 172 257 172 258 189.5 c 128,-1,16
 259 207 259 207 260 230 c 128,-1,17
 261 253 261 253 261 278 c 2,18,-1
 261 1093 l 2,19,20
 261 1161 261 1161 252 1206 c 1,21,-1
 57 1206 l 1,22,-1
 57 1366 l 1,23,24
 396 1387 396 1387 820 1387 c 0,0,1
1147 689 m 0,25,26
 1147 808 1147 808 1132.5 904.5 c 128,-1,27
 1118 1001 1118 1001 1078 1069 c 128,-1,28
 1038 1137 1038 1137 967.5 1174 c 128,-1,29
 897 1211 897 1211 785 1211 c 0,30,31
 781 1211 781 1211 775.5 1211 c 128,-1,32
 770 1211 770 1211 759.5 1210.5 c 128,-1,33
 749 1210 749 1210 732.5 1210 c 128,-1,34
 716 1210 716 1210 690 1210 c 1,35,-1
 690 171 l 1,36,37
 699 170 699 170 707.5 170 c 128,-1,38
 716 170 716 170 724 170 c 0,39,40
 848 170 848 170 929.5 206 c 128,-1,41
 1011 242 1011 242 1059.5 309.5 c 128,-1,42
 1108 377 1108 377 1127.5 473 c 128,-1,43
 1147 569 1147 569 1147 689 c 0,25,26
EndSplineSet
Validated: 1
EndChar

StartChar: E
Encoding: 69 69 59
Width: 1463
Flags: W
LayerCount: 2
Fore
SplineSet
57 1363 m 1,0,1
 427 1387 427 1387 741 1387 c 0,2,3
 867 1387 867 1387 957.5 1387 c 128,-1,4
 1048 1387 1048 1387 1110.5 1387 c 128,-1,5
 1173 1387 1173 1387 1212.5 1387 c 128,-1,6
 1252 1387 1252 1387 1276 1387 c 128,-1,7
 1300 1387 1300 1387 1313 1387.5 c 128,-1,8
 1326 1388 1326 1388 1336 1388 c 1,9,-1
 1391 1066 l 1,10,-1
 1168 1038 l 1,11,12
 1163 1078 1163 1078 1153 1114.5 c 128,-1,13
 1143 1151 1143 1151 1127 1185 c 1,14,15
 1001 1203 1001 1203 915 1203 c 2,16,-1
 698 1203 l 1,17,-1
 698 777 l 1,18,-1
 871 777 l 2,19,20
 890 777 890 777 901.5 791 c 128,-1,21
 913 805 913 805 919.5 825.5 c 128,-1,22
 926 846 926 846 930 869 c 128,-1,23
 934 892 934 892 939 911 c 1,24,-1
 1090 911 l 1,25,-1
 1090 476 l 1,26,27
 1076 475 1076 475 1062 475 c 128,-1,28
 1048 475 1048 475 1034 475 c 2,29,-1
 939 475 l 1,30,31
 930 518 930 518 922.5 546 c 128,-1,32
 915 574 915 574 907 590.5 c 128,-1,33
 899 607 899 607 890.5 613 c 128,-1,34
 882 619 882 619 871 619 c 2,35,-1
 698 619 l 1,36,-1
 698 167 l 1,37,-1
 978 167 l 2,38,39
 1060 167 1060 167 1099 180 c 1,40,41
 1106 200 1106 200 1113.5 244.5 c 128,-1,42
 1121 289 1121 289 1131 361 c 1,43,44
 1195 359 1195 359 1259 359 c 128,-1,45
 1323 359 1323 359 1398 359 c 1,46,47
 1396 271 1396 271 1393 185 c 128,-1,48
 1390 99 1390 99 1385 14 c 1,49,50
 1149 -1 1149 -1 981 -1 c 0,51,52
 857 -1 857 -1 755.5 -1 c 128,-1,53
 654 -1 654 -1 569.5 -1 c 128,-1,54
 485 -1 485 -1 414.5 -1 c 128,-1,55
 344 -1 344 -1 282.5 -0.5 c 128,-1,56
 221 0 221 0 166 0.5 c 128,-1,57
 111 1 111 1 57 1 c 1,58,-1
 57 167 l 1,59,-1
 264 167 l 1,60,61
 266 184 266 184 267.5 203 c 128,-1,62
 269 222 269 222 269 245 c 2,63,-1
 269 1111 l 2,64,65
 269 1140 269 1140 267.5 1163 c 128,-1,66
 266 1186 266 1186 264 1203 c 1,67,-1
 57 1203 l 1,68,-1
 57 1363 l 1,0,1
EndSplineSet
Validated: 1
EndChar

StartChar: F
Encoding: 70 70 60
Width: 1301
Flags: W
LayerCount: 2
Fore
SplineSet
57 1365 m 1,0,1
 224 1376 224 1376 369 1381.5 c 128,-1,2
 514 1387 514 1387 646 1387 c 0,3,4
 662 1387 662 1387 681.5 1387 c 128,-1,5
 701 1387 701 1387 732.5 1387 c 128,-1,6
 764 1387 764 1387 810.5 1387 c 128,-1,7
 857 1387 857 1387 927 1387 c 128,-1,8
 997 1387 997 1387 1094 1386.5 c 128,-1,9
 1191 1386 1191 1386 1323 1386 c 1,10,-1
 1358 1046 l 1,11,-1
 1135 1028 l 1,12,13
 1130 1053 1130 1053 1121.5 1091.5 c 128,-1,14
 1113 1130 1113 1130 1098 1193 c 1,15,16
 1063 1198 1063 1198 1036.5 1200.5 c 128,-1,17
 1010 1203 1010 1203 992 1203 c 2,18,-1
 668 1203 l 1,19,-1
 668 777 l 1,20,-1
 869 777 l 2,21,22
 888 777 888 777 899.5 791 c 128,-1,23
 911 805 911 805 917.5 825.5 c 128,-1,24
 924 846 924 846 928 869 c 128,-1,25
 932 892 932 892 937 911 c 1,26,-1
 1088 911 l 1,27,-1
 1088 476 l 1,28,29
 1081 476 1081 476 1072.5 475.5 c 128,-1,30
 1064 475 1064 475 1048 475 c 128,-1,31
 1032 475 1032 475 1006 475 c 128,-1,32
 980 475 980 475 937 475 c 1,33,34
 928 518 928 518 920.5 546 c 128,-1,35
 913 574 913 574 905 590.5 c 128,-1,36
 897 607 897 607 888.5 613 c 128,-1,37
 880 619 880 619 869 619 c 2,38,-1
 668 619 l 1,39,-1
 668 259 l 2,40,41
 668 231 668 231 669.5 208.5 c 128,-1,42
 671 186 671 186 673 167 c 1,43,-1
 831 167 l 1,44,-1
 831 -11 l 1,45,46
 728 -6 728 -6 638 -3 c 128,-1,47
 548 0 548 0 467 0 c 0,48,49
 379 0 379 0 277 -3 c 128,-1,50
 175 -6 175 -6 57 -11 c 1,51,-1
 57 167 l 1,52,-1
 233 167 l 1,53,54
 239 194 239 194 239 259 c 2,55,-1
 239 1111 l 2,56,57
 239 1142 239 1142 237.5 1165 c 128,-1,58
 236 1188 236 1188 234 1203 c 1,59,-1
 57 1203 l 1,60,-1
 57 1365 l 1,0,1
EndSplineSet
Validated: 1
EndChar

StartChar: G
Encoding: 71 71 61
Width: 1537
Flags: W
LayerCount: 2
Fore
SplineSet
898 177 m 0,0,1
 993 177 993 177 1056 196 c 1,2,-1
 1056 405 l 2,3,4
 1056 472 1056 472 1049 499 c 1,5,-1
 836 499 l 1,6,-1
 836 624 l 1,7,8
 986 643 986 643 1134 652 c 128,-1,9
 1282 661 1282 661 1436 661 c 2,10,-1
 1480 661 l 1,11,-1
 1480 136 l 1,12,13
 1232 -22 1232 -22 896 -22 c 0,14,15
 717 -22 717 -22 572.5 23 c 128,-1,16
 428 68 428 68 326 155 c 128,-1,17
 224 242 224 242 168.5 369.5 c 128,-1,18
 113 497 113 497 113 662 c 0,19,20
 113 855 113 855 173.5 996.5 c 128,-1,21
 234 1138 234 1138 345 1230 c 128,-1,22
 456 1322 456 1322 613 1367 c 128,-1,23
 770 1412 770 1412 964 1412 c 0,24,25
 1031 1412 1031 1412 1103 1402.5 c 128,-1,26
 1175 1393 1175 1393 1241.5 1376 c 128,-1,27
 1308 1359 1308 1359 1364 1335.5 c 128,-1,28
 1420 1312 1420 1312 1455 1284 c 1,29,-1
 1430 929 l 1,30,-1
 1179 929 l 1,31,32
 1171 1001 1171 1001 1150 1059 c 128,-1,33
 1129 1117 1129 1117 1094.5 1157.5 c 128,-1,34
 1060 1198 1060 1198 1013 1220 c 128,-1,35
 966 1242 966 1242 907 1242 c 0,36,37
 739 1242 739 1242 652 1102 c 128,-1,38
 565 962 565 962 565 682 c 0,39,40
 565 573 565 573 585.5 480.5 c 128,-1,41
 606 388 606 388 647 320.5 c 128,-1,42
 688 253 688 253 751 215 c 128,-1,43
 814 177 814 177 898 177 c 0,0,1
EndSplineSet
Validated: 1
EndChar

StartChar: H
Encoding: 72 72 62
Width: 1773
Flags: W
LayerCount: 2
Fore
SplineSet
470 0 m 0,0,1
 382 0 382 0 280 -3 c 128,-1,2
 178 -6 178 -6 60 -11 c 1,3,-1
 60 167 l 1,4,-1
 236 167 l 1,5,6
 242 194 242 194 242 259 c 2,7,-1
 242 1123 l 1,8,9
 240 1154 240 1154 238 1177 c 128,-1,10
 236 1200 236 1200 234 1215 c 1,11,-1
 57 1215 l 1,12,-1
 57 1377 l 1,13,14
 162 1388 162 1388 255 1393.5 c 128,-1,15
 348 1399 348 1399 436 1399 c 0,16,17
 559 1399 559 1399 657 1395 c 128,-1,18
 755 1391 755 1391 831 1383 c 1,19,-1
 831 1215 l 1,20,-1
 673 1215 l 1,21,22
 671 1199 671 1199 669.5 1180 c 128,-1,23
 668 1161 668 1161 668 1139 c 2,24,-1
 668 805 l 1,25,-1
 1104 805 l 1,26,-1
 1104 1123 l 1,27,-1
 1096 1215 l 1,28,-1
 939 1215 l 1,29,-1
 939 1377 l 1,30,31
 1044 1388 1044 1388 1137 1393.5 c 128,-1,32
 1230 1399 1230 1399 1318 1399 c 0,33,34
 1441 1399 1441 1399 1539 1395 c 128,-1,35
 1637 1391 1637 1391 1713 1383 c 1,36,-1
 1713 1215 l 1,37,-1
 1535 1215 l 1,38,39
 1533 1198 1533 1198 1531.5 1175 c 128,-1,40
 1530 1152 1530 1152 1530 1123 c 2,41,-1
 1530 259 l 1,42,43
 1532 232 1532 232 1534 209 c 128,-1,44
 1536 186 1536 186 1538 167 c 1,45,-1
 1716 167 l 1,46,-1
 1716 -11 l 1,47,48
 1607 -6 1607 -6 1512 -3 c 128,-1,49
 1417 0 1417 0 1332 0 c 256,50,51
 1247 0 1247 0 1150.5 -3 c 128,-1,52
 1054 -6 1054 -6 942 -11 c 1,53,-1
 942 167 l 1,54,-1
 1098 167 l 1,55,56
 1104 194 1104 194 1104 259 c 2,57,-1
 1104 623 l 1,58,-1
 671 623 l 1,59,-1
 671 259 l 2,60,61
 671 231 671 231 672.5 208.5 c 128,-1,62
 674 186 674 186 676 167 c 1,63,-1
 834 167 l 1,64,-1
 834 -11 l 1,65,66
 731 -6 731 -6 641 -3 c 128,-1,67
 551 0 551 0 470 0 c 0,0,1
EndSplineSet
Validated: 1
EndChar

StartChar: I
Encoding: 73 73 63
Width: 928
Flags: W
LayerCount: 2
Fore
SplineSet
477 0 m 0,0,1
 386 0 386 0 282 -3 c 128,-1,2
 178 -6 178 -6 57 -11 c 1,3,-1
 57 167 l 1,4,-1
 243 167 l 1,5,6
 249 194 249 194 249 259 c 2,7,-1
 249 1123 l 2,8,9
 249 1154 249 1154 247.5 1177 c 128,-1,10
 246 1200 246 1200 244 1215 c 1,11,-1
 57 1215 l 1,12,-1
 57 1377 l 1,13,14
 166 1388 166 1388 262 1393.5 c 128,-1,15
 358 1399 358 1399 446 1399 c 0,16,17
 578 1399 578 1399 682.5 1395 c 128,-1,18
 787 1391 787 1391 871 1383 c 1,19,-1
 871 1215 l 1,20,-1
 683 1215 l 1,21,22
 681 1198 681 1198 679.5 1175 c 128,-1,23
 678 1152 678 1152 678 1123 c 2,24,-1
 678 259 l 2,25,26
 678 231 678 231 679.5 208.5 c 128,-1,27
 681 186 681 186 683 167 c 1,28,-1
 871 167 l 1,29,-1
 871 -11 l 1,30,31
 759 -6 759 -6 660.5 -3 c 128,-1,32
 562 0 562 0 477 0 c 0,0,1
EndSplineSet
Validated: 1
EndChar

StartChar: J
Encoding: 74 74 64
Width: 1019
Flags: W
LayerCount: 2
Fore
SplineSet
831 1216 m 1,0,1
 829 1202 829 1202 828 1179 c 128,-1,2
 827 1156 827 1156 827 1124 c 2,3,-1
 827 216 l 2,4,5
 827 -22 827 -22 705 -149 c 128,-1,6
 583 -276 583 -276 351 -276 c 0,7,8
 148 -276 148 -276 20 -221 c 1,9,10
 20 -202 20 -202 23.5 -155 c 128,-1,11
 27 -108 27 -108 34 -30 c 2,12,-1
 48 143 l 1,13,-1
 292 143 l 1,14,-1
 306 -93 l 1,15,16
 333 -105 333 -105 357 -105 c 0,17,18
 461 -105 461 -105 461 2 c 0,19,20
 461 33 461 33 455 69.5 c 128,-1,21
 449 106 449 106 442 130 c 2,22,-1
 407 250 l 2,23,24
 397 284 397 284 397 312 c 2,25,-1
 397 1124 l 2,26,27
 397 1155 397 1155 395.5 1178 c 128,-1,28
 394 1201 394 1201 392 1216 c 1,29,-1
 205 1216 l 1,30,-1
 205 1378 l 1,31,32
 314 1389 314 1389 410 1394.5 c 128,-1,33
 506 1400 506 1400 594 1400 c 0,34,35
 726 1400 726 1400 830.5 1396 c 128,-1,36
 935 1392 935 1392 1019 1384 c 1,37,-1
 1019 1216 l 1,38,-1
 831 1216 l 1,0,1
EndSplineSet
Validated: 1
EndChar

StartChar: K
Encoding: 75 75 65
Width: 1809
Flags: W
LayerCount: 2
Fore
SplineSet
1536 0 m 0,0,1
 1418 0 1418 0 1286.5 -3 c 128,-1,2
 1155 -6 1155 -6 1005 -11 c 1,3,-1
 995 167 l 1,4,-1
 1072 167 l 1,5,6
 1067 178 1067 178 1064 187 c 128,-1,7
 1061 196 1061 196 1056.5 206 c 128,-1,8
 1052 216 1052 216 1045.5 228.5 c 128,-1,9
 1039 241 1039 241 1027 259 c 2,10,-1
 709 728 l 1,11,-1
 1089 1123 l 2,12,13
 1123 1158 1123 1158 1145 1181 c 128,-1,14
 1167 1204 1167 1204 1175 1215 c 1,15,-1
 988 1215 l 1,16,-1
 979 1377 l 1,17,18
 1097 1388 1097 1388 1199.5 1393.5 c 128,-1,19
 1302 1399 1302 1399 1390 1399 c 0,20,21
 1519 1399 1519 1399 1618 1395 c 128,-1,22
 1717 1391 1717 1391 1789 1383 c 1,23,-1
 1712 1215 l 1,24,-1
 1524 1215 l 1,25,26
 1513 1205 1513 1205 1489 1182 c 128,-1,27
 1465 1159 1465 1159 1428 1123 c 2,28,-1
 1132 832 l 1,29,-1
 1566 259 l 2,30,31
 1571 252 1571 252 1577.5 244.5 c 128,-1,32
 1584 237 1584 237 1593.5 226.5 c 128,-1,33
 1603 216 1603 216 1617 201.5 c 128,-1,34
 1631 187 1631 187 1652 167 c 1,35,-1
 1760 167 l 1,36,-1
 1809 -11 l 1,37,38
 1712 -6 1712 -6 1645 -3 c 128,-1,39
 1578 0 1578 0 1536 0 c 0,0,1
477 0 m 0,40,41
 386 0 386 0 282 -3 c 128,-1,42
 178 -6 178 -6 57 -11 c 1,43,-1
 57 167 l 1,44,-1
 243 167 l 1,45,46
 249 194 249 194 249 259 c 2,47,-1
 249 1123 l 2,48,49
 249 1154 249 1154 247.5 1177 c 128,-1,50
 246 1200 246 1200 244 1215 c 1,51,-1
 57 1215 l 1,52,-1
 57 1377 l 1,53,54
 166 1388 166 1388 262 1393.5 c 128,-1,55
 358 1399 358 1399 446 1399 c 0,56,57
 578 1399 578 1399 682.5 1395 c 128,-1,58
 787 1391 787 1391 871 1383 c 1,59,-1
 871 1215 l 1,60,-1
 683 1215 l 1,61,62
 681 1198 681 1198 679.5 1175 c 128,-1,63
 678 1152 678 1152 678 1123 c 2,64,-1
 678 259 l 2,65,66
 678 231 678 231 679.5 208.5 c 128,-1,67
 681 186 681 186 683 167 c 1,68,-1
 871 167 l 1,69,-1
 871 -11 l 1,70,71
 759 -6 759 -6 660.5 -3 c 128,-1,72
 562 0 562 0 477 0 c 0,40,41
EndSplineSet
Validated: 1
EndChar

StartChar: L
Encoding: 76 76 66
Width: 1398
Flags: W
LayerCount: 2
Fore
SplineSet
685 1215 m 1,0,1
 678 1186 678 1186 678 1129 c 2,2,-1
 678 167 l 1,3,-1
 907 167 l 2,4,5
 943 167 943 167 966.5 180.5 c 128,-1,6
 990 194 990 194 1005.5 214.5 c 128,-1,7
 1021 235 1021 235 1029.5 258.5 c 128,-1,8
 1038 282 1038 282 1044 303 c 0,9,10
 1054 338 1054 338 1067 377.5 c 128,-1,11
 1080 417 1080 417 1096 471 c 1,12,-1
 1331 439 l 1,13,-1
 1289 0 l 1,14,-1
 868 0 l 2,15,16
 566 0 566 0 379 -2 c 128,-1,17
 192 -4 192 -4 123 -12 c 1,18,-1
 123 167 l 1,19,-1
 245 167 l 1,20,21
 247 212 247 212 248 251.5 c 128,-1,22
 249 291 249 291 249 326 c 2,23,-1
 249 1129 l 2,24,25
 249 1156 249 1156 247.5 1177.5 c 128,-1,26
 246 1199 246 1199 244 1215 c 1,27,-1
 57 1215 l 1,28,-1
 57 1377 l 1,29,30
 166 1388 166 1388 262 1393.5 c 128,-1,31
 358 1399 358 1399 446 1399 c 0,32,33
 578 1399 578 1399 683 1395 c 128,-1,34
 788 1391 788 1391 872 1383 c 1,35,-1
 872 1215 l 1,36,-1
 685 1215 l 1,0,1
EndSplineSet
Validated: 1
EndChar

StartChar: M
Encoding: 77 77 67
Width: 2238
Flags: W
LayerCount: 2
Fore
SplineSet
1618 1399 m 0,0,1
 1721 1399 1721 1399 1832.5 1394.5 c 128,-1,2
 1944 1390 1944 1390 2065 1382 c 1,3,-1
 2065 1215 l 1,4,-1
 1872 1215 l 1,5,6
 1875 1178 1875 1178 1880.5 1121 c 128,-1,7
 1886 1064 1886 1064 1892.5 994 c 128,-1,8
 1899 924 1899 924 1906.5 845.5 c 128,-1,9
 1914 767 1914 767 1921.5 688.5 c 128,-1,10
 1929 610 1929 610 1936.5 536 c 128,-1,11
 1944 462 1944 462 1950 400 c 128,-1,12
 1956 338 1956 338 1960.5 292.5 c 128,-1,13
 1965 247 1965 247 1967 227 c 0,14,15
 1969 206 1969 206 1971.5 192.5 c 128,-1,16
 1974 179 1974 179 1978 167 c 1,17,-1
 2163 167 l 1,18,-1
 2181 -16 l 1,19,20
 2090 -8 2090 -8 1990 -4 c 128,-1,21
 1890 0 1890 0 1778 0 c 0,22,23
 1678 0 1678 0 1589 -3 c 128,-1,24
 1500 -6 1500 -6 1415 -11 c 1,25,-1
 1427 167 l 1,26,-1
 1543 167 l 2,27,28
 1542 167 1542 167 1530 311.5 c 128,-1,29
 1518 456 1518 456 1490 757 c 1,30,31
 1415 492 1415 492 1360 305.5 c 128,-1,32
 1305 119 1305 119 1270 2 c 1,33,-1
 901 2 l 1,34,35
 840 175 840 175 773.5 362 c 128,-1,36
 707 549 707 549 635 760 c 1,37,38
 623 649 623 649 612 544 c 128,-1,39
 601 439 601 439 592 354 c 0,40,41
 581 255 581 255 573 167 c 1,42,-1
 761 167 l 1,43,-1
 743 -11 l 1,44,45
 643 -6 643 -6 565.5 -3 c 128,-1,46
 488 0 488 0 428 0 c 0,47,48
 341 0 341 0 249 -4 c 128,-1,49
 157 -8 157 -8 57 -16 c 1,50,-1
 75 167 l 1,51,-1
 260 167 l 1,52,-1
 366 1151 l 2,53,54
 367 1156 367 1156 367 1161.5 c 128,-1,55
 367 1167 367 1167 367 1172 c 0,56,57
 367 1186 367 1186 366 1196.5 c 128,-1,58
 365 1207 365 1207 364 1215 c 1,59,-1
 160 1215 l 1,60,-1
 160 1382 l 1,61,62
 281 1390 281 1390 392.5 1394.5 c 128,-1,63
 504 1399 504 1399 607 1399 c 0,64,65
 679 1399 679 1399 736.5 1393 c 128,-1,66
 794 1387 794 1387 840 1376 c 1,67,68
 853 1336 853 1336 874.5 1272 c 128,-1,69
 896 1208 896 1208 922 1131 c 128,-1,70
 948 1054 948 1054 976 972 c 128,-1,71
 1004 890 1004 890 1030 814 c 128,-1,72
 1056 738 1056 738 1077.5 675.5 c 128,-1,73
 1099 613 1099 613 1111 577 c 1,74,-1
 1281 1078 l 2,75,76
 1327 1213 1327 1213 1352.5 1286.5 c 128,-1,77
 1378 1360 1378 1360 1385 1376 c 1,78,79
 1477 1399 1477 1399 1618 1399 c 0,0,1
EndSplineSet
Validated: 1
EndChar

StartChar: N
Encoding: 78 78 68
Width: 1754
Flags: W
LayerCount: 2
Fore
SplineSet
432 0 m 0,0,1
 356 0 356 0 262.5 -3 c 128,-1,2
 169 -6 169 -6 57 -13 c 1,3,-1
 57 167 l 1,4,-1
 263 167 l 1,5,6
 269 192 269 192 269 259 c 2,7,-1
 269 1123 l 2,8,9
 269 1152 269 1152 267.5 1175 c 128,-1,10
 266 1198 266 1198 264 1215 c 1,11,-1
 57 1215 l 1,12,-1
 57 1370 l 1,13,14
 157 1384 157 1384 259.5 1391.5 c 128,-1,15
 362 1399 362 1399 471 1399 c 0,16,17
 522 1399 522 1399 574.5 1393.5 c 128,-1,18
 627 1388 627 1388 684 1377 c 1,19,20
 790 1215 790 1215 920 1021.5 c 128,-1,21
 1050 828 1050 828 1209 595 c 1,22,-1
 1209 1123 l 2,23,24
 1209 1191 1209 1191 1201 1217 c 1,25,-1
 997 1217 l 1,26,-1
 997 1381 l 1,27,28
 1112 1399 1112 1399 1331 1399 c 0,29,30
 1430 1399 1430 1399 1520 1396 c 128,-1,31
 1610 1393 1610 1393 1697 1386 c 1,32,-1
 1697 1217 l 1,33,-1
 1515 1217 l 1,34,35
 1513 1203 1513 1203 1511.5 1180 c 128,-1,36
 1510 1157 1510 1157 1510 1125 c 2,37,-1
 1510 0 l 1,38,-1
 1277 0 l 2,39,40
 1239 0 1239 0 1196 3 c 128,-1,41
 1153 6 1153 6 1102 11 c 1,42,-1
 602 791 l 1,43,-1
 602 262 l 2,44,45
 602 253 602 253 603 238.5 c 128,-1,46
 604 224 604 224 605 210 c 128,-1,47
 606 196 606 196 607 183.5 c 128,-1,48
 608 171 608 171 608 167 c 1,49,-1
 806 167 l 1,50,-1
 806 -13 l 1,51,52
 691 -6 691 -6 598 -3 c 128,-1,53
 505 0 505 0 432 0 c 0,0,1
EndSplineSet
Validated: 1
EndChar

StartChar: O
Encoding: 79 79 69
Width: 1687
Flags: W
LayerCount: 2
Fore
SplineSet
565 686 m 0,0,1
 565 434 565 434 634.5 300.5 c 128,-1,2
 704 167 704 167 844 167 c 0,3,4
 977 167 977 167 1050 295.5 c 128,-1,5
 1123 424 1123 424 1123 689 c 0,6,7
 1123 955 1123 955 1051 1089 c 128,-1,8
 979 1223 979 1223 844 1223 c 0,9,10
 712 1223 712 1223 638.5 1090 c 128,-1,11
 565 957 565 957 565 686 c 0,0,1
1574 689 m 0,12,13
 1574 520 1574 520 1523 388 c 128,-1,14
 1472 256 1472 256 1377 165 c 128,-1,15
 1282 74 1282 74 1147 26 c 128,-1,16
 1012 -22 1012 -22 844 -22 c 0,17,18
 672 -22 672 -22 536.5 27.5 c 128,-1,19
 401 77 401 77 307 169 c 128,-1,20
 213 261 213 261 163 392.5 c 128,-1,21
 113 524 113 524 113 689 c 0,22,23
 113 861 113 861 163.5 995.5 c 128,-1,24
 214 1130 214 1130 308.5 1222.5 c 128,-1,25
 403 1315 403 1315 538.5 1363.5 c 128,-1,26
 674 1412 674 1412 844 1412 c 0,27,28
 1016 1412 1016 1412 1151.5 1362 c 128,-1,29
 1287 1312 1287 1312 1381 1218.5 c 128,-1,30
 1475 1125 1475 1125 1524.5 991 c 128,-1,31
 1574 857 1574 857 1574 689 c 0,12,13
EndSplineSet
Validated: 1
EndChar

StartChar: P
Encoding: 80 80 70
Width: 1445
Flags: W
LayerCount: 2
Fore
SplineSet
754 1399 m 0,0,1
 889 1399 889 1399 1004 1381 c 128,-1,2
 1119 1363 1119 1363 1203.5 1316 c 128,-1,3
 1288 1269 1288 1269 1335.5 1186 c 128,-1,4
 1383 1103 1383 1103 1383 974 c 0,5,6
 1383 772 1383 772 1232.5 660.5 c 128,-1,7
 1082 549 1082 549 780 549 c 2,8,-1
 702 549 l 1,9,10
 702 476 702 476 702 426 c 128,-1,11
 702 376 702 376 702 343 c 128,-1,12
 702 310 702 310 701.5 292 c 128,-1,13
 701 274 701 274 701 265 c 128,-1,14
 701 256 701 256 701 253.5 c 128,-1,15
 701 251 701 251 701 250 c 0,16,17
 701 240 701 240 702 227 c 128,-1,18
 703 214 703 214 704 202 c 128,-1,19
 705 190 705 190 706 180 c 128,-1,20
 707 170 707 170 707 167 c 1,21,-1
 905 167 l 1,22,-1
 905 -13 l 1,23,24
 773 -6 773 -6 668.5 -3 c 128,-1,25
 564 0 564 0 482 0 c 0,26,27
 397 0 397 0 292 -3 c 128,-1,28
 187 -6 187 -6 57 -13 c 1,29,-1
 57 167 l 1,30,-1
 263 167 l 1,31,32
 265 178 265 178 267.5 201 c 128,-1,33
 270 224 270 224 270 259 c 2,34,-1
 270 1128 l 2,35,36
 270 1157 270 1157 268.5 1179 c 128,-1,37
 267 1201 267 1201 265 1215 c 1,38,-1
 60 1215 l 1,39,-1
 60 1379 l 1,40,41
 210 1389 210 1389 381.5 1394 c 128,-1,42
 553 1399 553 1399 754 1399 c 0,0,1
947 967 m 0,43,44
 947 1032 947 1032 934 1079 c 128,-1,45
 921 1126 921 1126 893 1156 c 128,-1,46
 865 1186 865 1186 820.5 1200.5 c 128,-1,47
 776 1215 776 1215 713 1215 c 2,48,-1
 700 1215 l 1,49,-1
 700 720 l 1,50,-1
 723 720 l 2,51,52
 842 720 842 720 894.5 781.5 c 128,-1,53
 947 843 947 843 947 967 c 0,43,44
EndSplineSet
Validated: 1
EndChar

StartChar: Q
Encoding: 81 81 71
Width: 1746
Flags: W
LayerCount: 2
Fore
SplineSet
1633 -155 m 1,0,1
 1369 -248 1369 -248 1148 -248 c 0,2,3
 1055 -248 1055 -248 977.5 -231 c 128,-1,4
 900 -214 900 -214 833.5 -181.5 c 128,-1,5
 767 -149 767 -149 710.5 -101.5 c 128,-1,6
 654 -54 654 -54 603 7 c 1,7,8
 488 37 488 37 397 96.5 c 128,-1,9
 306 156 306 156 243 242.5 c 128,-1,10
 180 329 180 329 146.5 441.5 c 128,-1,11
 113 554 113 554 113 689 c 0,12,13
 113 861 113 861 163.5 995.5 c 128,-1,14
 214 1130 214 1130 308.5 1222.5 c 128,-1,15
 403 1315 403 1315 538.5 1363.5 c 128,-1,16
 674 1412 674 1412 844 1412 c 0,17,18
 1016 1412 1016 1412 1151.5 1362 c 128,-1,19
 1287 1312 1287 1312 1381 1218.5 c 128,-1,20
 1475 1125 1475 1125 1524.5 991 c 128,-1,21
 1574 857 1574 857 1574 689 c 0,22,23
 1574 555 1574 555 1542 444.5 c 128,-1,24
 1510 334 1510 334 1449 248.5 c 128,-1,25
 1388 163 1388 163 1301 103.5 c 128,-1,26
 1214 44 1214 44 1104 12 c 1,27,28
 1168 -39 1168 -39 1260 -39 c 0,29,30
 1428 -39 1428 -39 1585 4 c 1,31,-1
 1633 -155 l 1,0,1
565 686 m 0,32,33
 565 434 565 434 634.5 300.5 c 128,-1,34
 704 167 704 167 844 167 c 0,35,36
 977 167 977 167 1050 295.5 c 128,-1,37
 1123 424 1123 424 1123 689 c 0,38,39
 1123 955 1123 955 1051 1089 c 128,-1,40
 979 1223 979 1223 844 1223 c 0,41,42
 712 1223 712 1223 638.5 1090 c 128,-1,43
 565 957 565 957 565 686 c 0,32,33
EndSplineSet
Validated: 1
EndChar

StartChar: R
Encoding: 82 82 72
Width: 1580
Flags: W
LayerCount: 2
Fore
SplineSet
495 0 m 0,0,1
 410 0 410 0 311 -3 c 128,-1,2
 212 -6 212 -6 95 -11 c 1,3,-1
 95 167 l 1,4,-1
 261 167 l 1,5,6
 267 194 267 194 267 259 c 2,7,-1
 267 1127 l 2,8,9
 267 1157 267 1157 265.5 1179 c 128,-1,10
 264 1201 264 1201 262 1215 c 1,11,-1
 57 1215 l 1,12,-1
 57 1382 l 1,13,14
 227 1390 227 1390 393.5 1394.5 c 128,-1,15
 560 1399 560 1399 731 1399 c 0,16,17
 815 1399 815 1399 897.5 1393.5 c 128,-1,18
 980 1388 980 1388 1054 1372 c 128,-1,19
 1128 1356 1128 1356 1191 1327.5 c 128,-1,20
 1254 1299 1254 1299 1299.5 1254 c 128,-1,21
 1345 1209 1345 1209 1371 1144 c 128,-1,22
 1397 1079 1397 1079 1397 991 c 0,23,24
 1397 882 1397 882 1315.5 795 c 128,-1,25
 1234 708 1234 708 1071 651 c 1,26,27
 1154 614 1154 614 1207 571 c 128,-1,28
 1260 528 1260 528 1295 473.5 c 128,-1,29
 1330 419 1330 419 1353.5 350 c 128,-1,30
 1377 281 1377 281 1402 193 c 1,31,-1
 1570 193 l 1,32,-1
 1570 -1 l 1,33,34
 1508 -6 1508 -6 1445.5 -13 c 128,-1,35
 1383 -20 1383 -20 1317 -20 c 0,36,37
 1231 -20 1231 -20 1170 5.5 c 128,-1,38
 1109 31 1109 31 1066.5 72.5 c 128,-1,39
 1024 114 1024 114 996 167 c 128,-1,40
 968 220 968 220 948.5 275.5 c 128,-1,41
 929 331 929 331 914 384.5 c 128,-1,42
 899 438 899 438 881.5 479.5 c 128,-1,43
 864 521 864 521 841.5 546.5 c 128,-1,44
 819 572 819 572 784 572 c 2,45,-1
 699 572 l 1,46,-1
 699 259 l 2,47,48
 699 231 699 231 700.5 208.5 c 128,-1,49
 702 186 702 186 704 167 c 1,50,-1
 842 167 l 1,51,-1
 842 -11 l 1,52,53
 745 -6 745 -6 659 -3 c 128,-1,54
 573 0 573 0 495 0 c 0,0,1
750 739 m 2,55,56
 961 739 961 739 961 983 c 0,57,58
 961 1046 961 1046 948 1090 c 128,-1,59
 935 1134 935 1134 907 1161.5 c 128,-1,60
 879 1189 879 1189 835 1202 c 128,-1,61
 791 1215 791 1215 728 1215 c 2,62,-1
 699 1215 l 1,63,-1
 699 739 l 1,64,-1
 750 739 l 2,55,56
EndSplineSet
Validated: 1
EndChar

StartChar: S
Encoding: 83 83 73
Width: 1336
Flags: W
LayerCount: 2
Fore
SplineSet
637 1240 m 0,0,1
 607 1240 607 1240 584.5 1227 c 128,-1,2
 562 1214 562 1214 546.5 1191 c 128,-1,3
 531 1168 531 1168 523.5 1136.5 c 128,-1,4
 516 1105 516 1105 516 1069 c 0,5,6
 516 1022 516 1022 529.5 987.5 c 128,-1,7
 543 953 543 953 571 926 c 128,-1,8
 599 899 599 899 640.5 876.5 c 128,-1,9
 682 854 682 854 738 831 c 0,10,11
 790 810 790 810 847 786 c 128,-1,12
 904 762 904 762 959.5 733 c 128,-1,13
 1015 704 1015 704 1064.5 670 c 128,-1,14
 1114 636 1114 636 1152 595 c 128,-1,15
 1190 554 1190 554 1212 505 c 128,-1,16
 1234 456 1234 456 1234 398 c 0,17,18
 1234 305 1234 305 1193.5 227.5 c 128,-1,19
 1153 150 1153 150 1077 94.5 c 128,-1,20
 1001 39 1001 39 893.5 8.5 c 128,-1,21
 786 -22 786 -22 652 -22 c 0,22,23
 325 -22 325 -22 107 130 c 0,24,25
 81 148 81 148 70.5 162 c 128,-1,26
 60 176 60 176 60 195 c 0,27,28
 60 204 60 204 62 215 c 128,-1,29
 64 226 64 226 68 240 c 1,30,-1
 156 466 l 1,31,-1
 459 346 l 1,32,33
 505 240 505 240 554 196 c 128,-1,34
 603 152 603 152 661 152 c 0,35,36
 695 152 695 152 721 167.5 c 128,-1,37
 747 183 747 183 764 209.5 c 128,-1,38
 781 236 781 236 790 270 c 128,-1,39
 799 304 799 304 799 342 c 0,40,41
 799 403 799 403 778.5 445.5 c 128,-1,42
 758 488 758 488 720 519.5 c 128,-1,43
 682 551 682 551 629 576.5 c 128,-1,44
 576 602 576 602 511 630 c 0,45,46
 404 676 404 676 324.5 721 c 128,-1,47
 245 766 245 766 192.5 814 c 128,-1,48
 140 862 140 862 113.5 915.5 c 128,-1,49
 87 969 87 969 87 1032 c 0,50,51
 87 1119 87 1119 130 1189 c 128,-1,52
 173 1259 173 1259 254 1308.5 c 128,-1,53
 335 1358 335 1358 450.5 1385 c 128,-1,54
 566 1412 566 1412 711 1412 c 0,55,56
 791 1412 791 1412 865 1404 c 128,-1,57
 939 1396 939 1396 1000 1380 c 128,-1,58
 1061 1364 1061 1364 1105.5 1340 c 128,-1,59
 1150 1316 1150 1316 1172 1283 c 1,60,-1
 1110 1010 l 1,61,-1
 807 1082 l 1,62,63
 765 1154 765 1154 724 1197 c 128,-1,64
 683 1240 683 1240 637 1240 c 0,0,1
EndSplineSet
Validated: 1
EndChar

StartChar: T
Encoding: 84 84 74
Width: 1446
Flags: W
LayerCount: 2
Fore
SplineSet
735 0 m 0,0,1
 644 0 644 0 540 -3 c 128,-1,2
 436 -6 436 -6 315 -11 c 1,3,-1
 315 167 l 1,4,-1
 501 167 l 1,5,6
 507 194 507 194 507 259 c 2,7,-1
 507 1203 l 1,8,-1
 252 1203 l 1,9,10
 234 1071 234 1071 231 1011 c 1,11,-1
 29 1011 l 1,12,13
 29 1034 29 1034 27.5 1084 c 128,-1,14
 26 1134 26 1134 24.5 1190 c 128,-1,15
 23 1246 23 1246 21.5 1296 c 128,-1,16
 20 1346 20 1346 20 1369 c 1,17,18
 50 1380 50 1380 122.5 1384 c 128,-1,19
 195 1388 195 1388 298 1388 c 2,20,-1
 1148 1388 l 2,21,22
 1251 1388 1251 1388 1323.5 1384 c 128,-1,23
 1396 1380 1396 1380 1426 1369 c 1,24,25
 1426 1353 1426 1353 1425.5 1325 c 128,-1,26
 1425 1297 1425 1297 1424 1262.5 c 128,-1,27
 1423 1228 1423 1228 1421.5 1190 c 128,-1,28
 1420 1152 1420 1152 1419 1117.5 c 128,-1,29
 1418 1083 1418 1083 1417.5 1055 c 128,-1,30
 1417 1027 1417 1027 1417 1011 c 1,31,-1
 1215 1011 l 1,32,33
 1215 1011 1215 1011 1214 1020 c 128,-1,34
 1213 1029 1213 1029 1211.5 1042.5 c 128,-1,35
 1210 1056 1210 1056 1208.5 1073.5 c 128,-1,36
 1207 1091 1207 1091 1205 1109 c 2,37,-1
 1195 1205 l 1,38,-1
 939 1205 l 1,39,-1
 939 259 l 2,40,41
 939 231 939 231 940.5 208.5 c 128,-1,42
 942 186 942 186 944 167 c 1,43,-1
 1132 167 l 1,44,-1
 1132 -11 l 1,45,46
 1020 -6 1020 -6 921.5 -3 c 128,-1,47
 823 0 823 0 735 0 c 0,0,1
EndSplineSet
Validated: 1
EndChar

StartChar: U
Encoding: 85 85 75
Width: 1717
Flags: W
LayerCount: 2
Fore
SplineSet
1496 1215 m 1,0,1
 1494 1198 1494 1198 1492.5 1175 c 128,-1,2
 1491 1152 1491 1152 1491 1123 c 2,3,-1
 1491 514 l 2,4,5
 1491 371 1491 371 1439.5 269.5 c 128,-1,6
 1388 168 1388 168 1300 103 c 128,-1,7
 1212 38 1212 38 1095.5 8 c 128,-1,8
 979 -22 979 -22 850 -22 c 0,9,10
 537 -22 537 -22 381 125.5 c 128,-1,11
 225 273 225 273 225 578 c 2,12,-1
 225 1123 l 2,13,14
 225 1154 225 1154 223.5 1177 c 128,-1,15
 222 1200 222 1200 220 1215 c 1,16,-1
 33 1215 l 1,17,-1
 33 1387 l 1,18,19
 262 1399 262 1399 446 1399 c 0,20,21
 525 1399 525 1399 583 1398 c 128,-1,22
 641 1397 641 1397 684.5 1395.5 c 128,-1,23
 728 1394 728 1394 760 1392 c 128,-1,24
 792 1390 792 1390 820 1387 c 1,25,-1
 820 1215 l 1,26,-1
 662 1215 l 1,27,28
 658 1190 658 1190 656.5 1167.5 c 128,-1,29
 655 1145 655 1145 655 1123 c 2,30,-1
 655 510 l 2,31,32
 655 432 655 432 669.5 368.5 c 128,-1,33
 684 305 684 305 712 260 c 128,-1,34
 740 215 740 215 782 191 c 128,-1,35
 824 167 824 167 878 167 c 0,36,37
 947 167 947 167 991 199.5 c 128,-1,38
 1035 232 1035 232 1060.5 287.5 c 128,-1,39
 1086 343 1086 343 1095.5 417.5 c 128,-1,40
 1105 492 1105 492 1105 577 c 2,41,-1
 1105 1123 l 2,42,43
 1105 1154 1105 1154 1103.5 1177 c 128,-1,44
 1102 1200 1102 1200 1100 1215 c 1,45,-1
 953 1215 l 1,46,-1
 953 1387 l 1,47,48
 1124 1399 1124 1399 1318 1399 c 0,49,50
 1391 1399 1391 1399 1446.5 1398 c 128,-1,51
 1502 1397 1502 1397 1545 1395.5 c 128,-1,52
 1588 1394 1588 1394 1621.5 1392 c 128,-1,53
 1655 1390 1655 1390 1684 1387 c 1,54,-1
 1684 1215 l 1,55,-1
 1496 1215 l 1,0,1
EndSplineSet
Validated: 1
EndChar

StartChar: V
Encoding: 86 86 76
Width: 1746
Flags: W
LayerCount: 2
Fore
SplineSet
0 1387 m 1,0,1
 46 1390 46 1390 91.5 1392 c 128,-1,2
 137 1394 137 1394 189 1395.5 c 128,-1,3
 241 1397 241 1397 301 1398 c 128,-1,4
 361 1399 361 1399 435 1399 c 0,5,6
 605 1399 605 1399 736 1387 c 1,7,-1
 781 1215 l 1,8,-1
 653 1215 l 1,9,10
 664 1184 664 1184 672 1162.5 c 128,-1,11
 680 1141 680 1141 685 1128 c 2,12,-1
 923 452 l 1,13,-1
 1129 1123 l 2,14,15
 1142 1164 1142 1164 1153 1215 c 1,16,-1
 1025 1215 l 1,17,-1
 1070 1387 l 1,18,19
 1098 1390 1098 1390 1128.5 1392 c 128,-1,20
 1159 1394 1159 1394 1198.5 1395.5 c 128,-1,21
 1238 1397 1238 1397 1288.5 1398 c 128,-1,22
 1339 1399 1339 1399 1406 1399 c 0,23,24
 1560 1399 1560 1399 1746 1387 c 1,25,-1
 1722 1215 l 1,26,-1
 1545 1215 l 1,27,28
 1540 1207 1540 1207 1530.5 1184 c 128,-1,29
 1521 1161 1521 1161 1509 1123 c 0,30,31
 1404 793 1404 793 1293.5 509.5 c 128,-1,32
 1183 226 1183 226 1064 -11 c 1,33,-1
 872 -11 l 2,34,35
 778 -11 778 -11 723 5.5 c 128,-1,36
 668 22 668 22 649 74 c 2,37,-1
 247 1123 l 2,38,39
 234 1156 234 1156 224 1177 c 128,-1,40
 214 1198 214 1198 201 1215 c 1,41,-1
 24 1215 l 1,42,-1
 0 1387 l 1,0,1
EndSplineSet
Validated: 1
EndChar

StartChar: W
Encoding: 87 87 77
Width: 2458
Flags: W
LayerCount: 2
Fore
SplineSet
0 1387 m 1,0,1
 43 1390 43 1390 87 1392 c 128,-1,2
 131 1394 131 1394 180.5 1395.5 c 128,-1,3
 230 1397 230 1397 287 1398 c 128,-1,4
 344 1399 344 1399 415 1399 c 0,5,6
 508 1399 508 1399 587 1396 c 128,-1,7
 666 1393 666 1393 736 1387 c 1,8,-1
 781 1215 l 1,9,-1
 653 1215 l 1,10,-1
 685 1128 l 1,11,-1
 883 452 l 1,12,-1
 1048 1111 l 2,13,14
 1056 1141 1056 1141 1062 1178.5 c 128,-1,15
 1068 1216 1068 1216 1071 1244 c 2,16,-1
 1078 1317 l 2,17,18
 1080 1340 1080 1340 1082 1357.5 c 128,-1,19
 1084 1375 1084 1375 1086 1387 c 1,20,-1
 1291 1387 l 2,21,22
 1327 1387 1327 1387 1353.5 1375.5 c 128,-1,23
 1380 1364 1380 1364 1400 1344 c 128,-1,24
 1420 1324 1420 1324 1434 1296 c 128,-1,25
 1448 1268 1448 1268 1458 1235 c 2,26,-1
 1695 452 l 1,27,28
 1740 625 1740 625 1778 775 c 0,29,30
 1794 839 1794 839 1810.5 905 c 128,-1,31
 1827 971 1827 971 1841.5 1030 c 128,-1,32
 1856 1089 1856 1089 1867.5 1137.5 c 128,-1,33
 1879 1186 1879 1186 1885 1215 c 1,34,-1
 1737 1215 l 1,35,-1
 1782 1387 l 1,36,37
 1810 1390 1810 1390 1842 1392 c 128,-1,38
 1874 1394 1874 1394 1914.5 1395.5 c 128,-1,39
 1955 1397 1955 1397 2007 1398 c 128,-1,40
 2059 1399 2059 1399 2128 1399 c 0,41,42
 2278 1399 2278 1399 2458 1387 c 1,43,-1
 2434 1215 l 1,44,-1
 2255 1215 l 1,45,-1
 2241 1169 l 1,46,47
 2198 1024 2198 1024 2148 864 c 128,-1,48
 2098 704 2098 704 2045 547 c 128,-1,49
 1992 390 1992 390 1938.5 246 c 128,-1,50
 1885 102 1885 102 1836 -11 c 1,51,-1
 1554 -11 l 2,52,53
 1493 -11 1493 -11 1462 7.5 c 128,-1,54
 1431 26 1431 26 1421 74 c 1,55,-1
 1215 696 l 1,56,57
 1161 472 1161 472 1113.5 298 c 128,-1,58
 1066 124 1066 124 1024 -11 c 1,59,-1
 752 -11 l 2,60,61
 688 -11 688 -11 654 7.5 c 128,-1,62
 620 26 620 26 609 74 c 1,63,-1
 247 1123 l 2,64,65
 236 1157 236 1157 226.5 1176 c 128,-1,66
 217 1195 217 1195 213 1201 c 2,67,-1
 201 1215 l 1,68,-1
 24 1215 l 1,69,-1
 0 1387 l 1,0,1
EndSplineSet
Validated: 1
EndChar

StartChar: X
Encoding: 88 88 78
Width: 1736
Flags: W
LayerCount: 2
Fore
SplineSet
1153 1187 m 0,0,1
 1153 1215 1153 1215 1123 1215 c 2,2,-1
 995 1215 l 1,3,-1
 1040 1387 l 1,4,5
 1100 1393 1100 1393 1174.5 1396 c 128,-1,6
 1249 1399 1249 1399 1360 1399 c 0,7,8
 1411 1399 1411 1399 1456 1398 c 128,-1,9
 1501 1397 1501 1397 1543 1395.5 c 128,-1,10
 1585 1394 1585 1394 1625 1392 c 128,-1,11
 1665 1390 1665 1390 1706 1387 c 1,12,-1
 1682 1215 l 1,13,-1
 1549 1215 l 1,14,15
 1526 1208 1526 1208 1498.5 1185 c 128,-1,16
 1471 1162 1471 1162 1434 1110 c 2,17,-1
 1130 687 l 1,18,-1
 1472 307 l 2,19,20
 1493 284 1493 284 1512 259 c 128,-1,21
 1531 234 1531 234 1550 213.5 c 128,-1,22
 1569 193 1569 193 1590 180 c 128,-1,23
 1611 167 1611 167 1635 167 c 2,24,-1
 1692 167 l 1,25,-1
 1716 -11 l 1,26,27
 1604 -6 1604 -6 1507.5 -3 c 128,-1,28
 1411 0 1411 0 1327 0 c 0,29,30
 1263 0 1263 0 1167.5 -3 c 128,-1,31
 1072 -6 1072 -6 940 -11 c 1,32,-1
 905 167 l 1,33,-1
 1013 167 l 2,34,35
 1034 167 1034 167 1034 184 c 0,36,37
 1034 206 1034 206 1001 248 c 2,38,-1
 783 525 l 1,39,-1
 607 253 l 2,40,41
 582 215 582 215 582 192 c 0,42,43
 582 167 582 167 613 167 c 2,44,-1
 741 167 l 1,45,-1
 696 -11 l 1,46,47
 599 -6 599 -6 515.5 -3 c 128,-1,48
 432 0 432 0 359 0 c 0,49,50
 295 0 295 0 210.5 -3 c 128,-1,51
 126 -6 126 -6 20 -11 c 1,52,-1
 44 167 l 1,53,-1
 157 167 l 1,54,55
 183 169 183 169 209.5 195 c 128,-1,56
 236 221 236 221 272 266 c 2,57,-1
 605 680 l 1,58,-1
 242 1139 l 2,59,60
 208 1182 208 1182 180 1198.5 c 128,-1,61
 152 1215 152 1215 121 1215 c 2,62,-1
 44 1215 l 1,63,-1
 20 1387 l 1,64,65
 63 1390 63 1390 109.5 1392 c 128,-1,66
 156 1394 156 1394 208.5 1395.5 c 128,-1,67
 261 1397 261 1397 320.5 1398 c 128,-1,68
 380 1399 380 1399 451 1399 c 0,69,70
 516 1399 516 1399 567.5 1398 c 128,-1,71
 619 1397 619 1397 661.5 1395.5 c 128,-1,72
 704 1394 704 1394 739 1392 c 128,-1,73
 774 1390 774 1390 806 1387 c 1,74,-1
 831 1215 l 1,75,-1
 753 1215 l 2,76,77
 732 1215 732 1215 732 1198 c 0,78,79
 732 1174 732 1174 765 1128 c 2,80,-1
 963 842 l 1,81,-1
 1129 1123 l 2,82,83
 1142 1145 1142 1145 1147.5 1160.5 c 128,-1,84
 1153 1176 1153 1176 1153 1187 c 0,0,1
EndSplineSet
Validated: 1
EndChar

StartChar: Y
Encoding: 89 89 79
Width: 1576
Flags: W
LayerCount: 2
Fore
SplineSet
589 147 m 1,0,1
 591 161 591 161 592.5 178 c 128,-1,2
 594 195 594 195 594 217 c 2,3,-1
 594 492 l 1,4,-1
 217 1123 l 2,5,6
 203 1146 203 1146 194.5 1163.5 c 128,-1,7
 186 1181 186 1181 179.5 1192.5 c 128,-1,8
 173 1204 173 1204 167 1209.5 c 128,-1,9
 161 1215 161 1215 151 1215 c 2,10,-1
 24 1215 l 1,11,-1
 0 1387 l 1,12,13
 196 1399 196 1399 366 1399 c 2,14,-1
 470 1399 l 2,15,16
 633 1399 633 1399 756 1387 c 1,17,-1
 771 1215 l 1,18,-1
 643 1215 l 1,19,20
 657 1175 657 1175 665 1153.5 c 128,-1,21
 673 1132 673 1132 675 1128 c 2,22,-1
 883 752 l 1,23,-1
 1059 1123 l 2,24,25
 1067 1140 1067 1140 1071.5 1161.5 c 128,-1,26
 1076 1183 1076 1183 1081 1215 c 1,27,-1
 925 1215 l 1,28,-1
 960 1387 l 1,29,30
 1084 1399 1084 1399 1247 1399 c 2,31,-1
 1321 1399 l 2,32,33
 1439 1399 1439 1399 1576 1387 c 1,34,-1
 1552 1215 l 1,35,-1
 1405 1215 l 1,36,37
 1398 1206 1398 1206 1387.5 1183.5 c 128,-1,38
 1377 1161 1377 1161 1359 1123 c 0,39,40
 1357 1120 1357 1120 1351 1109 c 128,-1,41
 1345 1098 1345 1098 1331.5 1073 c 128,-1,42
 1318 1048 1318 1048 1294.5 1005.5 c 128,-1,43
 1271 963 1271 963 1235 896 c 128,-1,44
 1199 829 1199 829 1147.5 735 c 128,-1,45
 1096 641 1096 641 1027 513 c 1,46,-1
 1027 239 l 2,47,48
 1027 212 1027 212 1028.5 189 c 128,-1,49
 1030 166 1030 166 1032 147 c 1,50,-1
 1220 147 l 1,51,-1
 1220 -11 l 1,52,53
 1108 -6 1108 -6 1009.5 -3 c 128,-1,54
 911 0 911 0 823 0 c 0,55,56
 732 0 732 0 628 -3 c 128,-1,57
 524 -6 524 -6 403 -11 c 1,58,-1
 403 147 l 1,59,-1
 589 147 l 1,0,1
EndSplineSet
Validated: 1
EndChar

StartChar: Z
Encoding: 90 90 80
Width: 1417
Flags: W
LayerCount: 2
Fore
SplineSet
86 1373 m 1,0,1
 298 1380 298 1380 444 1383.5 c 128,-1,2
 590 1387 590 1387 678 1387 c 2,3,-1
 1214 1387 l 2,4,5
 1266 1387 1266 1387 1294 1364.5 c 128,-1,6
 1322 1342 1322 1342 1322 1313 c 2,7,-1
 1322 1186 l 1,8,-1
 575 180 l 1,9,-1
 823 180 l 2,10,11
 916 180 916 180 1014 195 c 1,12,13
 1053 363 1053 363 1053 493 c 1,14,15
 1087 492 1087 492 1132.5 490 c 128,-1,16
 1178 488 1178 488 1219 485 c 0,17,18
 1267 481 1267 481 1316 478 c 1,19,20
 1318 401 1318 401 1321 332 c 0,21,22
 1322 303 1322 303 1323 273 c 128,-1,23
 1324 243 1324 243 1325 216 c 128,-1,24
 1326 189 1326 189 1326.5 166.5 c 128,-1,25
 1327 144 1327 144 1327 130 c 0,26,27
 1327 128 1327 128 1324.5 94.5 c 128,-1,28
 1322 61 1322 61 1317 1 c 1,29,30
 1085 0 1085 0 914 0 c 128,-1,31
 743 0 743 0 621 0 c 256,32,33
 499 0 499 0 419.5 0 c 128,-1,34
 340 0 340 0 292 0.5 c 128,-1,35
 244 1 244 1 220.5 1 c 128,-1,36
 197 1 197 1 187 1 c 0,37,38
 161 1 161 1 146 11 c 128,-1,39
 131 21 131 21 123 36 c 128,-1,40
 115 51 115 51 113 69 c 128,-1,41
 111 87 111 87 111 103 c 2,42,-1
 111 219 l 1,43,-1
 843 1197 l 1,44,-1
 654 1197 l 2,45,46
 620 1197 620 1197 565.5 1191 c 128,-1,47
 511 1185 511 1185 436 1172 c 1,48,49
 434 1164 434 1164 432.5 1141.5 c 128,-1,50
 431 1119 431 1119 429 1082 c 1,51,-1
 429 968 l 1,52,-1
 126 968 l 1,53,-1
 86 1373 l 1,0,1
EndSplineSet
Validated: 1
EndChar

StartChar: bracketleft
Encoding: 91 91 81
Width: 842
Flags: W
LayerCount: 2
Fore
SplineSet
563 1475 m 2,0,1
 669 1475 669 1475 701 1466 c 0,2,3
 766 1446 766 1446 766 1384 c 2,4,-1
 766 1325 l 1,5,-1
 577 1325 l 1,6,-1
 577 -57 l 1,7,-1
 766 -57 l 1,8,-1
 766 -126 l 2,9,10
 766 -156 766 -156 750 -172.5 c 128,-1,11
 734 -189 734 -189 712.5 -197 c 128,-1,12
 691 -205 691 -205 670 -206.5 c 128,-1,13
 649 -208 649 -208 639 -208 c 2,14,-1
 205 -208 l 1,15,-1
 205 1475 l 1,16,-1
 563 1475 l 2,0,1
EndSplineSet
Validated: 1
EndChar

StartChar: backslash
Encoding: 92 92 82
Width: 1036
Flags: W
LayerCount: 2
Fore
SplineSet
1036 -22 m 1,0,-1
 775 -22 l 2,1,2
 654 -22 654 -22 630 48 c 1,3,-1
 0 1412 l 1,4,-1
 263 1412 l 2,5,6
 328 1412 328 1412 362 1393 c 128,-1,7
 396 1374 396 1374 413 1326 c 1,8,-1
 1036 -22 l 1,0,-1
EndSplineSet
Validated: 1
EndChar

StartChar: bracketright
Encoding: 93 93 83
Width: 842
Flags: W
LayerCount: 2
Fore
SplineSet
265 -57 m 1,0,-1
 265 1325 l 1,1,-1
 76 1325 l 1,2,-1
 76 1476 l 1,3,-1
 637 1476 l 1,4,-1
 637 -208 l 1,5,-1
 76 -208 l 1,6,-1
 76 -57 l 1,7,-1
 265 -57 l 1,0,-1
EndSplineSet
Validated: 1
EndChar

StartChar: asciicircum
Encoding: 94 94 84
Width: 1278
Flags: W
LayerCount: 2
Fore
SplineSet
781 1389 m 1,0,-1
 1149 736 l 2,1,2
 1182 677 1182 677 1182 651 c 0,3,4
 1182 628 1182 628 1159 613 c 128,-1,5
 1136 598 1136 598 1109 594 c 1,6,-1
 890 544 l 1,7,-1
 638 1029 l 1,8,-1
 386 544 l 1,9,-1
 183 591 l 2,10,11
 165 595 165 595 149 599.5 c 128,-1,12
 133 604 133 604 121 610.5 c 128,-1,13
 109 617 109 617 101.5 626.5 c 128,-1,14
 94 636 94 636 94 651 c 0,15,16
 94 677 94 677 127 736 c 2,17,-1
 495 1389 l 1,18,-1
 781 1389 l 1,0,-1
EndSplineSet
Validated: 1
EndChar

StartChar: underscore
Encoding: 95 95 85
Width: 1099
Flags: W
LayerCount: 2
Fore
SplineSet
1109 -216 m 2,0,1
 1109 -237 1109 -237 1098.5 -251.5 c 128,-1,2
 1088 -266 1088 -266 1069.5 -276.5 c 128,-1,3
 1051 -287 1051 -287 1026.5 -294 c 128,-1,4
 1002 -301 1002 -301 974 -307 c 1,5,-1
 -10 -307 l 1,6,-1
 -10 -224 l 2,7,8
 -10 -193 -10 -193 4.5 -175.5 c 128,-1,9
 19 -158 19 -158 40.5 -149 c 128,-1,10
 62 -140 62 -140 88.5 -137.5 c 128,-1,11
 115 -135 115 -135 139 -135 c 2,12,-1
 1109 -135 l 1,13,-1
 1109 -216 l 2,0,1
EndSplineSet
Validated: 1
EndChar

StartChar: grave
Encoding: 96 96 86
Width: 1182
Flags: W
LayerCount: 2
Fore
SplineSet
618 1112 m 1,0,-1
 332 1482 l 1,1,-1
 703 1482 l 1,2,-1
 853 1112 l 1,3,-1
 618 1112 l 1,0,-1
EndSplineSet
Validated: 1
EndChar

StartChar: a
Encoding: 97 97 87
Width: 1338
Flags: W
LayerCount: 2
Fore
SplineSet
668 464 m 2,0,1
 590 464 590 464 546.5 414 c 128,-1,2
 503 364 503 364 503 282 c 0,3,4
 503 203 503 203 527.5 170.5 c 128,-1,5
 552 138 552 138 587 138 c 0,6,7
 636 138 636 138 698 191 c 1,8,-1
 698 464 l 1,9,-1
 668 464 l 2,0,1
1272 33 m 1,10,11
 1081 -10 1081 -10 855 -10 c 1,12,13
 817 16 817 16 787 44.5 c 128,-1,14
 757 73 757 73 735 102 c 1,15,16
 617 -22 617 -22 450 -22 c 0,17,18
 370 -22 370 -22 304 -3 c 128,-1,19
 238 16 238 16 191 53.5 c 128,-1,20
 144 91 144 91 118 146.5 c 128,-1,21
 92 202 92 202 92 274 c 0,22,23
 92 428 92 428 237 505.5 c 128,-1,24
 382 583 382 583 678 583 c 2,25,-1
 698 583 l 1,26,-1
 698 617 l 2,27,28
 698 742 698 742 686.5 798.5 c 128,-1,29
 675 855 675 855 646 855 c 0,30,31
 588 855 588 855 514 795.5 c 128,-1,32
 440 736 440 736 359 631 c 1,33,-1
 118 785 l 1,34,35
 118 835 118 835 162.5 875.5 c 128,-1,36
 207 916 207 916 277.5 945 c 128,-1,37
 348 974 348 974 435 989.5 c 128,-1,38
 522 1005 522 1005 607 1005 c 0,39,40
 729 1005 729 1005 824 985 c 128,-1,41
 919 965 919 965 984 917.5 c 128,-1,42
 1049 870 1049 870 1083 792.5 c 128,-1,43
 1117 715 1117 715 1117 601 c 0,44,45
 1117 573 1117 573 1116.5 536 c 128,-1,46
 1116 499 1116 499 1116 451 c 2,47,-1
 1116 274 l 2,48,49
 1116 225 1116 225 1117.5 193.5 c 128,-1,50
 1119 162 1119 162 1121 148 c 1,51,52
 1137 147 1137 147 1153.5 146.5 c 128,-1,53
 1170 146 1170 146 1188 146 c 2,54,-1
 1272 146 l 1,55,-1
 1272 33 l 1,10,11
EndSplineSet
Validated: 1
EndChar

StartChar: b
Encoding: 98 98 88
Width: 1433
Flags: W
LayerCount: 2
Fore
SplineSet
793 836 m 0,0,1
 730 836 730 836 627 789 c 1,2,-1
 627 140 l 1,3,4
 641 138 641 138 654 138 c 128,-1,5
 667 138 667 138 681 138 c 2,6,-1
 752 138 l 2,7,8
 824 138 824 138 865 229.5 c 128,-1,9
 906 321 906 321 906 504 c 0,10,11
 906 836 906 836 793 836 c 0,0,1
627 937 m 1,12,13
 768 1005 768 1005 897 1005 c 0,14,15
 1009 1005 1009 1005 1091.5 962.5 c 128,-1,16
 1174 920 1174 920 1228.5 850.5 c 128,-1,17
 1283 781 1283 781 1310 692 c 128,-1,18
 1337 603 1337 603 1337 509 c 0,19,20
 1337 377 1337 377 1289.5 279 c 128,-1,21
 1242 181 1242 181 1162.5 116.5 c 128,-1,22
 1083 52 1083 52 980 20.5 c 128,-1,23
 877 -11 877 -11 765 -11 c 0,24,25
 552 -11 552 -11 173 19 c 1,26,-1
 173 79 l 1,27,28
 208 152 208 152 208 330 c 2,29,-1
 208 1251 l 1,30,-1
 35 1251 l 1,31,-1
 35 1364 l 1,32,33
 231 1412 231 1412 435 1412 c 2,34,-1
 495 1412 l 2,35,36
 537 1412 537 1412 562.5 1407.5 c 128,-1,37
 588 1403 588 1403 602.5 1391 c 128,-1,38
 617 1379 617 1379 622 1356.5 c 128,-1,39
 627 1334 627 1334 627 1298 c 2,40,-1
 627 937 l 1,12,13
EndSplineSet
Validated: 1
EndChar

StartChar: c
Encoding: 99 99 89
Width: 1201
Flags: W
LayerCount: 2
Fore
SplineSet
717 147 m 0,0,1
 774 147 774 147 823 154.5 c 128,-1,2
 872 162 872 162 918 176.5 c 128,-1,3
 964 191 964 191 1008.5 213 c 128,-1,4
 1053 235 1053 235 1101 265 c 1,5,-1
 1118 105 l 1,6,7
 946 -22 946 -22 694 -22 c 0,8,9
 560 -22 560 -22 449.5 12 c 128,-1,10
 339 46 339 46 260.5 111 c 128,-1,11
 182 176 182 176 139 270.5 c 128,-1,12
 96 365 96 365 96 486 c 0,13,14
 96 622 96 622 147.5 720.5 c 128,-1,15
 199 819 199 819 284 882 c 128,-1,16
 369 945 369 945 479.5 975 c 128,-1,17
 590 1005 590 1005 708 1005 c 0,18,19
 972 1005 972 1005 1126 872 c 1,20,-1
 1109 674 l 1,21,-1
 838 674 l 1,22,23
 794 762 794 762 759 799 c 128,-1,24
 724 836 724 836 690 836 c 0,25,26
 654 836 654 836 623.5 815.5 c 128,-1,27
 593 795 593 795 570.5 755 c 128,-1,28
 548 715 548 715 535 655 c 128,-1,29
 522 595 522 595 522 516 c 0,30,31
 522 338 522 338 571 242.5 c 128,-1,32
 620 147 620 147 717 147 c 0,0,1
EndSplineSet
Validated: 1
EndChar

StartChar: d
Encoding: 100 100 90
Width: 1428
Flags: W
LayerCount: 2
Fore
SplineSet
635 1364 m 1,0,1
 831 1412 831 1412 1035 1412 c 2,2,-1
 1095 1412 l 2,3,4
 1137 1412 1137 1412 1162.5 1407.5 c 128,-1,5
 1188 1403 1188 1403 1202.5 1391 c 128,-1,6
 1217 1379 1217 1379 1222 1356.5 c 128,-1,7
 1227 1334 1227 1334 1227 1298 c 2,8,-1
 1227 244 l 2,9,10
 1227 175 1227 175 1233 147 c 1,11,-1
 1399 147 l 1,12,-1
 1399 35 l 1,13,14
 1214 -11 1214 -11 1052 -11 c 0,15,16
 1004 -11 1004 -11 970 -6 c 128,-1,17
 936 -1 936 -1 911 12.5 c 128,-1,18
 886 26 886 26 869.5 48 c 128,-1,19
 853 70 853 70 841 105 c 1,20,21
 735 -22 735 -22 552 -22 c 0,22,23
 449 -22 449 -22 364.5 17.5 c 128,-1,24
 280 57 280 57 220 124.5 c 128,-1,25
 160 192 160 192 127 282 c 128,-1,26
 94 372 94 372 94 474 c 0,27,28
 94 595 94 595 126 693 c 128,-1,29
 158 791 158 791 218.5 860.5 c 128,-1,30
 279 930 279 930 365.5 967.5 c 128,-1,31
 452 1005 452 1005 562 1005 c 0,32,33
 679 1005 679 1005 808 959 c 1,34,-1
 808 1251 l 1,35,-1
 635 1251 l 1,36,-1
 635 1364 l 1,0,1
670 147 m 0,37,38
 754 147 754 147 812 226 c 1,39,-1
 812 802 l 1,40,41
 725 836 725 836 674 836 c 0,42,43
 624 836 624 836 595 800 c 128,-1,44
 566 764 566 764 551 710.5 c 128,-1,45
 536 657 536 657 532 596 c 128,-1,46
 528 535 528 535 528 484 c 0,47,48
 528 147 528 147 670 147 c 0,37,38
EndSplineSet
Validated: 1
EndChar

StartChar: e
Encoding: 101 101 91
Width: 1255
Flags: W
LayerCount: 2
Fore
SplineSet
778 590 m 1,0,-1
 778 608 l 2,1,2
 778 659 778 659 770 702.5 c 128,-1,3
 762 746 762 746 747 777.5 c 128,-1,4
 732 809 732 809 709.5 827 c 128,-1,5
 687 845 687 845 659 845 c 0,6,7
 548 845 548 845 524 590 c 1,8,-1
 778 590 l 1,0,-1
821 169 m 0,9,10
 946 169 946 169 1101 245 c 1,11,-1
 1119 95 l 1,12,13
 955 -22 955 -22 695 -22 c 0,14,15
 557 -22 557 -22 446.5 12.5 c 128,-1,16
 336 47 336 47 258 113.5 c 128,-1,17
 180 180 180 180 138 277 c 128,-1,18
 96 374 96 374 96 499 c 0,19,20
 96 610 96 610 139 703 c 128,-1,21
 182 796 182 796 261 863 c 128,-1,22
 340 930 340 930 451 967.5 c 128,-1,23
 562 1005 562 1005 699 1005 c 0,24,25
 802 1005 802 1005 888 978 c 128,-1,26
 974 951 974 951 1036.5 901 c 128,-1,27
 1099 851 1099 851 1134 778.5 c 128,-1,28
 1169 706 1169 706 1169 615 c 0,29,30
 1169 561 1169 561 1156.5 527 c 128,-1,31
 1144 493 1144 493 1116 474 c 128,-1,32
 1088 455 1088 455 1044.5 448.5 c 128,-1,33
 1001 442 1001 442 938 442 c 2,34,-1
 525 442 l 1,35,36
 548 316 548 316 621 242.5 c 128,-1,37
 694 169 694 169 821 169 c 0,9,10
EndSplineSet
Validated: 1
EndChar

StartChar: f
Encoding: 102 102 92
Width: 902
Flags: W
LayerCount: 2
Fore
SplineSet
446 0 m 1,0,1
 371 0 371 0 287.5 -3 c 128,-1,2
 204 -6 204 -6 107 -11 c 1,3,-1
 113 121 l 1,4,-1
 137 124 l 2,5,6
 172 128 172 128 193 133.5 c 128,-1,7
 214 139 214 139 225.5 149.5 c 128,-1,8
 237 160 237 160 240.5 177.5 c 128,-1,9
 244 195 244 195 244 224 c 2,10,-1
 244 824 l 1,11,-1
 39 824 l 1,12,-1
 39 898 l 2,13,14
 39 927 39 927 53.5 944 c 128,-1,15
 68 961 68 961 89.5 969.5 c 128,-1,16
 111 978 111 978 137 980.5 c 128,-1,17
 163 983 163 983 186 983 c 2,18,-1
 244 983 l 1,19,-1
 244 1047 l 2,20,21
 244 1412 244 1412 746 1412 c 0,22,23
 831 1412 831 1412 908 1395.5 c 128,-1,24
 985 1379 985 1379 1057 1349 c 1,25,-1
 1057 1125 l 1,26,-1
 823 1125 l 1,27,28
 818 1143 818 1143 813 1158 c 128,-1,29
 808 1173 808 1173 804 1185 c 2,30,-1
 791 1224 l 2,31,32
 782 1251 782 1251 782 1254 c 1,33,34
 757 1254 757 1254 736.5 1251.5 c 128,-1,35
 716 1249 716 1249 701 1237.5 c 128,-1,36
 686 1226 686 1226 677 1203 c 128,-1,37
 668 1180 668 1180 666 1140 c 1,38,-1
 666 983 l 1,39,-1
 921 983 l 1,40,-1
 921 910 l 2,41,42
 921 864 921 864 883 844 c 128,-1,43
 845 824 845 824 785 824 c 2,44,-1
 663 824 l 1,45,-1
 663 259 l 2,46,47
 663 217 663 217 667 193 c 128,-1,48
 671 169 671 169 686 155 c 128,-1,49
 701 141 701 141 730 134 c 128,-1,50
 759 127 759 127 809 120 c 1,51,-1
 820 -11 l 1,52,-1
 657 -5 l 2,53,54
 585 -3 585 -3 533 -2 c 128,-1,55
 481 -1 481 -1 446 0 c 1,0,1
EndSplineSet
Validated: 1
EndChar

StartChar: g
Encoding: 103 103 93
Width: 1171
Flags: W
LayerCount: 2
Fore
SplineSet
574 994 m 0,0,1
 705 994 705 994 803 957 c 1,2,-1
 1161 977 l 1,3,-1
 1161 814 l 1,4,-1
 960 814 l 1,5,6
 981 787 981 787 997.5 763 c 128,-1,7
 1014 739 1014 739 1024.5 716 c 128,-1,8
 1035 693 1035 693 1040.5 668.5 c 128,-1,9
 1046 644 1046 644 1046 615 c 0,10,11
 1046 541 1046 541 1016.5 481 c 128,-1,12
 987 421 987 421 927 379 c 128,-1,13
 867 337 867 337 777 314.5 c 128,-1,14
 687 292 687 292 567 292 c 0,15,16
 522 292 522 292 477 296 c 128,-1,17
 432 300 432 300 387 308 c 1,18,19
 372 282 372 282 372 228 c 0,20,21
 372 194 372 194 392.5 180.5 c 128,-1,22
 413 167 413 167 455 167 c 2,23,-1
 838 167 l 2,24,25
 904 167 904 167 959 151.5 c 128,-1,26
 1014 136 1014 136 1054 104.5 c 128,-1,27
 1094 73 1094 73 1116 26 c 128,-1,28
 1138 -21 1138 -21 1138 -84 c 0,29,30
 1138 -163 1138 -163 1114 -221.5 c 128,-1,31
 1090 -280 1090 -280 1048 -321 c 128,-1,32
 1006 -362 1006 -362 948 -388 c 128,-1,33
 890 -414 890 -414 822.5 -428.5 c 128,-1,34
 755 -443 755 -443 680.5 -448.5 c 128,-1,35
 606 -454 606 -454 530 -454 c 0,36,37
 296 -454 296 -454 185 -396.5 c 128,-1,38
 74 -339 74 -339 74 -217 c 0,39,40
 74 -150 74 -150 126.5 -100 c 128,-1,41
 179 -50 179 -50 299 -12 c 1,42,43
 242 8 242 8 205.5 50 c 128,-1,44
 169 92 169 92 169 155 c 0,45,46
 169 275 169 275 275 332 c 1,47,48
 187 366 187 366 138 442 c 128,-1,49
 89 518 89 518 89 630 c 0,50,51
 89 724 89 724 124.5 792.5 c 128,-1,52
 160 861 160 861 223.5 906 c 128,-1,53
 287 951 287 951 376.5 972.5 c 128,-1,54
 466 994 466 994 574 994 c 0,0,1
392 -164 m 0,55,56
 392 -291 392 -291 567 -291 c 0,57,58
 698 -291 698 -291 760.5 -258 c 128,-1,59
 823 -225 823 -225 823 -164 c 0,60,61
 823 -104 823 -104 795 -71 c 128,-1,62
 767 -38 767 -38 710 -38 c 2,63,-1
 467 -38 l 1,64,65
 392 -113 392 -113 392 -164 c 0,55,56
678 626 m 0,66,67
 678 735 678 735 650.5 795.5 c 128,-1,68
 623 856 623 856 569 856 c 0,69,70
 467 856 467 856 467 626 c 0,71,72
 467 523 467 523 492.5 469.5 c 128,-1,73
 518 416 518 416 569 416 c 0,74,75
 678 416 678 416 678 626 c 0,66,67
EndSplineSet
Validated: 1
EndChar

StartChar: h
Encoding: 104 104 94
Width: 1477
Flags: W
LayerCount: 2
Fore
SplineSet
850 623 m 2,0,1
 850 651 850 651 848.5 683.5 c 128,-1,2
 847 716 847 716 839.5 744 c 128,-1,3
 832 772 832 772 816 790 c 128,-1,4
 800 808 800 808 772 808 c 0,5,6
 743 808 743 808 707.5 792.5 c 128,-1,7
 672 777 672 777 627 739 c 1,8,-1
 627 233 l 2,9,10
 627 205 627 205 631.5 187.5 c 128,-1,11
 636 170 636 170 646.5 158.5 c 128,-1,12
 657 147 657 147 675 140 c 128,-1,13
 693 133 693 133 720 127 c 1,14,-1
 731 -11 l 1,15,16
 593 -6 593 -6 511.5 -3 c 128,-1,17
 430 0 430 0 401 0 c 0,18,19
 322 0 322 0 245 -3 c 128,-1,20
 168 -6 168 -6 90 -11 c 1,21,-1
 95 126 l 1,22,23
 128 131 128 131 149.5 137 c 128,-1,24
 171 143 171 143 184 157 c 128,-1,25
 197 171 197 171 202 196 c 128,-1,26
 207 221 207 221 207 265 c 2,27,-1
 207 1187 l 2,28,29
 207 1227 207 1227 204 1251 c 1,30,-1
 35 1251 l 1,31,-1
 35 1364 l 1,32,33
 231 1412 231 1412 435 1412 c 2,34,-1
 495 1412 l 2,35,36
 537 1412 537 1412 562.5 1407.5 c 128,-1,37
 588 1403 588 1403 602.5 1391 c 128,-1,38
 617 1379 617 1379 622 1356.5 c 128,-1,39
 627 1334 627 1334 627 1298 c 2,40,-1
 627 882 l 1,41,42
 705 936 705 936 797 970.5 c 128,-1,43
 889 1005 889 1005 983 1005 c 0,44,45
 1057 1005 1057 1005 1111 980 c 128,-1,46
 1165 955 1165 955 1200 908.5 c 128,-1,47
 1235 862 1235 862 1252 795 c 128,-1,48
 1269 728 1269 728 1269 644 c 2,49,-1
 1269 248 l 2,50,51
 1269 183 1269 183 1278 147 c 1,52,-1
 1411 147 l 1,53,-1
 1424 23 l 1,54,55
 1233 -22 1233 -22 1070 -22 c 0,56,57
 844 -22 844 -22 844 85 c 0,58,59
 844 99 844 99 845 124.5 c 128,-1,60
 846 150 846 150 847 178 c 128,-1,61
 848 206 848 206 849 232 c 128,-1,62
 850 258 850 258 850 274 c 2,63,-1
 850 623 l 2,0,1
EndSplineSet
Validated: 1
EndChar

StartChar: i
Encoding: 105 105 95
Width: 816
Flags: W
LayerCount: 2
Fore
SplineSet
178 1256 m 0,0,1
 178 1297 178 1297 197.5 1326.5 c 128,-1,2
 217 1356 217 1356 250 1375 c 128,-1,3
 283 1394 283 1394 325.5 1403 c 128,-1,4
 368 1412 368 1412 415 1412 c 0,5,6
 464 1412 464 1412 507.5 1402 c 128,-1,7
 551 1392 551 1392 583.5 1372 c 128,-1,8
 616 1352 616 1352 634.5 1323 c 128,-1,9
 653 1294 653 1294 653 1256 c 0,10,11
 653 1214 653 1214 632 1185 c 128,-1,12
 611 1156 611 1156 577 1138 c 128,-1,13
 543 1120 543 1120 500.5 1111.5 c 128,-1,14
 458 1103 458 1103 415 1103 c 0,15,16
 367 1103 367 1103 323.5 1113 c 128,-1,17
 280 1123 280 1123 248 1142.5 c 128,-1,18
 216 1162 216 1162 197 1190.5 c 128,-1,19
 178 1219 178 1219 178 1256 c 0,0,1
35 950 m 1,20,21
 237 994 237 994 402 994 c 0,22,23
 508 994 508 994 567 970.5 c 128,-1,24
 626 947 626 947 626 899 c 2,25,-1
 626 239 l 2,26,27
 626 184 626 184 635 147 c 1,28,-1
 768 147 l 1,29,-1
 781 33 l 1,30,31
 588 -11 588 -11 427 -11 c 0,32,33
 321 -11 321 -11 261 15 c 128,-1,34
 201 41 201 41 201 95 c 0,35,36
 201 109 201 109 202 134.5 c 128,-1,37
 203 160 203 160 204 188 c 128,-1,38
 205 216 205 216 206 242 c 128,-1,39
 207 268 207 268 207 284 c 2,40,-1
 207 824 l 1,41,-1
 35 824 l 1,42,-1
 35 950 l 1,20,21
EndSplineSet
Validated: 1
EndChar

StartChar: j
Encoding: 106 106 96
Width: 932
Flags: W
LayerCount: 2
Fore
SplineSet
134 950 m 1,0,1
 233 972 233 972 322 983 c 128,-1,2
 411 994 411 994 492 994 c 0,3,4
 545 994 545 994 588.5 988 c 128,-1,5
 632 982 632 982 662.5 970 c 128,-1,6
 693 958 693 958 709.5 940.5 c 128,-1,7
 726 923 726 923 726 899 c 2,8,-1
 726 -12 l 2,9,10
 726 -233 726 -233 615 -343.5 c 128,-1,11
 504 -454 504 -454 283 -454 c 0,12,13
 83 -454 83 -454 0 -377 c 1,14,-1
 17 -76 l 1,15,-1
 222 -105 l 1,16,-1
 241 -278 l 1,17,18
 259 -287 259 -287 272 -287 c 0,19,20
 367 -287 367 -287 367 -160 c 0,21,22
 367 -153 367 -153 357.5 -120.5 c 128,-1,23
 348 -88 348 -88 337 -43 c 128,-1,24
 326 2 326 2 316.5 52.5 c 128,-1,25
 307 103 307 103 307 147 c 2,26,-1
 307 824 l 1,27,-1
 134 824 l 1,28,-1
 134 950 l 1,0,1
278 1287 m 0,29,30
 278 1328 278 1328 297.5 1357.5 c 128,-1,31
 317 1387 317 1387 350 1406 c 128,-1,32
 383 1425 383 1425 426 1434 c 128,-1,33
 469 1443 469 1443 516 1443 c 0,34,35
 566 1443 566 1443 609.5 1432.5 c 128,-1,36
 653 1422 653 1422 685 1402.5 c 128,-1,37
 717 1383 717 1383 735 1353.5 c 128,-1,38
 753 1324 753 1324 753 1287 c 0,39,40
 753 1245 753 1245 732 1216 c 128,-1,41
 711 1187 711 1187 677 1169 c 128,-1,42
 643 1151 643 1151 600.5 1142.5 c 128,-1,43
 558 1134 558 1134 516 1134 c 0,44,45
 466 1134 466 1134 423 1144 c 128,-1,46
 380 1154 380 1154 347.5 1173.5 c 128,-1,47
 315 1193 315 1193 296.5 1221.5 c 128,-1,48
 278 1250 278 1250 278 1287 c 0,29,30
EndSplineSet
Validated: 1
EndChar

StartChar: k
Encoding: 107 107 97
Width: 1451
Flags: W
LayerCount: 2
Fore
SplineSet
35 1364 m 1,0,1
 231 1412 231 1412 435 1412 c 2,2,-1
 467 1412 l 2,3,4
 477 1412 477 1412 487 1412.5 c 128,-1,5
 497 1413 497 1413 507 1413 c 0,6,7
 552 1413 552 1413 585 1402 c 128,-1,8
 618 1391 618 1391 623 1358 c 0,9,10
 626 1335 626 1335 626 1298 c 2,11,-1
 626 629 l 1,12,-1
 843 777 l 1,13,14
 861 792 861 792 861 804 c 0,15,16
 861 835 861 835 771 835 c 1,17,-1
 771 983 l 1,18,-1
 1404 983 l 1,19,-1
 1404 824 l 1,20,21
 1354 824 1354 824 1315.5 817 c 128,-1,22
 1277 810 1277 810 1243.5 796 c 128,-1,23
 1210 782 1210 782 1177.5 760.5 c 128,-1,24
 1145 739 1145 739 1106 711 c 2,25,-1
 959 603 l 1,26,-1
 1229 189 l 1,27,-1
 1255 163 l 1,28,-1
 1278 144 l 1,29,30
 1291 135 1291 135 1302.5 130 c 128,-1,31
 1314 125 1314 125 1327.5 123 c 128,-1,32
 1341 121 1341 121 1357 120.5 c 128,-1,33
 1373 120 1373 120 1394 120 c 2,34,-1
 1426 120 l 1,35,-1
 1451 -11 l 1,36,37
 1387 -6 1387 -6 1304 -3 c 128,-1,38
 1221 0 1221 0 1116 0 c 2,39,-1
 1056 0 l 2,40,41
 984 0 984 0 920 -3 c 128,-1,42
 856 -6 856 -6 799 -11 c 1,43,-1
 794 120 l 1,44,-1
 851 120 l 1,45,-1
 658 453 l 1,46,-1
 626 433 l 1,47,-1
 626 212 l 1,48,49
 629 185 629 185 634.5 169.5 c 128,-1,50
 640 154 640 154 651.5 144 c 128,-1,51
 663 134 663 134 683 128.5 c 128,-1,52
 703 123 703 123 735 117 c 1,53,-1
 741 -11 l 1,54,55
 596 -6 596 -6 512 -3 c 128,-1,56
 428 0 428 0 400 0 c 0,57,58
 321 0 321 0 244 -3 c 128,-1,59
 167 -6 167 -6 89 -11 c 1,60,-1
 95 119 l 1,61,62
 122 124 122 124 143 127 c 128,-1,63
 164 130 164 130 178.5 139 c 128,-1,64
 193 148 193 148 200 167.5 c 128,-1,65
 207 187 207 187 207 225 c 2,66,-1
 207 1187 l 2,67,68
 207 1227 207 1227 204 1251 c 1,69,-1
 35 1251 l 1,70,-1
 35 1364 l 1,0,1
EndSplineSet
Validated: 1
EndChar

StartChar: l
Encoding: 108 108 98
Width: 826
Flags: W
LayerCount: 2
Fore
SplineSet
35 1366 m 1,0,1
 229 1412 229 1412 416 1412 c 0,2,3
 461 1412 461 1412 492.5 1409.5 c 128,-1,4
 524 1407 524 1407 547.5 1400.5 c 128,-1,5
 571 1394 571 1394 589.5 1381 c 128,-1,6
 608 1368 608 1368 626 1347 c 1,7,-1
 626 227 l 2,8,9
 626 166 626 166 632 145 c 1,10,-1
 791 145 l 1,11,-1
 791 34 l 1,12,13
 609 -9 609 -9 428 -9 c 0,14,15
 343 -9 343 -9 290 12.5 c 128,-1,16
 237 34 237 34 203 82 c 1,17,-1
 203 108 l 1,18,19
 205 148 205 148 206.5 191.5 c 128,-1,20
 208 235 208 235 208 283 c 2,21,-1
 208 1175 l 2,22,23
 208 1198 208 1198 207 1217.5 c 128,-1,24
 206 1237 206 1237 204 1252 c 1,25,-1
 35 1252 l 1,26,-1
 35 1366 l 1,0,1
EndSplineSet
Validated: 1
EndChar

StartChar: m
Encoding: 109 109 99
Width: 2105
Flags: W
LayerCount: 2
Fore
SplineSet
1472 85 m 0,0,1
 1472 99 1472 99 1473 124.5 c 128,-1,2
 1474 150 1474 150 1475 178 c 128,-1,3
 1476 206 1476 206 1477 232 c 128,-1,4
 1478 258 1478 258 1478 274 c 2,5,-1
 1478 603 l 2,6,7
 1478 660 1478 660 1476.5 699 c 128,-1,8
 1475 738 1475 738 1470.5 762 c 128,-1,9
 1466 786 1466 786 1457.5 796.5 c 128,-1,10
 1449 807 1449 807 1434 807 c 0,11,12
 1348 807 1348 807 1268 733 c 1,13,-1
 1268 207 l 1,14,15
 1271 181 1271 181 1277 165 c 128,-1,16
 1283 149 1283 149 1295.5 139.5 c 128,-1,17
 1308 130 1308 130 1329.5 124.5 c 128,-1,18
 1351 119 1351 119 1386 113 c 1,19,-1
 1386 -11 l 1,20,-1
 1236 -5 l 2,21,22
 1170 -3 1170 -3 1121.5 -1.5 c 128,-1,23
 1073 0 1073 0 1041 0 c 0,24,25
 966 0 966 0 903 -3 c 128,-1,26
 840 -6 840 -6 783 -11 c 1,27,-1
 783 126 l 1,28,29
 804 132 804 132 817 138 c 128,-1,30
 830 144 830 144 837 153.5 c 128,-1,31
 844 163 844 163 846.5 178.5 c 128,-1,32
 849 194 849 194 849 220 c 2,33,-1
 849 603 l 2,34,35
 849 659 849 659 848 698 c 128,-1,36
 847 737 847 737 844 761 c 128,-1,37
 841 785 841 785 834.5 796 c 128,-1,38
 828 807 828 807 818 807 c 0,39,40
 765 807 765 807 714.5 785 c 128,-1,41
 664 763 664 763 632 731 c 1,42,-1
 632 254 l 2,43,44
 632 222 632 222 634 200.5 c 128,-1,45
 636 179 636 179 642.5 164.5 c 128,-1,46
 649 150 649 150 662.5 141 c 128,-1,47
 676 132 676 132 700 126 c 1,48,-1
 700 -11 l 1,49,50
 615 -6 615 -6 541.5 -3 c 128,-1,51
 468 0 468 0 405 0 c 0,52,53
 330 0 330 0 254.5 -3 c 128,-1,54
 179 -6 179 -6 101 -11 c 1,55,-1
 101 114 l 1,56,57
 135 114 135 114 157 120.5 c 128,-1,58
 179 127 179 127 191.5 140.5 c 128,-1,59
 204 154 204 154 208.5 174.5 c 128,-1,60
 213 195 213 195 213 223 c 2,61,-1
 213 824 l 1,62,-1
 41 824 l 1,63,-1
 41 946 l 1,64,65
 224 994 224 994 457 994 c 0,66,67
 481 994 481 994 520.5 990 c 128,-1,68
 560 986 560 986 617 978 c 1,69,70
 618 945 618 945 618.5 919.5 c 128,-1,71
 619 894 619 894 619 869 c 1,72,73
 661 898 661 898 709.5 923 c 128,-1,74
 758 948 758 948 809.5 966 c 128,-1,75
 861 984 861 984 914 994.5 c 128,-1,76
 967 1005 967 1005 1019 1005 c 0,77,78
 1182 1005 1182 1005 1247 891 c 1,79,80
 1437 1006 1437 1006 1607 1006 c 0,81,82
 1749 1006 1749 1006 1823 921 c 128,-1,83
 1897 836 1897 836 1897 686 c 2,84,-1
 1897 248 l 2,85,86
 1897 183 1897 183 1906 147 c 1,87,-1
 2039 147 l 1,88,-1
 2052 23 l 1,89,90
 1861 -22 1861 -22 1698 -22 c 0,91,92
 1472 -22 1472 -22 1472 85 c 0,0,1
EndSplineSet
Validated: 1
EndChar

StartChar: n
Encoding: 110 110 100
Width: 1498
Flags: W
LayerCount: 2
Fore
SplineSet
70 950 m 1,0,1
 281 994 281 994 460 994 c 0,2,3
 486 994 486 994 530.5 990 c 128,-1,4
 575 986 575 986 641 978 c 1,5,-1
 646 870 l 1,6,7
 743 934 743 934 842 970 c 128,-1,8
 941 1006 941 1006 1032 1006 c 0,9,10
 1104 1006 1104 1006 1158 982.5 c 128,-1,11
 1212 959 1212 959 1248 915 c 128,-1,12
 1284 871 1284 871 1301.5 807.5 c 128,-1,13
 1319 744 1319 744 1319 664 c 2,14,-1
 1319 248 l 2,15,16
 1319 183 1319 183 1328 147 c 1,17,-1
 1461 147 l 1,18,-1
 1474 23 l 1,19,20
 1283 -22 1283 -22 1120 -22 c 0,21,22
 894 -22 894 -22 894 85 c 0,23,24
 894 99 894 99 895 124.5 c 128,-1,25
 896 150 896 150 897 178 c 128,-1,26
 898 206 898 206 899 232 c 128,-1,27
 900 258 900 258 900 274 c 2,28,-1
 900 649 l 2,29,30
 900 808 900 808 813 808 c 0,31,32
 745 808 745 808 661 739 c 1,33,-1
 661 233 l 2,34,35
 661 205 661 205 665.5 187.5 c 128,-1,36
 670 170 670 170 680.5 158.5 c 128,-1,37
 691 147 691 147 709 140 c 128,-1,38
 727 133 727 133 754 127 c 1,39,-1
 765 -11 l 1,40,41
 627 -6 627 -6 545.5 -3 c 128,-1,42
 464 0 464 0 435 0 c 0,43,44
 356 0 356 0 279 -3 c 128,-1,45
 202 -6 202 -6 124 -11 c 1,46,-1
 130 126 l 1,47,48
 163 131 163 131 184.5 137 c 128,-1,49
 206 143 206 143 219 157 c 128,-1,50
 232 171 232 171 237 196 c 128,-1,51
 242 221 242 221 242 265 c 2,52,-1
 242 824 l 1,53,-1
 70 824 l 1,54,-1
 70 950 l 1,0,1
EndSplineSet
Validated: 1
EndChar

StartChar: o
Encoding: 111 111 101
Width: 1378
Flags: W
LayerCount: 2
Fore
SplineSet
1282 488 m 0,0,1
 1282 354 1282 354 1231.5 258 c 128,-1,2
 1181 162 1181 162 1098.5 99.5 c 128,-1,3
 1016 37 1016 37 909 7.5 c 128,-1,4
 802 -22 802 -22 690 -22 c 0,5,6
 559 -22 559 -22 449.5 13.5 c 128,-1,7
 340 49 340 49 261.5 115 c 128,-1,8
 183 181 183 181 139.5 275.5 c 128,-1,9
 96 370 96 370 96 488 c 0,10,11
 96 623 96 623 146.5 720.5 c 128,-1,12
 197 818 197 818 280.5 881.5 c 128,-1,13
 364 945 364 945 470.5 975 c 128,-1,14
 577 1005 577 1005 690 1005 c 0,15,16
 821 1005 821 1005 930 969 c 128,-1,17
 1039 933 1039 933 1117 865.5 c 128,-1,18
 1195 798 1195 798 1238.5 702.5 c 128,-1,19
 1282 607 1282 607 1282 488 c 0,0,1
530 489 m 0,20,21
 530 315 530 315 568.5 231 c 128,-1,22
 607 147 607 147 689 147 c 0,23,24
 775 147 775 147 811.5 234.5 c 128,-1,25
 848 322 848 322 848 489 c 0,26,27
 848 667 848 667 809.5 751.5 c 128,-1,28
 771 836 771 836 689 836 c 0,29,30
 604 836 604 836 567 751 c 128,-1,31
 530 666 530 666 530 489 c 0,20,21
EndSplineSet
Validated: 1
EndChar

StartChar: p
Encoding: 112 112 102
Width: 1426
Flags: W
LayerCount: 2
Fore
SplineSet
799 825 m 0,0,1
 702 825 702 825 620 770 c 1,2,-1
 620 411 l 2,3,4
 620 271 620 271 654 209 c 128,-1,5
 688 147 688 147 753 147 c 0,6,7
 802 147 802 147 830.5 181.5 c 128,-1,8
 859 216 859 216 874 267.5 c 128,-1,9
 889 319 889 319 893.5 378 c 128,-1,10
 898 437 898 437 898 486 c 0,11,12
 898 654 898 654 874.5 739.5 c 128,-1,13
 851 825 851 825 799 825 c 0,0,1
394 -429 m 1,14,15
 346 -429 346 -429 269 -435 c 128,-1,16
 192 -441 192 -441 83 -454 c 1,17,-1
 89 -321 l 1,18,-1
 121 -316 l 2,19,20
 143 -313 143 -313 158.5 -308 c 128,-1,21
 174 -303 174 -303 183.5 -292.5 c 128,-1,22
 193 -282 193 -282 197 -264 c 128,-1,23
 201 -246 201 -246 201 -215 c 2,24,-1
 201 824 l 1,25,-1
 27 824 l 1,26,-1
 27 947 l 1,27,28
 215 994 215 994 447 994 c 0,29,30
 483 994 483 994 518.5 990.5 c 128,-1,31
 554 987 554 987 601 979 c 1,32,33
 601 974 601 974 601 965.5 c 128,-1,34
 601 957 601 957 601.5 947.5 c 128,-1,35
 602 938 602 938 602 929 c 128,-1,36
 602 920 602 920 602 916 c 1,37,38
 721 1005 721 1005 869 1005 c 0,39,40
 980 1005 980 1005 1066 969.5 c 128,-1,41
 1152 934 1152 934 1210.5 868 c 128,-1,42
 1269 802 1269 802 1299.5 708.5 c 128,-1,43
 1330 615 1330 615 1330 499 c 0,44,45
 1330 378 1330 378 1295 281.5 c 128,-1,46
 1260 185 1260 185 1195.5 117.5 c 128,-1,47
 1131 50 1131 50 1038.5 14 c 128,-1,48
 946 -22 946 -22 832 -22 c 0,49,50
 701 -22 701 -22 620 35 c 1,51,-1
 620 -181 l 2,52,53
 620 -223 620 -223 622.5 -247 c 128,-1,54
 625 -271 625 -271 635.5 -284.5 c 128,-1,55
 646 -298 646 -298 668 -305.5 c 128,-1,56
 690 -313 690 -313 729 -323 c 1,57,-1
 740 -454 l 1,58,-1
 625 -443 l 2,59,60
 584 -439 584 -439 552.5 -437 c 128,-1,61
 521 -435 521 -435 495 -433.5 c 128,-1,62
 469 -432 469 -432 445 -431 c 128,-1,63
 421 -430 421 -430 394 -429 c 1,14,15
EndSplineSet
Validated: 1
EndChar

StartChar: q
Encoding: 113 113 103
Width: 1345
Flags: W
LayerCount: 2
Fore
SplineSet
803 823 m 1,0,1
 797 823 797 823 783.5 823.5 c 128,-1,2
 770 824 770 824 756 824 c 128,-1,3
 742 824 742 824 728.5 824.5 c 128,-1,4
 715 825 715 825 709 825 c 2,5,-1
 679 825 l 2,6,7
 607 825 607 825 566 742 c 128,-1,8
 525 659 525 659 525 492 c 256,9,10
 525 325 525 325 553 236 c 128,-1,11
 581 147 581 147 638 147 c 0,12,13
 669 147 669 147 710.5 156 c 128,-1,14
 752 165 752 165 802 184 c 1,15,16
 804 233 804 233 804 280 c 128,-1,17
 804 327 804 327 804 381 c 0,18,19
 804 421 804 421 804 466.5 c 128,-1,20
 804 512 804 512 803.5 565.5 c 128,-1,21
 803 619 803 619 803 682.5 c 128,-1,22
 803 746 803 746 803 823 c 1,0,1
997 -429 m 0,23,24
 949 -429 949 -429 872 -435 c 128,-1,25
 795 -441 795 -441 686 -454 c 1,26,-1
 692 -321 l 1,27,-1
 724 -316 l 2,28,29
 746 -313 746 -313 761.5 -308 c 128,-1,30
 777 -303 777 -303 786.5 -292.5 c 128,-1,31
 796 -282 796 -282 800 -264 c 128,-1,32
 804 -246 804 -246 804 -215 c 2,33,-1
 804 34 l 1,34,35
 668 -22 668 -22 534 -22 c 0,36,37
 429 -22 429 -22 347.5 18 c 128,-1,38
 266 58 266 58 209.5 127 c 128,-1,39
 153 196 153 196 123.5 287.5 c 128,-1,40
 94 379 94 379 94 483 c 0,41,42
 94 595 94 595 133.5 691 c 128,-1,43
 173 787 173 787 247.5 856.5 c 128,-1,44
 322 926 322 926 428 965.5 c 128,-1,45
 534 1005 534 1005 666 1005 c 0,46,47
 760 1005 760 1005 906.5 997 c 128,-1,48
 1053 989 1053 989 1258 973 c 1,49,-1
 1258 913 l 1,50,51
 1223 837 1223 837 1223 662 c 2,52,-1
 1223 -213 l 2,53,54
 1223 -252 1223 -252 1232 -272 c 128,-1,55
 1241 -292 1241 -292 1256 -301.5 c 128,-1,56
 1271 -311 1271 -311 1290.5 -314 c 128,-1,57
 1310 -317 1310 -317 1332 -323 c 1,58,-1
 1343 -454 l 1,59,-1
 1228 -443 l 2,60,61
 1187 -439 1187 -439 1155.5 -436.5 c 128,-1,62
 1124 -434 1124 -434 1098 -432.5 c 128,-1,63
 1072 -431 1072 -431 1048 -430 c 128,-1,64
 1024 -429 1024 -429 997 -429 c 0,23,24
EndSplineSet
Validated: 1
EndChar

StartChar: r
Encoding: 114 114 104
Width: 1139
Flags: W
LayerCount: 2
Fore
SplineSet
955 1005 m 0,0,1
 1040 1005 1040 1005 1108 984 c 1,2,-1
 1088 665 l 1,3,-1
 881 665 l 1,4,-1
 856 816 l 1,5,6
 817 816 817 816 777.5 804 c 128,-1,7
 738 792 738 792 705.5 772.5 c 128,-1,8
 673 753 673 753 652.5 728 c 128,-1,9
 632 703 632 703 632 676 c 2,10,-1
 632 258 l 2,11,12
 632 218 632 218 635 193.5 c 128,-1,13
 638 169 638 169 651 154 c 128,-1,14
 664 139 664 139 690 131 c 128,-1,15
 716 123 716 123 761 116 c 1,16,-1
 772 -11 l 1,17,18
 618 -6 618 -6 527.5 -3 c 128,-1,19
 437 0 437 0 406 0 c 0,20,21
 327 0 327 0 250 -3 c 128,-1,22
 173 -6 173 -6 95 -11 c 1,23,-1
 101 116 l 1,24,25
 140 122 140 122 162 127 c 128,-1,26
 184 132 184 132 195.5 142.5 c 128,-1,27
 207 153 207 153 210 171.5 c 128,-1,28
 213 190 213 190 213 224 c 2,29,-1
 213 824 l 1,30,-1
 41 824 l 1,31,-1
 41 947 l 1,32,33
 144 970 144 970 249 982 c 128,-1,34
 354 994 354 994 466 994 c 0,35,36
 488 994 488 994 523 990 c 128,-1,37
 558 986 558 986 606 978 c 1,38,-1
 606 850 l 1,39,40
 744 1005 744 1005 955 1005 c 0,0,1
EndSplineSet
Validated: 1
EndChar

StartChar: s
Encoding: 115 115 105
Width: 1100
Flags: W
LayerCount: 2
Fore
SplineSet
566 845 m 0,0,1
 520 845 520 845 490.5 824 c 128,-1,2
 461 803 461 803 461 761 c 0,3,4
 461 720 461 720 489.5 700 c 128,-1,5
 518 680 518 680 569 664 c 0,6,7
 796 592 796 592 907.5 502 c 128,-1,8
 1019 412 1019 412 1019 297 c 0,9,10
 1019 207 1019 207 981 146 c 128,-1,11
 943 85 943 85 879 47.5 c 128,-1,12
 815 10 815 10 732 -6 c 128,-1,13
 649 -22 649 -22 558 -22 c 0,14,15
 340 -22 340 -22 144 52 c 0,16,17
 117 62 117 62 96 72 c 128,-1,18
 75 82 75 82 61 93 c 1,19,-1
 110 351 l 1,20,-1
 387 291 l 1,21,-1
 399 166 l 1,22,23
 437 146 437 146 481 146 c 0,24,25
 529 146 529 146 559.5 170.5 c 128,-1,26
 590 195 590 195 590 237 c 0,27,28
 590 270 590 270 569 292 c 128,-1,29
 548 314 548 314 512 332 c 128,-1,30
 476 350 476 350 429 366.5 c 128,-1,31
 382 383 382 383 331 405 c 0,32,33
 269 431 269 431 219 462 c 128,-1,34
 169 493 169 493 134 530 c 128,-1,35
 99 567 99 567 80.5 611.5 c 128,-1,36
 62 656 62 656 62 709 c 0,37,38
 62 853 62 853 182.5 929 c 128,-1,39
 303 1005 303 1005 548 1005 c 0,40,41
 823 1005 823 1005 969 897 c 1,42,-1
 914 662 l 1,43,-1
 683 698 l 1,44,-1
 670 832 l 1,45,46
 624 845 624 845 566 845 c 0,0,1
EndSplineSet
Validated: 1
EndChar

StartChar: t
Encoding: 116 116 106
Width: 1069
Flags: W
LayerCount: 2
Fore
SplineSet
605 -22 m 0,0,1
 507 -22 507 -22 428.5 -3 c 128,-1,2
 350 16 350 16 295.5 56.5 c 128,-1,3
 241 97 241 97 211.5 160 c 128,-1,4
 182 223 182 223 182 311 c 2,5,-1
 182 839 l 1,6,-1
 0 839 l 1,7,-1
 0 911 l 2,8,9
 0 938 0 938 19.5 952 c 128,-1,10
 39 966 39 966 68.5 972.5 c 128,-1,11
 98 979 98 979 132.5 980 c 128,-1,12
 167 981 167 981 196 983 c 1,13,-1
 219 1137 l 2,14,15
 221 1151 221 1151 224.5 1167 c 128,-1,16
 228 1183 228 1183 236 1200 c 2,17,-1
 273 1286 l 1,18,-1
 603 1286 l 1,19,-1
 603 983 l 1,20,-1
 895 983 l 1,21,-1
 895 929 l 2,22,23
 895 896 895 896 882 877.5 c 128,-1,24
 869 859 869 859 848 850.5 c 128,-1,25
 827 842 827 842 800.5 840.5 c 128,-1,26
 774 839 774 839 746 839 c 2,27,-1
 603 839 l 1,28,-1
 603 256 l 2,29,30
 603 158 603 158 667 158 c 0,31,32
 694 158 694 158 713.5 170.5 c 128,-1,33
 733 183 733 183 746.5 202.5 c 128,-1,34
 760 222 760 222 768 244 c 128,-1,35
 776 266 776 266 781 286 c 2,36,-1
 793 333 l 1,37,-1
 1028 333 l 1,38,-1
 1028 94 l 1,39,40
 861 -22 861 -22 605 -22 c 0,0,1
EndSplineSet
Validated: 1
EndChar

StartChar: u
Encoding: 117 117 107
Width: 1366
Flags: W
LayerCount: 2
Fore
SplineSet
647 950 m 1,0,1
 840 994 840 994 1002 994 c 0,2,3
 1045 994 1045 994 1083 988.5 c 128,-1,4
 1121 983 1121 983 1149.5 971.5 c 128,-1,5
 1178 960 1178 960 1194.5 942 c 128,-1,6
 1211 924 1211 924 1211 899 c 2,7,-1
 1211 272 l 2,8,9
 1211 181 1211 181 1219 147 c 1,10,-1
 1371 147 l 1,11,-1
 1371 35 l 1,12,13
 1169 -11 1169 -11 998 -11 c 0,14,15
 951 -11 951 -11 914 -7.5 c 128,-1,16
 877 -4 877 -4 851.5 8 c 128,-1,17
 826 20 826 20 811.5 44 c 128,-1,18
 797 68 797 68 795 109 c 1,19,20
 625 -22 625 -22 460 -22 c 0,21,22
 386 -22 386 -22 326.5 0 c 128,-1,23
 267 22 267 22 225 63 c 128,-1,24
 183 104 183 104 160.5 163 c 128,-1,25
 138 222 138 222 138 296 c 2,26,-1
 138 824 l 1,27,-1
 -4 824 l 1,28,-1
 -17 950 l 1,29,30
 182 994 182 994 343 994 c 0,31,32
 443 994 443 994 500 970.5 c 128,-1,33
 557 947 557 947 557 899 c 2,34,-1
 557 278 l 1,35,36
 558 258 558 258 560 235.5 c 128,-1,37
 562 213 562 213 568 194 c 128,-1,38
 574 175 574 175 585.5 162.5 c 128,-1,39
 597 150 597 150 618 150 c 256,40,41
 639 150 639 150 663 156.5 c 128,-1,42
 687 163 687 163 710 174 c 128,-1,43
 733 185 733 185 753 198.5 c 128,-1,44
 773 212 773 212 787 226 c 1,45,46
 788 236 788 236 788.5 248 c 128,-1,47
 789 260 789 260 789.5 277 c 128,-1,48
 790 294 790 294 790 318.5 c 128,-1,49
 790 343 790 343 790 377 c 0,50,51
 790 381 790 381 790 387.5 c 128,-1,52
 790 394 790 394 790 409.5 c 128,-1,53
 790 425 790 425 790 453 c 128,-1,54
 790 481 790 481 790 529.5 c 128,-1,55
 790 578 790 578 790.5 649.5 c 128,-1,56
 791 721 791 721 791 824 c 1,57,-1
 658 824 l 1,58,-1
 647 950 l 1,0,1
EndSplineSet
Validated: 1
EndChar

StartChar: v
Encoding: 118 118 108
Width: 1275
Flags: W
LayerCount: 2
Fore
SplineSet
0 972 m 1,0,1
 81 983 81 983 172.5 988.5 c 128,-1,2
 264 994 264 994 367 994 c 0,3,4
 405 994 405 994 464.5 988.5 c 128,-1,5
 524 983 524 983 609 972 c 1,6,7
 624 920 624 920 633 824 c 1,8,-1
 557 824 l 1,9,10
 615 654 615 654 650.5 551.5 c 128,-1,11
 686 449 686 449 700 410 c 1,12,13
 735 519 735 519 765.5 621.5 c 128,-1,14
 796 724 796 724 824 824 c 1,15,-1
 722 824 l 1,16,-1
 742 972 l 1,17,18
 827 983 827 983 899.5 988.5 c 128,-1,19
 972 994 972 994 1035 994 c 0,20,21
 1056 994 1056 994 1076.5 993 c 128,-1,22
 1097 992 1097 992 1124 990 c 128,-1,23
 1151 988 1151 988 1187 983.5 c 128,-1,24
 1223 979 1223 979 1275 972 c 1,25,-1
 1275 824 l 1,26,-1
 1143 824 l 1,27,28
 1082 628 1082 628 1008.5 424.5 c 128,-1,29
 935 221 935 221 844 0 c 1,30,31
 801 -5 801 -5 754 -7.5 c 128,-1,32
 707 -10 707 -10 655 -10 c 0,33,34
 619 -10 619 -10 573.5 -7.5 c 128,-1,35
 528 -5 528 -5 473 0 c 1,36,-1
 127 824 l 1,37,-1
 21 824 l 1,38,-1
 0 972 l 1,0,1
EndSplineSet
Validated: 1
EndChar

StartChar: w
Encoding: 119 119 109
Width: 1849
Flags: W
LayerCount: 2
Fore
SplineSet
-6 972 m 1,0,1
 75 983 75 983 166.5 988.5 c 128,-1,2
 258 994 258 994 361 994 c 0,3,4
 398 994 398 994 455 988.5 c 128,-1,5
 512 983 512 983 593 972 c 1,6,7
 608 920 608 920 617 824 c 1,8,-1
 541 824 l 1,9,10
 543 819 543 819 571 717 c 128,-1,11
 599 615 599 615 654 410 c 1,12,-1
 810 910 l 2,13,14
 824 953 824 953 864.5 968 c 128,-1,15
 905 983 905 983 977 983 c 0,16,17
 1023 983 1023 983 1056 979.5 c 128,-1,18
 1089 976 1089 976 1112 965.5 c 128,-1,19
 1135 955 1135 955 1149.5 935 c 128,-1,20
 1164 915 1164 915 1175 882 c 2,21,-1
 1326 410 l 1,22,-1
 1419 824 l 1,23,-1
 1318 824 l 1,24,25
 1319 828 1319 828 1321.5 849 c 128,-1,26
 1324 870 1324 870 1327 895 c 128,-1,27
 1330 920 1330 920 1333 942 c 128,-1,28
 1336 964 1336 964 1338 972 c 1,29,30
 1416 983 1416 983 1483.5 988.5 c 128,-1,31
 1551 994 1551 994 1611 994 c 0,32,33
 1632 994 1632 994 1652.5 993 c 128,-1,34
 1673 992 1673 992 1700 990 c 128,-1,35
 1727 988 1727 988 1763 983.5 c 128,-1,36
 1799 979 1799 979 1851 972 c 1,37,-1
 1851 824 l 1,38,-1
 1721 824 l 1,39,40
 1667 615 1667 615 1608 412 c 128,-1,41
 1549 209 1549 209 1480 0 c 1,42,43
 1437 -5 1437 -5 1390 -7.5 c 128,-1,44
 1343 -10 1343 -10 1291 -10 c 0,45,46
 1259 -10 1259 -10 1216 -7.5 c 128,-1,47
 1173 -5 1173 -5 1119 0 c 1,48,-1
 954 509 l 1,49,50
 900 323 900 323 861 197.5 c 128,-1,51
 822 72 822 72 798 0 c 1,52,53
 755 -5 755 -5 708 -7.5 c 128,-1,54
 661 -10 661 -10 609 -10 c 0,55,56
 577 -10 577 -10 534 -7.5 c 128,-1,57
 491 -5 491 -5 437 0 c 1,58,-1
 120 824 l 1,59,-1
 -6 824 l 1,60,-1
 -6 972 l 1,0,1
EndSplineSet
Validated: 1
EndChar

StartChar: x
Encoding: 120 120 110
Width: 1392
Flags: W
LayerCount: 2
Fore
SplineSet
1108 994 m 0,0,1
 1129 994 1129 994 1149.5 993 c 128,-1,2
 1170 992 1170 992 1197 990 c 128,-1,3
 1224 988 1224 988 1260 983.5 c 128,-1,4
 1296 979 1296 979 1348 972 c 1,5,-1
 1348 824 l 1,6,-1
 1206 824 l 1,7,-1
 965 517 l 1,8,-1
 1255 147 l 1,9,-1
 1378 147 l 1,10,-1
 1378 -11 l 1,11,12
 1303 -6 1303 -6 1218 -3 c 128,-1,13
 1133 0 1133 0 1036 0 c 0,14,15
 961 0 961 0 882.5 -3 c 128,-1,16
 804 -6 804 -6 719 -11 c 1,17,18
 715 7 715 7 712 18.5 c 128,-1,19
 709 30 709 30 707 45 c 128,-1,20
 705 60 705 60 702 83 c 128,-1,21
 699 106 699 106 695 147 c 1,22,-1
 774 147 l 1,23,-1
 618 363 l 1,24,-1
 462 147 l 1,25,-1
 566 147 l 1,26,27
 564 138 564 138 561 115.5 c 128,-1,28
 558 93 558 93 555 68 c 128,-1,29
 552 43 552 43 549.5 20.5 c 128,-1,30
 547 -2 547 -2 546 -11 c 1,31,32
 471 -6 471 -6 401.5 -3 c 128,-1,33
 332 0 332 0 263 0 c 0,34,35
 231 0 231 0 171 -3 c 128,-1,36
 111 -6 111 -6 23 -11 c 1,37,-1
 23 147 l 1,38,-1
 150 147 l 1,39,-1
 415 472 l 1,40,-1
 171 824 l 1,41,-1
 33 824 l 1,42,-1
 33 972 l 1,43,44
 114 983 114 983 205.5 988.5 c 128,-1,45
 297 994 297 994 400 994 c 0,46,47
 442 994 442 994 506.5 988.5 c 128,-1,48
 571 983 571 983 662 972 c 1,49,50
 677 920 677 920 686 824 c 1,51,-1
 620 824 l 1,52,-1
 753 630 l 1,53,-1
 896 824 l 1,54,-1
 805 824 l 1,55,-1
 825 972 l 1,56,57
 906 983 906 983 976.5 988.5 c 128,-1,58
 1047 994 1047 994 1108 994 c 0,0,1
EndSplineSet
Validated: 1
EndChar

StartChar: y
Encoding: 121 121 111
Width: 1275
Flags: W
LayerCount: 2
Fore
SplineSet
1035 994 m 0,0,1
 1056 994 1056 994 1076.5 993 c 128,-1,2
 1097 992 1097 992 1124 990 c 128,-1,3
 1151 988 1151 988 1187 983.5 c 128,-1,4
 1223 979 1223 979 1275 972 c 1,5,-1
 1275 824 l 1,6,-1
 1144 824 l 1,7,-1
 855 11 l 2,8,9
 822 -82 822 -82 781.5 -154.5 c 128,-1,10
 741 -227 741 -227 680 -276.5 c 128,-1,11
 619 -326 619 -326 529.5 -351.5 c 128,-1,12
 440 -377 440 -377 308 -377 c 0,13,14
 165 -377 165 -377 64 -340 c 1,15,-1
 110 -169 l 1,16,17
 237 -217 237 -217 338 -217 c 0,18,19
 380 -217 380 -217 407 -197 c 128,-1,20
 434 -177 434 -177 450.5 -145.5 c 128,-1,21
 467 -114 467 -114 475.5 -75.5 c 128,-1,22
 484 -37 484 -37 489 1 c 1,23,-1
 128 824 l 1,24,-1
 0 824 l 1,25,-1
 0 972 l 1,26,27
 81 983 81 983 172.5 988.5 c 128,-1,28
 264 994 264 994 367 994 c 0,29,30
 405 994 405 994 464.5 988.5 c 128,-1,31
 524 983 524 983 609 972 c 1,32,33
 624 920 624 920 633 824 c 1,34,-1
 557 824 l 1,35,-1
 701 393 l 1,36,37
 736 510 736 510 766.5 617 c 128,-1,38
 797 724 797 724 823 824 c 1,39,-1
 721 824 l 1,40,-1
 742 972 l 1,41,42
 827 983 827 983 899.5 988.5 c 128,-1,43
 972 994 972 994 1035 994 c 0,0,1
EndSplineSet
Validated: 1
EndChar

StartChar: z
Encoding: 122 122 112
Width: 1063
Flags: W
LayerCount: 2
Fore
SplineSet
229 0 m 1,0,1
 129 2 129 2 104 9 c 0,2,3
 37 28 37 28 37 99 c 2,4,-1
 37 202 l 1,5,-1
 602 824 l 1,6,-1
 307 824 l 2,7,8
 297 824 297 824 279 821 c 128,-1,9
 261 818 261 818 255 811 c 0,10,11
 240 791 240 791 233.5 750 c 128,-1,12
 227 709 227 709 226 646 c 1,13,-1
 53 636 l 1,14,-1
 53 984 l 1,15,-1
 887 984 l 2,16,17
 926 984 926 984 948 977 c 128,-1,18
 970 970 970 970 981 957.5 c 128,-1,19
 992 945 992 945 995 927.5 c 128,-1,20
 998 910 998 910 998 889 c 2,21,-1
 998 753 l 1,22,-1
 473 164 l 1,23,-1
 745 164 l 2,24,25
 764 164 764 164 778.5 174.5 c 128,-1,26
 793 185 793 185 806 208 c 128,-1,27
 819 231 819 231 831.5 268.5 c 128,-1,28
 844 306 844 306 860 360 c 1,29,-1
 1002 368 l 1,30,-1
 1002 0 l 1,31,-1
 229 0 l 1,0,1
EndSplineSet
Validated: 1
EndChar

StartChar: braceleft
Encoding: 123 123 113
Width: 797
Flags: W
LayerCount: 2
Fore
SplineSet
542 1475 m 0,0,1
 581 1475 581 1475 615.5 1473 c 128,-1,2
 650 1471 650 1471 675.5 1463 c 128,-1,3
 701 1455 701 1455 717 1440 c 128,-1,4
 733 1425 733 1425 736 1398 c 1,5,-1
 736 1361 l 1,6,7
 688 1358 688 1358 653 1353 c 128,-1,8
 618 1348 618 1348 595 1334 c 128,-1,9
 572 1320 572 1320 560.5 1294 c 128,-1,10
 549 1268 549 1268 549 1222 c 2,11,-1
 549 853 l 2,12,13
 549 701 549 701 414 631 c 1,14,15
 480 596 480 596 514.5 541.5 c 128,-1,16
 549 487 549 487 549 412 c 2,17,-1
 549 42 l 2,18,19
 549 -73 549 -73 554 -73 c 1,20,21
 599 -86 599 -86 736 -100 c 1,22,-1
 736 -133 l 2,23,24
 736 -160 736 -160 709.5 -176 c 128,-1,25
 683 -192 683 -192 648.5 -199.5 c 128,-1,26
 614 -207 614 -207 580.5 -209 c 128,-1,27
 547 -211 547 -211 533 -211 c 0,28,29
 453 -211 453 -211 388 -200.5 c 128,-1,30
 323 -190 323 -190 276.5 -161.5 c 128,-1,31
 230 -133 230 -133 204.5 -83.5 c 128,-1,32
 179 -34 179 -34 179 43 c 2,33,-1
 179 405 l 2,34,35
 179 442 179 442 174.5 471 c 128,-1,36
 170 500 170 500 157.5 522 c 128,-1,37
 145 544 145 544 123 559 c 128,-1,38
 101 574 101 574 66 582 c 1,39,-1
 66 688 l 1,40,41
 108 692 108 692 131 713.5 c 128,-1,42
 154 735 154 735 164.5 765.5 c 128,-1,43
 175 796 175 796 177 831 c 128,-1,44
 179 866 179 866 179 896 c 2,45,-1
 179 1231 l 2,46,47
 179 1306 179 1306 204.5 1353.5 c 128,-1,48
 230 1401 230 1401 277.5 1428 c 128,-1,49
 325 1455 325 1455 392 1465 c 128,-1,50
 459 1475 459 1475 542 1475 c 0,0,1
EndSplineSet
Validated: 1
EndChar

StartChar: bar
Encoding: 124 124 114
Width: 1306
Flags: W
LayerCount: 2
Fore
SplineSet
624 1412 m 2,0,1
 710 1412 710 1412 758 1382.5 c 128,-1,2
 806 1353 806 1353 806 1282 c 2,3,-1
 806 -225 l 1,4,-1
 679 -225 l 2,5,6
 626 -225 626 -225 591 -215.5 c 128,-1,7
 556 -206 556 -206 535.5 -183.5 c 128,-1,8
 515 -161 515 -161 506.5 -124 c 128,-1,9
 498 -87 498 -87 498 -31 c 2,10,-1
 498 1412 l 1,11,-1
 624 1412 l 2,0,1
EndSplineSet
Validated: 1
EndChar

StartChar: braceright
Encoding: 125 125 115
Width: 791
Flags: W
LayerCount: 2
Fore
SplineSet
254 1475 m 0,0,1
 337 1475 337 1475 404 1465 c 128,-1,2
 471 1455 471 1455 518.5 1428 c 128,-1,3
 566 1401 566 1401 591.5 1353.5 c 128,-1,4
 617 1306 617 1306 617 1231 c 2,5,-1
 617 896 l 2,6,7
 617 866 617 866 619 831 c 128,-1,8
 621 796 621 796 631.5 765.5 c 128,-1,9
 642 735 642 735 665 713.5 c 128,-1,10
 688 692 688 692 730 688 c 1,11,-1
 730 582 l 1,12,13
 695 574 695 574 673 559 c 128,-1,14
 651 544 651 544 638.5 522 c 128,-1,15
 626 500 626 500 621.5 471 c 128,-1,16
 617 442 617 442 617 405 c 2,17,-1
 617 43 l 2,18,19
 617 -34 617 -34 591.5 -83.5 c 128,-1,20
 566 -133 566 -133 519.5 -161.5 c 128,-1,21
 473 -190 473 -190 408 -200.5 c 128,-1,22
 343 -211 343 -211 263 -211 c 0,23,24
 249 -211 249 -211 215.5 -209 c 128,-1,25
 182 -207 182 -207 147.5 -199.5 c 128,-1,26
 113 -192 113 -192 86.5 -176 c 128,-1,27
 60 -160 60 -160 60 -133 c 2,28,-1
 60 -100 l 1,29,30
 197 -86 197 -86 242 -73 c 1,31,32
 247 -73 247 -73 247 42 c 2,33,-1
 247 412 l 2,34,35
 247 487 247 487 281.5 541.5 c 128,-1,36
 316 596 316 596 382 631 c 1,37,38
 247 701 247 701 247 853 c 2,39,-1
 247 1222 l 2,40,41
 247 1268 247 1268 235.5 1294 c 128,-1,42
 224 1320 224 1320 201 1334 c 128,-1,43
 178 1348 178 1348 143 1353 c 128,-1,44
 108 1358 108 1358 60 1361 c 1,45,-1
 60 1398 l 1,46,47
 63 1425 63 1425 79 1440 c 128,-1,48
 95 1455 95 1455 120.5 1463 c 128,-1,49
 146 1471 146 1471 180.5 1473 c 128,-1,50
 215 1475 215 1475 254 1475 c 0,0,1
EndSplineSet
Validated: 1
EndChar

StartChar: asciitilde
Encoding: 126 126 116
Width: 1203
Flags: W
LayerCount: 2
Fore
SplineSet
823 538 m 0,0,1
 892 538 892 538 945 567.5 c 128,-1,2
 998 597 998 597 1026 645 c 1,3,4
 1049 615 1049 615 1065.5 589.5 c 128,-1,5
 1082 564 1082 564 1090 543 c 1,6,7
 1079 508 1079 508 1056.5 480.5 c 128,-1,8
 1034 453 1034 453 1002.5 434 c 128,-1,9
 971 415 971 415 931.5 404.5 c 128,-1,10
 892 394 892 394 847 394 c 0,11,12
 816 394 816 394 789.5 397 c 128,-1,13
 763 400 763 400 736 407 c 128,-1,14
 709 414 709 414 679 425 c 128,-1,15
 649 436 649 436 611 453 c 0,16,17
 555 477 555 477 517 492.5 c 128,-1,18
 479 508 479 508 452 516 c 128,-1,19
 425 524 425 524 407 527 c 128,-1,20
 389 530 389 530 374 530 c 0,21,22
 270 530 270 530 189 398 c 1,23,24
 129 458 129 458 113 495 c 1,25,26
 122 530 122 530 148 562 c 128,-1,27
 174 594 174 594 209.5 618 c 128,-1,28
 245 642 245 642 287 656.5 c 128,-1,29
 329 671 329 671 370 671 c 0,30,31
 420 671 420 671 473.5 658 c 128,-1,32
 527 645 527 645 565 628 c 0,33,34
 630 599 630 599 671.5 581.5 c 128,-1,35
 713 564 713 564 740.5 554 c 128,-1,36
 768 544 768 544 786 541 c 128,-1,37
 804 538 804 538 823 538 c 0,0,1
EndSplineSet
Validated: 1
EndChar

StartChar: cent
Encoding: 162 162 119
Width: 1231
Flags: W
LayerCount: 2
Fore
SplineSet
782 148 m 1,0,1
 829 149 829 149 871.5 157.5 c 128,-1,2
 914 166 914 166 955 181 c 128,-1,3
 996 196 996 196 1037 217 c 128,-1,4
 1078 238 1078 238 1122 265 c 1,5,-1
 1139 105 l 1,6,7
 993 -2 993 -2 782 -19 c 1,8,-1
 782 -290 l 1,9,-1
 759 -290 l 2,10,11
 723 -290 723 -290 700.5 -286 c 128,-1,12
 678 -282 678 -282 665.5 -271.5 c 128,-1,13
 653 -261 653 -261 649 -241.5 c 128,-1,14
 645 -222 645 -222 645 -190 c 2,15,-1
 645 -19 l 1,16,17
 526 -11 526 -11 429 26.5 c 128,-1,18
 332 64 332 64 262.5 128.5 c 128,-1,19
 193 193 193 193 155 283 c 128,-1,20
 117 373 117 373 117 486 c 0,21,22
 117 612 117 612 161 705 c 128,-1,23
 205 798 205 798 278.5 860.5 c 128,-1,24
 352 923 352 923 447 957.5 c 128,-1,25
 542 992 542 992 645 1001 c 1,26,-1
 645 1278 l 1,27,-1
 667 1278 l 2,28,29
 697 1278 697 1278 719 1275.5 c 128,-1,30
 741 1273 741 1273 755 1263 c 128,-1,31
 769 1253 769 1253 775.5 1234.5 c 128,-1,32
 782 1216 782 1216 782 1183 c 2,33,-1
 782 1003 l 1,34,35
 894 995 894 995 989 961 c 128,-1,36
 1084 927 1084 927 1147 872 c 1,37,-1
 1130 674 l 1,38,-1
 859 674 l 1,39,40
 837 717 837 717 818 747.5 c 128,-1,41
 799 778 799 778 782 797 c 1,42,-1
 782 148 l 1,0,1
645 815 m 1,43,44
 543 744 543 744 543 516 c 0,45,46
 543 261 543 261 645 179 c 1,47,-1
 645 815 l 1,43,44
EndSplineSet
Validated: 1
EndChar

StartChar: sterling
Encoding: 163 163 120
Width: 1276
Flags: W
LayerCount: 2
Fore
SplineSet
50 144 m 1,0,1
 95 157 95 157 132 174 c 128,-1,2
 169 191 169 191 195.5 217 c 128,-1,3
 222 243 222 243 237 279.5 c 128,-1,4
 252 316 252 316 252 367 c 0,5,6
 252 427 252 427 249 492 c 128,-1,7
 246 557 246 557 241 632 c 1,8,-1
 49 632 l 1,9,-1
 49 705 l 2,10,11
 49 733 49 733 58 749 c 128,-1,12
 67 765 67 765 83 773 c 128,-1,13
 99 781 99 781 120 783 c 128,-1,14
 141 785 141 785 164 785 c 2,15,-1
 221 785 l 1,16,17
 208 876 208 876 202 939 c 128,-1,18
 196 1002 196 1002 196 1044 c 0,19,20
 196 1148 196 1148 238 1218.5 c 128,-1,21
 280 1289 280 1289 352 1332 c 128,-1,22
 424 1375 424 1375 519.5 1393.5 c 128,-1,23
 615 1412 615 1412 722 1412 c 0,24,25
 1031 1412 1031 1412 1207 1287 c 1,26,-1
 1207 973 l 1,27,-1
 961 948 l 1,28,29
 909 1100 909 1100 855 1170.5 c 128,-1,30
 801 1241 801 1241 733 1241 c 0,31,32
 614 1241 614 1241 614 1031 c 0,33,34
 614 974 614 974 632 785 c 1,35,-1
 942 785 l 1,36,-1
 942 712 l 2,37,38
 942 670 942 670 918.5 651 c 128,-1,39
 895 632 895 632 850 632 c 2,40,-1
 650 632 l 1,41,42
 652 590 652 590 653.5 559.5 c 128,-1,43
 655 529 655 529 655 507 c 0,44,45
 655 457 655 457 648.5 414.5 c 128,-1,46
 642 372 642 372 629 331.5 c 128,-1,47
 616 291 616 291 597.5 251 c 128,-1,48
 579 211 579 211 554 167 c 1,49,-1
 690 167 l 2,50,51
 770 167 770 167 822 183.5 c 128,-1,52
 874 200 874 200 908.5 234 c 128,-1,53
 943 268 943 268 965.5 319.5 c 128,-1,54
 988 371 988 371 1009 441 c 1,55,-1
 1216 419 l 1,56,57
 1216 334 1216 334 1208.5 236.5 c 128,-1,58
 1201 139 1201 139 1187 21 c 1,59,60
 960 0 960 0 676 0 c 2,61,-1
 87 0 l 1,62,63
 50 64 50 64 50 144 c 1,0,1
EndSplineSet
Validated: 1
EndChar

StartChar: currency
Encoding: 164 164 121
Width: 1362
Flags: W
LayerCount: 2
Fore
SplineSet
989 1002 m 1,0,1
 1079 885 1079 885 1079 730 c 0,2,3
 1079 574 1079 574 988 462 c 1,4,-1
 1118 330 l 1,5,-1
 1110 322 l 2,6,7
 1090 302 1090 302 1067.5 281.5 c 128,-1,8
 1045 261 1045 261 1024 252 c 1,9,10
 1011 257 1011 257 995 270.5 c 128,-1,11
 979 284 979 284 962 301 c 128,-1,12
 945 318 945 318 928.5 336 c 128,-1,13
 912 354 912 354 897 369 c 1,14,15
 839 327 839 327 769 303 c 128,-1,16
 699 279 699 279 624 279 c 256,17,18
 549 279 549 279 481.5 302.5 c 128,-1,19
 414 326 414 326 357 369 c 1,20,-1
 226 240 l 1,21,22
 204 261 204 261 180.5 284.5 c 128,-1,23
 157 308 157 308 146 328 c 1,24,25
 159 356 159 356 184 381 c 2,26,-1
 266 462 l 1,27,28
 176 576 176 576 176 731 c 256,29,30
 176 886 176 886 266 1000 c 1,31,-1
 133 1131 l 1,32,33
 156 1152 156 1152 179.5 1176 c 128,-1,34
 203 1200 203 1200 226 1210 c 1,35,36
 238 1203 238 1203 250.5 1194.5 c 128,-1,37
 263 1186 263 1186 276 1173 c 2,38,-1
 356 1093 l 1,39,40
 478 1184 478 1184 625 1184 c 0,41,42
 698 1184 698 1184 766 1160.5 c 128,-1,43
 834 1137 834 1137 895 1092 c 1,44,-1
 1027 1224 l 1,45,-1
 1036 1215 l 2,46,47
 1060 1192 1060 1192 1078.5 1169.5 c 128,-1,48
 1097 1147 1097 1147 1097 1121 c 0,49,50
 1097 1110 1097 1110 1096 1108 c 2,51,-1
 989 1002 l 1,0,1
308 731 m 0,52,53
 308 660 308 660 333 601 c 128,-1,54
 358 542 358 542 401.5 499 c 128,-1,55
 445 456 445 456 503 432 c 128,-1,56
 561 408 561 408 627 408 c 0,57,58
 695 408 695 408 753.5 433 c 128,-1,59
 812 458 812 458 855 501.5 c 128,-1,60
 898 545 898 545 922.5 604 c 128,-1,61
 947 663 947 663 947 731 c 0,62,63
 947 800 947 800 922.5 859 c 128,-1,64
 898 918 898 918 855 961.5 c 128,-1,65
 812 1005 812 1005 753.5 1030 c 128,-1,66
 695 1055 695 1055 627 1055 c 256,67,68
 559 1055 559 1055 501 1030.5 c 128,-1,69
 443 1006 443 1006 400 962.5 c 128,-1,70
 357 919 357 919 332.5 859.5 c 128,-1,71
 308 800 308 800 308 731 c 0,52,53
EndSplineSet
Validated: 1
EndChar

StartChar: yen
Encoding: 165 165 122
Width: 1568
Flags: W
LayerCount: 2
Fore
SplineSet
583 147 m 1,0,1
 585 161 585 161 586.5 178 c 128,-1,2
 588 195 588 195 588 217 c 2,3,-1
 588 266 l 1,4,-1
 237 266 l 1,5,-1
 237 341 l 1,6,7
 271 381 271 381 317.5 397 c 128,-1,8
 364 413 364 413 441 413 c 2,9,-1
 586 413 l 1,10,-1
 586 514 l 1,11,-1
 237 514 l 1,12,-1
 237 590 l 1,13,14
 271 628 271 628 318 645 c 128,-1,15
 365 662 365 662 438 662 c 2,16,-1
 497 662 l 1,17,18
 391 837 391 837 318 954.5 c 128,-1,19
 245 1072 245 1072 207 1140 c 2,20,-1
 165 1215 l 1,21,-1
 18 1215 l 1,22,-1
 -6 1387 l 1,23,24
 62 1391 62 1391 118 1393.5 c 128,-1,25
 174 1396 174 1396 227.5 1397 c 128,-1,26
 281 1398 281 1398 338 1398.5 c 128,-1,27
 395 1399 395 1399 464 1399 c 0,28,29
 627 1399 627 1399 750 1387 c 1,30,-1
 765 1215 l 1,31,-1
 637 1215 l 1,32,33
 651 1175 651 1175 659 1153.5 c 128,-1,34
 667 1132 667 1132 669 1128 c 2,35,-1
 877 752 l 1,36,-1
 1053 1123 l 2,37,38
 1061 1140 1061 1140 1065.5 1161.5 c 128,-1,39
 1070 1183 1070 1183 1075 1215 c 1,40,-1
 919 1215 l 1,41,-1
 954 1387 l 1,42,43
 1078 1399 1078 1399 1241 1399 c 2,44,-1
 1315 1399 l 2,45,46
 1433 1399 1433 1399 1570 1387 c 1,47,-1
 1546 1215 l 1,48,-1
 1399 1215 l 1,49,50
 1386 1199 1386 1199 1353 1123 c 1,51,52
 1329 1080 1329 1080 1294.5 1017 c 128,-1,53
 1260 954 1260 954 1214 869 c 2,54,-1
 1102 662 l 1,55,-1
 1362 662 l 1,56,-1
 1362 596 l 2,57,58
 1362 569 1362 569 1353 553.5 c 128,-1,59
 1344 538 1344 538 1329.5 530 c 128,-1,60
 1315 522 1315 522 1296.5 519 c 128,-1,61
 1278 516 1278 516 1259 514 c 1,62,-1
 1021 514 l 1,63,-1
 1021 413 l 1,64,-1
 1362 413 l 1,65,-1
 1362 348 l 2,66,67
 1362 301 1362 301 1335.5 284.5 c 128,-1,68
 1309 268 1309 268 1266 266 c 1,69,-1
 1021 266 l 1,70,-1
 1021 239 l 2,71,72
 1021 212 1021 212 1022.5 189 c 128,-1,73
 1024 166 1024 166 1026 147 c 1,74,-1
 1214 147 l 1,75,-1
 1214 -11 l 1,76,77
 1102 -6 1102 -6 1003.5 -3 c 128,-1,78
 905 0 905 0 817 0 c 0,79,80
 726 0 726 0 622 -3 c 128,-1,81
 518 -6 518 -6 397 -11 c 1,82,-1
 397 147 l 1,83,-1
 583 147 l 1,0,1
EndSplineSet
Validated: 1
EndChar

StartChar: brokenbar
Encoding: 166 166 123
Width: 1350
Flags: W
LayerCount: 2
Fore
SplineSet
666 1448 m 2,0,1
 745 1448 745 1448 789.5 1431 c 128,-1,2
 834 1414 834 1414 850 1367 c 1,3,-1
 850 664 l 1,4,-1
 684 664 l 2,5,6
 650 664 650 664 619 665.5 c 128,-1,7
 588 667 588 667 564 673 c 128,-1,8
 540 679 540 679 524 692 c 128,-1,9
 508 705 508 705 504 728 c 0,10,11
 503 739 503 739 502.5 751.5 c 128,-1,12
 502 764 502 764 502 778 c 2,13,-1
 502 1448 l 1,14,-1
 666 1448 l 2,0,1
666 378 m 2,15,16
 746 378 746 378 790 361.5 c 128,-1,17
 834 345 834 345 850 298 c 1,18,-1
 850 -405 l 1,19,-1
 642 -405 l 2,20,21
 619 -405 619 -405 596 -403.5 c 128,-1,22
 573 -402 573 -402 554 -395.5 c 128,-1,23
 535 -389 535 -389 521.5 -376.5 c 128,-1,24
 508 -364 508 -364 504 -341 c 0,25,26
 503 -330 503 -330 502.5 -318 c 128,-1,27
 502 -306 502 -306 502 -292 c 2,28,-1
 502 378 l 1,29,-1
 666 378 l 2,15,16
EndSplineSet
Validated: 1
EndChar

StartChar: section
Encoding: 167 167 124
Width: 1016
Flags: W
LayerCount: 2
Fore
SplineSet
279 957 m 1,0,1
 250 980 250 980 229 1004 c 128,-1,2
 208 1028 208 1028 194 1056 c 128,-1,3
 180 1084 180 1084 173 1117.5 c 128,-1,4
 166 1151 166 1151 166 1193 c 0,5,6
 166 1275 166 1275 198 1333.5 c 128,-1,7
 230 1392 230 1392 284.5 1429.5 c 128,-1,8
 339 1467 339 1467 413 1484 c 128,-1,9
 487 1501 487 1501 571 1501 c 0,10,11
 628 1501 628 1501 677.5 1491.5 c 128,-1,12
 727 1482 727 1482 766.5 1469 c 128,-1,13
 806 1456 806 1456 832.5 1441.5 c 128,-1,14
 859 1427 859 1427 870 1418 c 1,15,-1
 849 1212 l 1,16,-1
 735 1212 l 1,17,18
 720 1251 720 1251 703.5 1278 c 128,-1,19
 687 1305 687 1305 664 1322.5 c 128,-1,20
 641 1340 641 1340 608 1348 c 128,-1,21
 575 1356 575 1356 527 1356 c 0,22,23
 451 1356 451 1356 405.5 1324.5 c 128,-1,24
 360 1293 360 1293 360 1227 c 0,25,26
 360 1192 360 1192 373.5 1166.5 c 128,-1,27
 387 1141 387 1141 412.5 1120 c 128,-1,28
 438 1099 438 1099 475 1080.5 c 128,-1,29
 512 1062 512 1062 558 1041 c 0,30,31
 671 990 671 990 744.5 950.5 c 128,-1,32
 818 911 818 911 861 872 c 128,-1,33
 904 833 904 833 921 788 c 128,-1,34
 938 743 938 743 938 682 c 0,35,36
 938 591 938 591 901.5 524.5 c 128,-1,37
 865 458 865 458 799 420 c 1,38,39
 920 332 920 332 920 186 c 0,40,41
 920 102 920 102 889 41.5 c 128,-1,42
 858 -19 858 -19 803.5 -58 c 128,-1,43
 749 -97 749 -97 675 -115 c 128,-1,44
 601 -133 601 -133 516 -133 c 0,45,46
 477 -133 477 -133 422.5 -125 c 128,-1,47
 368 -117 368 -117 313 -102 c 128,-1,48
 258 -87 258 -87 210 -65 c 128,-1,49
 162 -43 162 -43 137 -15 c 1,50,51
 137 71 137 71 135.5 130.5 c 128,-1,52
 134 190 134 190 131 228 c 1,53,-1
 260 228 l 1,54,55
 277 175 277 175 299.5 135 c 128,-1,56
 322 95 322 95 354.5 68 c 128,-1,57
 387 41 387 41 431 27.5 c 128,-1,58
 475 14 475 14 535 14 c 0,59,60
 576 14 576 14 610.5 22.5 c 128,-1,61
 645 31 645 31 669.5 48.5 c 128,-1,62
 694 66 694 66 708 92 c 128,-1,63
 722 118 722 118 722 153 c 0,64,65
 722 174 722 174 713 192.5 c 128,-1,66
 704 211 704 211 680.5 230 c 128,-1,67
 657 249 657 249 617 271.5 c 128,-1,68
 577 294 577 294 516 323 c 2,69,-1
 377 389 l 2,70,71
 339 407 339 407 296 431.5 c 128,-1,72
 253 456 253 456 217 493 c 128,-1,73
 181 530 181 530 157 582.5 c 128,-1,74
 133 635 133 635 133 709 c 0,75,76
 133 803 133 803 170 861 c 128,-1,77
 207 919 207 919 279 957 c 1,0,1
424 876 m 1,78,79
 376 848 376 848 350 816 c 128,-1,80
 324 784 324 784 324 736 c 0,81,82
 324 709 324 709 332 689.5 c 128,-1,83
 340 670 340 670 356.5 653.5 c 128,-1,84
 373 637 373 637 398 621.5 c 128,-1,85
 423 606 423 606 458 588 c 2,86,-1
 534 548 l 2,87,88
 560 534 560 534 586 522 c 128,-1,89
 612 510 612 510 639 499 c 1,90,91
 747 557 747 557 747 643 c 0,92,93
 747 667 747 667 728.5 691.5 c 128,-1,94
 710 716 710 716 682 737.5 c 128,-1,95
 654 759 654 759 621.5 777.5 c 128,-1,96
 589 796 589 796 561 809 c 0,97,98
 520 827 520 827 495 839 c 128,-1,99
 470 851 470 851 455 858.5 c 128,-1,100
 440 866 440 866 433.5 870 c 128,-1,101
 427 874 427 874 424 876 c 1,78,79
EndSplineSet
Validated: 1
EndChar

StartChar: dieresis
Encoding: 168 168 125
Width: 1343
Flags: W
LayerCount: 2
Fore
SplineSet
588 1257 m 0,0,1
 588 1185 588 1185 543 1142.5 c 128,-1,2
 498 1100 498 1100 423 1100 c 256,3,4
 348 1100 348 1100 303 1142 c 128,-1,5
 258 1184 258 1184 258 1257 c 0,6,7
 258 1291 258 1291 270.5 1320 c 128,-1,8
 283 1349 283 1349 305 1369 c 128,-1,9
 327 1389 327 1389 357.5 1400.5 c 128,-1,10
 388 1412 388 1412 423 1412 c 0,11,12
 459 1412 459 1412 489.5 1400.5 c 128,-1,13
 520 1389 520 1389 541.5 1369 c 128,-1,14
 563 1349 563 1349 575.5 1320 c 128,-1,15
 588 1291 588 1291 588 1257 c 0,0,1
1083 1257 m 0,16,17
 1083 1184 1083 1184 1038 1142 c 128,-1,18
 993 1100 993 1100 918 1100 c 256,19,20
 843 1100 843 1100 798 1142 c 128,-1,21
 753 1184 753 1184 753 1257 c 0,22,23
 753 1291 753 1291 765.5 1320 c 128,-1,24
 778 1349 778 1349 800 1369 c 128,-1,25
 822 1389 822 1389 852.5 1400.5 c 128,-1,26
 883 1412 883 1412 918 1412 c 0,27,28
 954 1412 954 1412 984.5 1400.5 c 128,-1,29
 1015 1389 1015 1389 1036.5 1369 c 128,-1,30
 1058 1349 1058 1349 1070.5 1320 c 128,-1,31
 1083 1291 1083 1291 1083 1257 c 0,16,17
EndSplineSet
Validated: 1
EndChar

StartChar: copyright
Encoding: 169 169 126
Width: 1669
Flags: W
LayerCount: 2
Fore
SplineSet
835 1244 m 0,0,1
 713 1244 713 1244 616 1201 c 128,-1,2
 519 1158 519 1158 451.5 1083.5 c 128,-1,3
 384 1009 384 1009 348 908 c 128,-1,4
 312 807 312 807 312 692 c 0,5,6
 312 572 312 572 349.5 472 c 128,-1,7
 387 372 387 372 456 299.5 c 128,-1,8
 525 227 525 227 621.5 186.5 c 128,-1,9
 718 146 718 146 835 146 c 0,10,11
 969 146 969 146 1069 192 c 128,-1,12
 1169 238 1169 238 1235 314.5 c 128,-1,13
 1301 391 1301 391 1334 489.5 c 128,-1,14
 1367 588 1367 588 1367 692 c 0,15,16
 1367 815 1367 815 1327 916.5 c 128,-1,17
 1287 1018 1287 1018 1216 1090.5 c 128,-1,18
 1145 1163 1145 1163 1047.5 1203.5 c 128,-1,19
 950 1244 950 1244 835 1244 c 0,0,1
835 -22 m 0,20,21
 669 -22 669 -22 535.5 32.5 c 128,-1,22
 402 87 402 87 308 182.5 c 128,-1,23
 214 278 214 278 163.5 408.5 c 128,-1,24
 113 539 113 539 113 691 c 0,25,26
 113 834 113 834 161 964.5 c 128,-1,27
 209 1095 209 1095 301 1194.5 c 128,-1,28
 393 1294 393 1294 527.5 1353 c 128,-1,29
 662 1412 662 1412 835 1412 c 0,30,31
 1007 1412 1007 1412 1141.5 1353.5 c 128,-1,32
 1276 1295 1276 1295 1368 1196 c 128,-1,33
 1460 1097 1460 1097 1508 966.5 c 128,-1,34
 1556 836 1556 836 1556 691 c 0,35,36
 1556 402 1556 402 1376 200 c 0,37,38
 1178 -22 1178 -22 835 -22 c 0,20,21
885 464 m 0,39,40
 925 464 925 464 959.5 469 c 128,-1,41
 994 474 994 474 1025.5 484.5 c 128,-1,42
 1057 495 1057 495 1088 510 c 128,-1,43
 1119 525 1119 525 1154 546 c 1,44,-1
 1165 434 l 1,45,46
 1111 394 1111 394 1034 370 c 128,-1,47
 957 346 957 346 869 346 c 0,48,49
 775 346 775 346 698 369.5 c 128,-1,50
 621 393 621 393 566 438.5 c 128,-1,51
 511 484 511 484 480.5 550 c 128,-1,52
 450 616 450 616 450 701 c 0,53,54
 450 797 450 797 486.5 865.5 c 128,-1,55
 523 934 523 934 583 978.5 c 128,-1,56
 643 1023 643 1023 720 1043.5 c 128,-1,57
 797 1064 797 1064 878 1064 c 0,58,59
 969 1064 969 1064 1045.5 1039 c 128,-1,60
 1122 1014 1122 1014 1171 971 c 1,61,-1
 1159 832 l 1,62,-1
 969 832 l 1,63,64
 939 895 939 895 914 920 c 128,-1,65
 889 945 889 945 866 945 c 0,66,67
 831 945 831 945 808.5 924.5 c 128,-1,68
 786 904 786 904 772.5 871.5 c 128,-1,69
 759 839 759 839 753.5 799.5 c 128,-1,70
 748 760 748 760 748 722 c 0,71,72
 748 595 748 595 782 529.5 c 128,-1,73
 816 464 816 464 885 464 c 0,39,40
EndSplineSet
Validated: 1
EndChar

StartChar: ordfeminine
Encoding: 170 170 127
Width: 969
Flags: W
LayerCount: 2
Fore
SplineSet
482 1013 m 2,0,1
 425 1013 425 1013 393 976 c 128,-1,2
 361 939 361 939 361 879 c 0,3,4
 361 773 361 773 423 773 c 0,5,6
 457 773 457 773 504 812 c 1,7,-1
 504 1013 l 1,8,-1
 482 1013 l 2,0,1
926 696 m 1,9,10
 777 665 777 665 620 665 c 1,11,12
 567 702 567 702 531 747 c 1,13,14
 444 656 444 656 322 656 c 0,15,16
 264 656 264 656 215.5 669.5 c 128,-1,17
 167 683 167 683 132.5 710 c 128,-1,18
 98 737 98 737 78.5 778 c 128,-1,19
 59 819 59 819 59 873 c 0,20,21
 59 986 59 986 165.5 1043 c 128,-1,22
 272 1100 272 1100 490 1100 c 2,23,-1
 504 1100 l 1,24,-1
 504 1125 l 2,25,26
 504 1182 504 1182 502 1216.5 c 128,-1,27
 500 1251 500 1251 495.5 1269 c 128,-1,28
 491 1287 491 1287 483.5 1293 c 128,-1,29
 476 1299 476 1299 466 1300 c 1,30,31
 423 1300 423 1300 369 1255.5 c 128,-1,32
 315 1211 315 1211 255 1135 c 1,33,-1
 78 1248 l 1,34,35
 78 1280 78 1280 107.5 1309.5 c 128,-1,36
 137 1339 137 1339 187 1361.5 c 128,-1,37
 237 1384 237 1384 301.5 1397 c 128,-1,38
 366 1410 366 1410 437 1410 c 0,39,40
 526 1410 526 1410 596 1395 c 128,-1,41
 666 1380 666 1380 714 1345.5 c 128,-1,42
 762 1311 762 1311 787 1254 c 128,-1,43
 812 1197 812 1197 812 1113 c 0,44,45
 812 1092 812 1092 811.5 1064.5 c 128,-1,46
 811 1037 811 1037 811 1003 c 2,47,-1
 811 873 l 2,48,49
 811 837 811 837 812 814 c 128,-1,50
 813 791 813 791 815 781 c 1,51,52
 826 780 826 780 838.5 779.5 c 128,-1,53
 851 779 851 779 864 779 c 2,54,-1
 926 779 l 1,55,-1
 926 696 l 1,9,10
EndSplineSet
Validated: 1
EndChar

StartChar: guillemotleft
Encoding: 171 171 128
Width: 1099
Flags: W
LayerCount: 2
Fore
SplineSet
949 129 m 1,0,1
 907 93 907 93 840 66 c 1,2,-1
 507 469 l 1,3,-1
 507 583 l 1,4,-1
 846 1017 l 1,5,6
 892 1000 892 1000 921.5 987 c 128,-1,7
 951 974 951 974 965 964 c 1,8,9
 957 941 957 941 939 900.5 c 128,-1,10
 921 860 921 860 894 805 c 128,-1,11
 867 750 867 750 832.5 682.5 c 128,-1,12
 798 615 798 615 758 539 c 1,13,14
 816 416 816 416 863.5 315 c 128,-1,15
 911 214 911 214 949 129 c 1,0,1
575 129 m 1,16,17
 533 93 533 93 466 66 c 1,18,-1
 133 469 l 1,19,-1
 133 583 l 1,20,-1
 472 1017 l 1,21,22
 518 1000 518 1000 547.5 987 c 128,-1,23
 577 974 577 974 591 964 c 1,24,25
 583 941 583 941 565 900.5 c 128,-1,26
 547 860 547 860 520 805 c 128,-1,27
 493 750 493 750 458.5 682.5 c 128,-1,28
 424 615 424 615 384 539 c 1,29,30
 442 416 442 416 489.5 315 c 128,-1,31
 537 214 537 214 575 129 c 1,16,17
EndSplineSet
Validated: 1
EndChar

StartChar: logicalnot
Encoding: 172 172 129
Width: 1341
Flags: W
LayerCount: 2
Fore
SplineSet
1083 231 m 2,0,1
 1021 231 1021 231 986 247 c 128,-1,2
 951 263 951 263 951 307 c 2,3,-1
 951 631 l 1,4,-1
 133 631 l 1,5,-1
 133 710 l 2,6,7
 133 743 133 743 138.5 762.5 c 128,-1,8
 144 782 144 782 157 792 c 128,-1,9
 170 802 170 802 192.5 805 c 128,-1,10
 215 808 215 808 248 808 c 2,11,-1
 1208 808 l 1,12,-1
 1208 231 l 1,13,-1
 1083 231 l 2,0,1
EndSplineSet
Validated: 1
EndChar

StartChar: uni00AD
Encoding: 173 173 130
Width: 635
Flags: W
LayerCount: 2
Fore
SplineSet
784 515 m 2,0,1
 784 495 784 495 773.5 481 c 128,-1,2
 763 467 763 467 744 457 c 128,-1,3
 725 447 725 447 700 440.5 c 128,-1,4
 675 434 675 434 646 429 c 1,5,-1
 51 429 l 1,6,-1
 51 544 l 2,7,8
 51 575 51 575 70 590.5 c 128,-1,9
 89 606 89 606 112.5 612.5 c 128,-1,10
 136 619 136 619 156.5 619.5 c 128,-1,11
 177 620 177 620 181 620 c 0,12,13
 188 621 188 621 199 621 c 128,-1,14
 210 621 210 621 224 621 c 2,15,-1
 784 621 l 1,16,-1
 784 515 l 2,0,1
EndSplineSet
Validated: 1
EndChar

StartChar: registered
Encoding: 174 174 131
Width: 1669
Flags: W
LayerCount: 2
Fore
SplineSet
695 369 m 0,0,1
 675 369 675 369 627 367.5 c 128,-1,2
 579 366 579 366 501 364 c 1,3,-1
 501 450 l 1,4,-1
 582 450 l 1,5,6
 585 462 585 462 585 494 c 2,7,-1
 585 914 l 2,8,9
 585 944 585 944 582 956 c 1,10,-1
 483 956 l 1,11,-1
 483 1037 l 1,12,13
 561 1041 561 1041 641 1043 c 128,-1,14
 721 1045 721 1045 809 1045 c 0,15,16
 874 1045 874 1045 932.5 1037.5 c 128,-1,17
 991 1030 991 1030 1035 1008.5 c 128,-1,18
 1079 987 1079 987 1105 948.5 c 128,-1,19
 1131 910 1131 910 1131 848 c 0,20,21
 1131 813 1131 813 1117.5 784 c 128,-1,22
 1104 755 1104 755 1080.5 733 c 128,-1,23
 1057 711 1057 711 1025.5 696 c 128,-1,24
 994 681 994 681 958 674 c 1,25,26
 1033 647 1033 647 1078 599.5 c 128,-1,27
 1123 552 1123 552 1145 471 c 1,28,-1
 1219 478 l 1,29,-1
 1226 402 l 1,30,31
 1214 391 1214 391 1196.5 382.5 c 128,-1,32
 1179 374 1179 374 1158 367.5 c 128,-1,33
 1137 361 1137 361 1114.5 357.5 c 128,-1,34
 1092 354 1092 354 1070 354 c 0,35,36
 983 354 983 354 958 429 c 1,37,38
 933 498 933 498 905 554.5 c 128,-1,39
 877 611 877 611 845 656 c 1,40,-1
 793 656 l 1,41,-1
 793 494 l 2,42,43
 793 463 793 463 796 450 c 1,44,-1
 863 450 l 1,45,-1
 863 364 l 1,46,-1
 772 368 l 2,47,48
 752 369 752 369 733 369 c 128,-1,49
 714 369 714 369 695 369 c 0,0,1
835 1244 m 0,50,51
 713 1244 713 1244 616 1201 c 128,-1,52
 519 1158 519 1158 451.5 1083.5 c 128,-1,53
 384 1009 384 1009 348 908 c 128,-1,54
 312 807 312 807 312 692 c 0,55,56
 312 572 312 572 349.5 472 c 128,-1,57
 387 372 387 372 456 299.5 c 128,-1,58
 525 227 525 227 621.5 186.5 c 128,-1,59
 718 146 718 146 835 146 c 0,60,61
 969 146 969 146 1069 192 c 128,-1,62
 1169 238 1169 238 1235 314.5 c 128,-1,63
 1301 391 1301 391 1334 489.5 c 128,-1,64
 1367 588 1367 588 1367 692 c 0,65,66
 1367 815 1367 815 1327 916.5 c 128,-1,67
 1287 1018 1287 1018 1216 1090.5 c 128,-1,68
 1145 1163 1145 1163 1047.5 1203.5 c 128,-1,69
 950 1244 950 1244 835 1244 c 0,50,51
835 -22 m 0,70,71
 669 -22 669 -22 535.5 32.5 c 128,-1,72
 402 87 402 87 308 182.5 c 128,-1,73
 214 278 214 278 163.5 408.5 c 128,-1,74
 113 539 113 539 113 691 c 0,75,76
 113 834 113 834 161 964.5 c 128,-1,77
 209 1095 209 1095 301 1194.5 c 128,-1,78
 393 1294 393 1294 527.5 1353 c 128,-1,79
 662 1412 662 1412 835 1412 c 0,80,81
 1007 1412 1007 1412 1141.5 1353.5 c 128,-1,82
 1276 1295 1276 1295 1368 1196 c 128,-1,83
 1460 1097 1460 1097 1508 966.5 c 128,-1,84
 1556 836 1556 836 1556 691 c 0,85,86
 1556 402 1556 402 1376 200 c 0,87,88
 1178 -22 1178 -22 835 -22 c 0,70,71
920 844 m 0,89,90
 920 906 920 906 895 931 c 128,-1,91
 870 956 870 956 808 956 c 2,92,-1
 793 956 l 1,93,-1
 793 726 l 1,94,-1
 818 726 l 2,95,96
 920 726 920 726 920 844 c 0,89,90
EndSplineSet
Validated: 1
EndChar

StartChar: macron
Encoding: 175 175 132
Width: 1188
Flags: W
LayerCount: 2
Fore
SplineSet
215 1345 m 1,0,-1
 973 1345 l 1,1,-1
 973 1176 l 1,2,-1
 215 1176 l 1,3,-1
 215 1345 l 1,0,-1
EndSplineSet
Validated: 1
EndChar

StartChar: degree
Encoding: 176 176 133
Width: 606
Flags: W
LayerCount: 2
Fore
SplineSet
183 1226 m 0,0,1
 183 1172 183 1172 215.5 1141 c 128,-1,2
 248 1110 248 1110 302 1110 c 256,3,4
 356 1110 356 1110 388.5 1141 c 128,-1,5
 421 1172 421 1172 421 1226 c 0,6,7
 421 1277 421 1277 388.5 1308 c 128,-1,8
 356 1339 356 1339 302 1339 c 256,9,10
 248 1339 248 1339 215.5 1308 c 128,-1,11
 183 1277 183 1277 183 1226 c 0,0,1
302 1037 m 256,12,13
 257 1037 257 1037 219.5 1050 c 128,-1,14
 182 1063 182 1063 155 1087.5 c 128,-1,15
 128 1112 128 1112 113 1147 c 128,-1,16
 98 1182 98 1182 98 1226 c 0,17,18
 98 1269 98 1269 113.5 1303 c 128,-1,19
 129 1337 129 1337 156 1361 c 128,-1,20
 183 1385 183 1385 220.5 1398 c 128,-1,21
 258 1411 258 1411 302 1411 c 256,22,23
 346 1411 346 1411 383.5 1398 c 128,-1,24
 421 1385 421 1385 448 1361 c 128,-1,25
 475 1337 475 1337 490.5 1303 c 128,-1,26
 506 1269 506 1269 506 1226 c 256,27,28
 506 1183 506 1183 491 1148 c 128,-1,29
 476 1113 476 1113 449 1088.5 c 128,-1,30
 422 1064 422 1064 384.5 1050.5 c 128,-1,31
 347 1037 347 1037 302 1037 c 256,12,13
EndSplineSet
Validated: 1
EndChar

StartChar: plusminus
Encoding: 177 177 134
Width: 1191
Flags: W
LayerCount: 2
Fore
SplineSet
1058 130 m 2,0,1
 1058 82 1058 82 1022 57 c 128,-1,2
 986 32 986 32 931 32 c 2,3,-1
 133 32 l 1,4,-1
 133 121 l 2,5,6
 133 156 133 156 143 175.5 c 128,-1,7
 153 195 153 195 175 205 c 128,-1,8
 197 215 197 215 232 217 c 128,-1,9
 267 219 267 219 318 219 c 2,10,-1
 1058 219 l 1,11,-1
 1058 130 l 2,0,1
503 1153 m 2,12,13
 582 1153 582 1153 627 1136.5 c 128,-1,14
 672 1120 672 1120 686 1075 c 1,15,-1
 686 857 l 1,16,-1
 955 857 l 1,17,-1
 955 767 l 1,18,19
 952 740 952 740 945.5 721.5 c 128,-1,20
 939 703 939 703 924 691.5 c 128,-1,21
 909 680 909 680 884.5 674.5 c 128,-1,22
 860 669 860 669 821 669 c 2,23,-1
 686 669 l 1,24,-1
 686 371 l 1,25,-1
 571 371 l 1,26,27
 550 372 550 372 528.5 374 c 128,-1,28
 507 376 507 376 488.5 382 c 128,-1,29
 470 388 470 388 457.5 399 c 128,-1,30
 445 410 445 410 444 430 c 1,31,32
 441 451 441 451 441 479 c 2,33,-1
 441 669 l 1,34,-1
 174 669 l 1,35,-1
 174 759 l 2,36,37
 174 795 174 795 186.5 815 c 128,-1,38
 199 835 199 835 221.5 844.5 c 128,-1,39
 244 854 244 854 274 855.5 c 128,-1,40
 304 857 304 857 339 857 c 2,41,-1
 441 857 l 1,42,-1
 441 1153 l 1,43,-1
 503 1153 l 2,12,13
EndSplineSet
Validated: 1
EndChar

StartChar: twosuperior
Encoding: 178 178 135
Width: 877
Flags: W
LayerCount: 2
Fore
SplineSet
516 1178 m 1,0,1
 516 1236 516 1236 493.5 1271.5 c 128,-1,2
 471 1307 471 1307 423 1307 c 0,3,4
 395 1307 395 1307 371 1292.5 c 128,-1,5
 347 1278 347 1278 326.5 1252.5 c 128,-1,6
 306 1227 306 1227 290 1191.5 c 128,-1,7
 274 1156 274 1156 262 1114 c 1,8,-1
 84 1230 l 1,9,10
 84 1269 84 1269 110.5 1302 c 128,-1,11
 137 1335 137 1335 184 1359.5 c 128,-1,12
 231 1384 231 1384 294.5 1398 c 128,-1,13
 358 1412 358 1412 432 1412 c 0,14,15
 511 1412 511 1412 573.5 1397 c 128,-1,16
 636 1382 636 1382 679 1350.5 c 128,-1,17
 722 1319 722 1319 745 1270 c 128,-1,18
 768 1221 768 1221 768 1154 c 0,19,20
 768 1086 768 1086 732 1023 c 128,-1,21
 696 960 696 960 637 901.5 c 128,-1,22
 578 843 578 843 502.5 789 c 128,-1,23
 427 735 427 735 348 685 c 1,24,-1
 536 685 l 2,25,26
 562 685 562 685 610 694 c 1,27,28
 627 722 627 722 645 754 c 128,-1,29
 663 786 663 786 680 823 c 1,30,-1
 793 812 l 1,31,-1
 793 530 l 1,32,33
 751 526 751 526 695 524 c 128,-1,34
 639 522 639 522 561 522 c 2,35,-1
 163 522 l 2,36,37
 114 522 114 522 96.5 539 c 128,-1,38
 79 556 79 556 79 601 c 0,39,40
 79 609 79 609 79.5 618.5 c 128,-1,41
 80 628 80 628 81 639 c 1,42,43
 186 733 186 733 259.5 802.5 c 128,-1,44
 333 872 333 872 381 920.5 c 128,-1,45
 429 969 429 969 455 1000.5 c 128,-1,46
 481 1032 481 1032 490 1051 c 0,47,48
 501 1074 501 1074 508 1107.5 c 128,-1,49
 515 1141 515 1141 516 1178 c 1,0,1
EndSplineSet
Validated: 1
EndChar

StartChar: threesuperior
Encoding: 179 179 136
Width: 856
Flags: W
LayerCount: 2
Fore
SplineSet
80 1245 m 1,0,1
 130 1330 130 1330 208 1371 c 128,-1,2
 286 1412 286 1412 410 1412 c 0,3,4
 475 1412 475 1412 534.5 1399 c 128,-1,5
 594 1386 594 1386 639 1361 c 128,-1,6
 684 1336 684 1336 711 1299 c 128,-1,7
 738 1262 738 1262 738 1214 c 0,8,9
 738 1120 738 1120 686 1070.5 c 128,-1,10
 634 1021 634 1021 540 1002 c 1,11,12
 592 994 592 994 634.5 975 c 128,-1,13
 677 956 677 956 707 925 c 128,-1,14
 737 894 737 894 753.5 852 c 128,-1,15
 770 810 770 810 770 757 c 0,16,17
 770 684 770 684 737 635 c 128,-1,18
 704 586 704 586 652 556.5 c 128,-1,19
 600 527 600 527 536.5 514.5 c 128,-1,20
 473 502 473 502 413 502 c 0,21,22
 255 502 255 502 104 573 c 1,23,-1
 104 794 l 1,24,-1
 236 782 l 1,25,26
 254 704 254 704 287.5 660 c 128,-1,27
 321 616 321 616 385 616 c 0,28,29
 448 616 448 616 480.5 656 c 128,-1,30
 513 696 513 696 513 763 c 0,31,32
 513 925 513 925 339 925 c 2,33,-1
 244 925 l 1,34,-1
 244 1030 l 1,35,-1
 322 1030 l 2,36,37
 376 1030 376 1030 415 1043 c 128,-1,38
 454 1056 454 1056 479.5 1077.5 c 128,-1,39
 505 1099 505 1099 517.5 1126 c 128,-1,40
 530 1153 530 1153 530 1180 c 0,41,42
 530 1234 530 1234 496 1263.5 c 128,-1,43
 462 1293 462 1293 411 1293 c 0,44,45
 384 1293 384 1293 357.5 1283.5 c 128,-1,46
 331 1274 331 1274 307.5 1255 c 128,-1,47
 284 1236 284 1236 266 1207 c 128,-1,48
 248 1178 248 1178 238 1140 c 1,49,-1
 80 1245 l 1,0,1
EndSplineSet
Validated: 1
EndChar

StartChar: acute
Encoding: 180 180 137
Width: 1207
Flags: W
LayerCount: 2
Fore
SplineSet
330 1113 m 1,0,-1
 480 1482 l 1,1,-1
 875 1482 l 1,2,-1
 565 1113 l 1,3,-1
 330 1113 l 1,0,-1
EndSplineSet
Validated: 1
EndChar

StartChar: mu
Encoding: 181 181 138
Width: 1607
Flags: W
LayerCount: 2
Fore
SplineSet
166 950 m 1,0,1
 365 994 365 994 526 994 c 0,2,3
 626 994 626 994 683 970.5 c 128,-1,4
 740 947 740 947 740 899 c 2,5,-1
 740 278 l 1,6,7
 741 258 741 258 743 235.5 c 128,-1,8
 745 213 745 213 751 194 c 128,-1,9
 757 175 757 175 768.5 162.5 c 128,-1,10
 780 150 780 150 801 150 c 256,11,12
 822 150 822 150 845.5 157 c 128,-1,13
 869 164 869 164 892.5 174.5 c 128,-1,14
 916 185 916 185 936 198.5 c 128,-1,15
 956 212 956 212 970 226 c 1,16,17
 973 265 973 265 973.5 302 c 128,-1,18
 974 339 974 339 974 374 c 2,19,-1
 974 824 l 1,20,-1
 841 824 l 1,21,-1
 830 950 l 1,22,23
 1023 994 1023 994 1185 994 c 0,24,25
 1228 994 1228 994 1266 988.5 c 128,-1,26
 1304 983 1304 983 1332.5 971.5 c 128,-1,27
 1361 960 1361 960 1377.5 942 c 128,-1,28
 1394 924 1394 924 1394 899 c 2,29,-1
 1394 272 l 2,30,31
 1394 181 1394 181 1402 147 c 1,32,-1
 1554 147 l 1,33,-1
 1554 35 l 1,34,35
 1352 -11 1352 -11 1181 -11 c 0,36,37
 1134 -11 1134 -11 1097 -7.5 c 128,-1,38
 1060 -4 1060 -4 1034.5 8 c 128,-1,39
 1009 20 1009 20 994.5 44 c 128,-1,40
 980 68 980 68 978 109 c 1,41,42
 831 -6 831 -6 679 -20 c 1,43,-1
 679 -72 l 2,44,45
 679 -167 679 -167 724 -217.5 c 128,-1,46
 769 -268 769 -268 855 -294 c 1,47,48
 857 -324 857 -324 858.5 -340 c 128,-1,49
 860 -356 860 -356 860 -358 c 2,50,-1
 860 -367 l 1,51,52
 737 -454 737 -454 581 -454 c 0,53,54
 457 -454 457 -454 389 -409.5 c 128,-1,55
 321 -365 321 -365 321 -261 c 2,56,-1
 321 824 l 1,57,-1
 179 824 l 1,58,-1
 166 950 l 1,0,1
EndSplineSet
Validated: 1
EndChar

StartChar: paragraph
Encoding: 182 182 139
Width: 1206
Flags: W
LayerCount: 2
Fore
SplineSet
82 1004 m 0,0,1
 82 1084 82 1084 103 1143.5 c 128,-1,2
 124 1203 124 1203 162 1246 c 128,-1,3
 200 1289 200 1289 252.5 1316 c 128,-1,4
 305 1343 305 1343 369 1359 c 128,-1,5
 433 1375 433 1375 505.5 1381 c 128,-1,6
 578 1387 578 1387 655 1387 c 2,7,-1
 797 1387 l 2,8,9
 1038 1387 1038 1387 1124 1372 c 1,10,-1
 1124 1272 l 1,11,-1
 1032 1272 l 2,12,13
 960 1272 960 1272 929 1261 c 1,14,15
 914 1217 914 1217 914 1141 c 2,16,-1
 914 64 l 2,17,18
 914 -13 914 -13 930 -57 c 1,19,20
 958 -66 958 -66 1033 -66 c 2,21,-1
 1122 -66 l 1,22,-1
 1122 -202 l 1,23,24
 1025 -192 1025 -192 939 -187.5 c 128,-1,25
 853 -183 853 -183 774 -183 c 1,26,-1
 774 1311 l 1,27,-1
 620 1311 l 1,28,-1
 620 -183 l 1,29,30
 541 -183 541 -183 455 -187.5 c 128,-1,31
 369 -192 369 -192 272 -202 c 1,32,-1
 272 -66 l 1,33,-1
 361 -66 l 2,34,35
 435 -66 435 -66 464 -57 c 1,36,37
 480 -13 480 -13 480 64 c 2,38,-1
 480 595 l 1,39,40
 280 595 280 595 181 698.5 c 128,-1,41
 82 802 82 802 82 1004 c 0,0,1
EndSplineSet
Validated: 1
EndChar

StartChar: periodcentered
Encoding: 183 183 140
Width: 687
Flags: W
LayerCount: 2
Fore
SplineSet
543 579 m 0,0,1
 543 535 543 535 529 499.5 c 128,-1,2
 515 464 515 464 488.5 439.5 c 128,-1,3
 462 415 462 415 425 401.5 c 128,-1,4
 388 388 388 388 343 388 c 256,5,6
 298 388 298 388 261 401.5 c 128,-1,7
 224 415 224 415 197.5 439.5 c 128,-1,8
 171 464 171 464 157 499.5 c 128,-1,9
 143 535 143 535 143 579 c 0,10,11
 143 621 143 621 158 656 c 128,-1,12
 173 691 173 691 200 715.5 c 128,-1,13
 227 740 227 740 263.5 753.5 c 128,-1,14
 300 767 300 767 343 767 c 0,15,16
 389 767 389 767 426.5 752 c 128,-1,17
 464 737 464 737 489.5 711 c 128,-1,18
 515 685 515 685 529 651 c 128,-1,19
 543 617 543 617 543 579 c 0,0,1
EndSplineSet
Validated: 1
EndChar

StartChar: cedilla
Encoding: 184 184 141
Width: 654
Flags: W
LayerCount: 2
Fore
SplineSet
543 -272 m 0,0,1
 543 -384 543 -384 474.5 -441 c 128,-1,2
 406 -498 406 -498 285 -498 c 0,3,4
 173 -498 173 -498 108 -457 c 1,5,-1
 108 -366 l 1,6,7
 187 -390 187 -390 242 -390 c 0,8,9
 302 -390 302 -390 339 -365 c 128,-1,10
 376 -340 376 -340 376 -291 c 0,11,12
 376 -194 376 -194 276 -178 c 0,13,14
 271 -178 271 -178 239 -186 c 1,15,16
 234 -182 234 -182 224 -178 c 128,-1,17
 214 -174 214 -174 188 -163 c 1,18,-1
 273 11 l 1,19,-1
 374 11 l 1,20,-1
 318 -96 l 1,21,22
 372 -99 372 -99 414 -109.5 c 128,-1,23
 456 -120 456 -120 484.5 -140.5 c 128,-1,24
 513 -161 513 -161 528 -193.5 c 128,-1,25
 543 -226 543 -226 543 -272 c 0,0,1
EndSplineSet
Validated: 1
EndChar

StartChar: onesuperior
Encoding: 185 185 142
Width: 716
Flags: W
LayerCount: 2
Fore
SplineSet
353 1399 m 0,0,1
 397 1399 397 1399 423 1396 c 128,-1,2
 449 1393 449 1393 463 1385.5 c 128,-1,3
 477 1378 477 1378 481 1365 c 128,-1,4
 485 1352 485 1352 485 1333 c 2,5,-1
 485 652 l 2,6,7
 485 645 485 645 485.5 639.5 c 128,-1,8
 486 634 486 634 487 629 c 1,9,-1
 604 629 l 1,10,-1
 604 517 l 1,11,12
 537 521 537 521 476 522.5 c 128,-1,13
 415 524 415 524 358 524 c 0,14,15
 298 524 298 524 233 522.5 c 128,-1,16
 168 521 168 521 96 517 c 1,17,-1
 96 629 l 1,18,-1
 212 629 l 1,19,20
 215 641 215 641 215 686 c 2,21,-1
 215 1276 l 2,22,23
 215 1283 215 1283 215 1288.5 c 128,-1,24
 215 1294 215 1294 214 1299 c 1,25,-1
 107 1299 l 1,26,-1
 107 1371 l 1,27,28
 241 1399 241 1399 353 1399 c 0,0,1
EndSplineSet
Validated: 1
EndChar

StartChar: ordmasculine
Encoding: 186 186 143
Width: 1017
Flags: W
LayerCount: 2
Fore
SplineSet
945 1031 m 0,0,1
 945 933 945 933 908 862.5 c 128,-1,2
 871 792 871 792 810.5 746 c 128,-1,3
 750 700 750 700 671.5 678 c 128,-1,4
 593 656 593 656 509 656 c 0,5,6
 412 656 412 656 331.5 682 c 128,-1,7
 251 708 251 708 193.5 757 c 128,-1,8
 136 806 136 806 104 875.5 c 128,-1,9
 72 945 72 945 72 1031 c 0,10,11
 72 1121 72 1121 105 1192 c 128,-1,12
 138 1263 138 1263 196.5 1312 c 128,-1,13
 255 1361 255 1361 335 1386.5 c 128,-1,14
 415 1412 415 1412 509 1412 c 0,15,16
 604 1412 604 1412 684 1385.5 c 128,-1,17
 764 1359 764 1359 822 1309.5 c 128,-1,18
 880 1260 880 1260 912.5 1189.5 c 128,-1,19
 945 1119 945 1119 945 1031 c 0,0,1
508 1287 m 0,20,21
 470 1287 470 1287 447 1266.5 c 128,-1,22
 424 1246 424 1246 411.5 1211.5 c 128,-1,23
 399 1177 399 1177 395 1130.5 c 128,-1,24
 391 1084 391 1084 391 1032 c 0,25,26
 391 982 391 982 395 936.5 c 128,-1,27
 399 891 399 891 412 856 c 128,-1,28
 425 821 425 821 447.5 800.5 c 128,-1,29
 470 780 470 780 508 780 c 256,30,31
 546 780 546 780 569 800.5 c 128,-1,32
 592 821 592 821 604.5 856 c 128,-1,33
 617 891 617 891 621 936.5 c 128,-1,34
 625 982 625 982 625 1032 c 0,35,36
 625 1084 625 1084 620.5 1130 c 128,-1,37
 616 1176 616 1176 603 1211 c 128,-1,38
 590 1246 590 1246 567.5 1266.5 c 128,-1,39
 545 1287 545 1287 508 1287 c 0,20,21
EndSplineSet
Validated: 1
EndChar

StartChar: guillemotright
Encoding: 187 187 144
Width: 1098
Flags: W
LayerCount: 2
Fore
SplineSet
133 964 m 1,0,1
 147 974 147 974 176.5 987 c 128,-1,2
 206 1000 206 1000 252 1017 c 1,3,-1
 590 583 l 1,4,-1
 590 469 l 1,5,-1
 258 66 l 1,6,7
 194 90 194 90 149 129 c 1,8,9
 187 214 187 214 234.5 315 c 128,-1,10
 282 416 282 416 340 539 c 1,11,12
 249 711 249 711 198 815 c 128,-1,13
 147 919 147 919 133 964 c 1,0,1
507 964 m 1,14,15
 521 974 521 974 550.5 987 c 128,-1,16
 580 1000 580 1000 626 1017 c 1,17,-1
 964 583 l 1,18,-1
 964 469 l 1,19,-1
 632 66 l 1,20,21
 568 90 568 90 523 129 c 1,22,23
 561 214 561 214 608.5 315 c 128,-1,24
 656 416 656 416 714 539 c 1,25,26
 623 711 623 711 572 815 c 128,-1,27
 521 919 521 919 507 964 c 1,14,15
EndSplineSet
Validated: 1
EndChar

StartChar: onequarter
Encoding: 188 188 145
Width: 2065
Flags: W
LayerCount: 2
Fore
SplineSet
1096 1331 m 2,0,1
 1103 1346 1103 1346 1111 1361 c 128,-1,2
 1119 1376 1119 1376 1131 1387 c 128,-1,3
 1143 1398 1143 1398 1160.5 1405 c 128,-1,4
 1178 1412 1178 1412 1204 1412 c 2,5,-1
 1377 1412 l 1,6,-1
 747 48 l 2,7,8
 730 12 730 12 706.5 -5 c 128,-1,9
 683 -22 683 -22 642 -22 c 2,10,-1
 471 -22 l 1,11,-1
 1096 1331 l 2,0,1
1577 364 m 1,12,-1
 1577 689 l 1,13,-1
 1374 364 l 1,14,-1
 1577 364 l 1,12,-1
1573 117 m 1,15,16
 1575 127 1575 127 1576 143 c 128,-1,17
 1577 159 1577 159 1577 181 c 2,18,-1
 1577 244 l 1,19,-1
 1238 244 l 1,20,-1
 1205 300 l 1,21,22
 1196 318 1196 318 1185.5 351.5 c 128,-1,23
 1175 385 1175 385 1175 418 c 1,24,-1
 1553 972 l 1,25,-1
 1728 972 l 2,26,27
 1750 972 1750 972 1771 971 c 128,-1,28
 1792 970 1792 970 1809 963.5 c 128,-1,29
 1826 957 1826 957 1836.5 943 c 128,-1,30
 1847 929 1847 929 1847 903 c 2,31,-1
 1847 364 l 1,32,-1
 2026 364 l 1,33,-1
 2026 311 l 2,34,35
 2026 286 2026 286 2017.5 272.5 c 128,-1,36
 2009 259 2009 259 1994 252.5 c 128,-1,37
 1979 246 1979 246 1959 245 c 128,-1,38
 1939 244 1939 244 1917 244 c 2,39,-1
 1847 244 l 1,40,-1
 1847 181 l 2,41,42
 1847 159 1847 159 1848 143 c 128,-1,43
 1849 127 1849 127 1851 117 c 1,44,-1
 1982 117 l 1,45,-1
 1982 -8 l 1,46,47
 1901 -4 1901 -4 1836 -2 c 128,-1,48
 1771 0 1771 0 1720 0 c 256,49,50
 1669 0 1669 0 1597 -2 c 128,-1,51
 1525 -4 1525 -4 1428 -8 c 1,52,-1
 1428 117 l 1,53,-1
 1573 117 l 1,15,16
268 1399 m 0,54,55
 312 1399 312 1399 338 1396 c 128,-1,56
 364 1393 364 1393 378 1385.5 c 128,-1,57
 392 1378 392 1378 396 1365 c 128,-1,58
 400 1352 400 1352 400 1333 c 2,59,-1
 400 652 l 2,60,61
 400 645 400 645 400.5 639.5 c 128,-1,62
 401 634 401 634 402 629 c 1,63,-1
 519 629 l 1,64,-1
 519 517 l 1,65,66
 452 521 452 521 391 522.5 c 128,-1,67
 330 524 330 524 273 524 c 0,68,69
 213 524 213 524 148 522.5 c 128,-1,70
 83 521 83 521 11 517 c 1,71,-1
 11 629 l 1,72,-1
 127 629 l 1,73,74
 130 641 130 641 130 686 c 2,75,-1
 130 1276 l 2,76,77
 130 1283 130 1283 130 1288.5 c 128,-1,78
 130 1294 130 1294 129 1299 c 1,79,-1
 22 1299 l 1,80,-1
 22 1371 l 1,81,82
 156 1399 156 1399 268 1399 c 0,54,55
EndSplineSet
Validated: 1
EndChar

StartChar: onehalf
Encoding: 189 189 146
Width: 2034
Flags: W
LayerCount: 2
Fore
SplineSet
1096 1331 m 2,0,1
 1103 1346 1103 1346 1111 1361 c 128,-1,2
 1119 1376 1119 1376 1131 1387 c 128,-1,3
 1143 1398 1143 1398 1160.5 1405 c 128,-1,4
 1178 1412 1178 1412 1204 1412 c 2,5,-1
 1377 1412 l 1,6,-1
 747 48 l 2,7,8
 730 12 730 12 706.5 -5 c 128,-1,9
 683 -22 683 -22 642 -22 c 2,10,-1
 471 -22 l 1,11,-1
 1096 1331 l 2,0,1
1702 656 m 1,12,13
 1702 714 1702 714 1679.5 749.5 c 128,-1,14
 1657 785 1657 785 1609 785 c 0,15,16
 1581 785 1581 785 1557 770.5 c 128,-1,17
 1533 756 1533 756 1512.5 730.5 c 128,-1,18
 1492 705 1492 705 1476 669.5 c 128,-1,19
 1460 634 1460 634 1448 592 c 1,20,-1
 1270 708 l 1,21,22
 1270 747 1270 747 1296.5 780 c 128,-1,23
 1323 813 1323 813 1370 837.5 c 128,-1,24
 1417 862 1417 862 1480.5 876 c 128,-1,25
 1544 890 1544 890 1618 890 c 0,26,27
 1697 890 1697 890 1759.5 875 c 128,-1,28
 1822 860 1822 860 1865 828.5 c 128,-1,29
 1908 797 1908 797 1931 748 c 128,-1,30
 1954 699 1954 699 1954 632 c 0,31,32
 1954 564 1954 564 1918 501 c 128,-1,33
 1882 438 1882 438 1823 379.5 c 128,-1,34
 1764 321 1764 321 1688.5 267 c 128,-1,35
 1613 213 1613 213 1534 163 c 1,36,-1
 1722 163 l 2,37,38
 1748 163 1748 163 1796 172 c 1,39,40
 1813 200 1813 200 1831 232 c 128,-1,41
 1849 264 1849 264 1866 301 c 1,42,-1
 1979 290 l 1,43,-1
 1979 8 l 1,44,45
 1937 4 1937 4 1881 2 c 128,-1,46
 1825 0 1825 0 1747 0 c 2,47,-1
 1349 0 l 2,48,49
 1302 0 1302 0 1283.5 16 c 128,-1,50
 1265 32 1265 32 1265 79 c 0,51,52
 1265 87 1265 87 1265.5 96.5 c 128,-1,53
 1266 106 1266 106 1267 117 c 1,54,55
 1372 211 1372 211 1445.5 280.5 c 128,-1,56
 1519 350 1519 350 1567 398.5 c 128,-1,57
 1615 447 1615 447 1641 478.5 c 128,-1,58
 1667 510 1667 510 1676 529 c 0,59,60
 1687 552 1687 552 1694 585.5 c 128,-1,61
 1701 619 1701 619 1702 656 c 1,12,13
268 1399 m 0,62,63
 312 1399 312 1399 338 1396 c 128,-1,64
 364 1393 364 1393 378 1385.5 c 128,-1,65
 392 1378 392 1378 396 1365 c 128,-1,66
 400 1352 400 1352 400 1333 c 2,67,-1
 400 652 l 2,68,69
 400 645 400 645 400.5 639.5 c 128,-1,70
 401 634 401 634 402 629 c 1,71,-1
 519 629 l 1,72,-1
 519 517 l 1,73,74
 452 521 452 521 391 522.5 c 128,-1,75
 330 524 330 524 273 524 c 0,76,77
 213 524 213 524 148 522.5 c 128,-1,78
 83 521 83 521 11 517 c 1,79,-1
 11 629 l 1,80,-1
 127 629 l 1,81,82
 130 641 130 641 130 686 c 2,83,-1
 130 1276 l 2,84,85
 130 1283 130 1283 130 1288.5 c 128,-1,86
 130 1294 130 1294 129 1299 c 1,87,-1
 22 1299 l 1,88,-1
 22 1371 l 1,89,90
 156 1399 156 1399 268 1399 c 0,62,63
EndSplineSet
Validated: 1
EndChar

StartChar: threequarters
Encoding: 190 190 147
Width: 2197
Flags: W
LayerCount: 2
Fore
SplineSet
1263 1331 m 2,0,1
 1270 1346 1270 1346 1278 1361 c 128,-1,2
 1286 1376 1286 1376 1298 1387 c 128,-1,3
 1310 1398 1310 1398 1327.5 1405 c 128,-1,4
 1345 1412 1345 1412 1371 1412 c 2,5,-1
 1544 1412 l 1,6,-1
 914 48 l 2,7,8
 897 12 897 12 873.5 -5 c 128,-1,9
 850 -22 850 -22 809 -22 c 2,10,-1
 638 -22 l 1,11,-1
 1263 1331 l 2,0,1
530 1200 m 0,12,13
 530 1245 530 1245 496 1269 c 128,-1,14
 462 1293 462 1293 411 1293 c 0,15,16
 384 1293 384 1293 357.5 1283.5 c 128,-1,17
 331 1274 331 1274 307.5 1255 c 128,-1,18
 284 1236 284 1236 266 1207 c 128,-1,19
 248 1178 248 1178 238 1140 c 1,20,-1
 80 1245 l 1,21,22
 130 1330 130 1330 208 1371 c 128,-1,23
 286 1412 286 1412 410 1412 c 0,24,25
 475 1412 475 1412 534.5 1399 c 128,-1,26
 594 1386 594 1386 639 1361 c 128,-1,27
 684 1336 684 1336 711 1299 c 128,-1,28
 738 1262 738 1262 738 1214 c 0,29,30
 738 1120 738 1120 686 1070.5 c 128,-1,31
 634 1021 634 1021 540 1002 c 1,32,33
 592 994 592 994 634.5 975 c 128,-1,34
 677 956 677 956 707 925 c 128,-1,35
 737 894 737 894 753.5 852 c 128,-1,36
 770 810 770 810 770 757 c 0,37,38
 770 684 770 684 737 635 c 128,-1,39
 704 586 704 586 652 556.5 c 128,-1,40
 600 527 600 527 536.5 514.5 c 128,-1,41
 473 502 473 502 413 502 c 0,42,43
 255 502 255 502 104 573 c 1,44,-1
 104 794 l 1,45,-1
 236 782 l 1,46,47
 254 704 254 704 287.5 660 c 128,-1,48
 321 616 321 616 385 616 c 0,49,50
 448 616 448 616 480.5 656 c 128,-1,51
 513 696 513 696 513 763 c 0,52,53
 513 925 513 925 339 925 c 2,54,-1
 244 925 l 1,55,-1
 250 1014 l 1,56,-1
 322 1032 l 1,57,58
 361 1038 361 1038 398.5 1053.5 c 128,-1,59
 436 1069 436 1069 465 1091 c 128,-1,60
 494 1113 494 1113 512 1141 c 128,-1,61
 530 1169 530 1169 530 1200 c 0,12,13
1695 364 m 1,62,-1
 1695 619 l 1,63,-1
 1527 364 l 1,64,-1
 1695 364 l 1,62,-1
1691 117 m 1,65,66
 1693 127 1693 127 1694 143 c 128,-1,67
 1695 159 1695 159 1695 181 c 2,68,-1
 1695 244 l 1,69,-1
 1370 244 l 1,70,-1
 1337 300 l 1,71,72
 1328 318 1328 318 1317.5 351.5 c 128,-1,73
 1307 385 1307 385 1307 418 c 1,74,-1
 1685 972 l 1,75,-1
 1860 972 l 2,76,77
 1882 972 1882 972 1903 971 c 128,-1,78
 1924 970 1924 970 1941 963.5 c 128,-1,79
 1958 957 1958 957 1968.5 943 c 128,-1,80
 1979 929 1979 929 1979 903 c 2,81,-1
 1979 364 l 1,82,-1
 2158 364 l 1,83,-1
 2158 311 l 2,84,85
 2158 286 2158 286 2149.5 272.5 c 128,-1,86
 2141 259 2141 259 2126 252.5 c 128,-1,87
 2111 246 2111 246 2091 245 c 128,-1,88
 2071 244 2071 244 2049 244 c 2,89,-1
 1979 244 l 1,90,-1
 1979 181 l 2,91,92
 1979 159 1979 159 1980 143 c 128,-1,93
 1981 127 1981 127 1983 117 c 1,94,-1
 2114 117 l 1,95,-1
 2114 -8 l 1,96,97
 2033 -4 2033 -4 1968 -2 c 128,-1,98
 1903 0 1903 0 1852 0 c 256,99,100
 1801 0 1801 0 1729 -2 c 128,-1,101
 1657 -4 1657 -4 1560 -8 c 1,102,-1
 1560 117 l 1,103,-1
 1691 117 l 1,65,66
EndSplineSet
Validated: 1
EndChar

StartChar: AE
Encoding: 198 198 155
Width: 2173
Flags: W
LayerCount: 2
Fore
SplineSet
1310 0 m 2,0,1
 1276 0 1276 0 1226.5 -1.5 c 128,-1,2
 1177 -3 1177 -3 1110 -5 c 2,3,-1
 949 -11 l 1,4,-1
 949 113 l 1,5,-1
 1017 122 l 2,6,7
 1043 125 1043 125 1043 146 c 0,8,9
 1043 152 1043 152 1037 173 c 2,10,-1
 967 390 l 1,11,-1
 631 390 l 1,12,-1
 591 256 l 2,13,14
 583 229 583 229 580 208.5 c 128,-1,15
 577 188 577 188 577 177 c 0,16,17
 577 159 577 159 586 148 c 128,-1,18
 595 137 595 137 609.5 131 c 128,-1,19
 624 125 624 125 641 122.5 c 128,-1,20
 658 120 658 120 674 118 c 1,21,-1
 649 -11 l 1,22,23
 594 -6 594 -6 518 -3 c 128,-1,24
 442 0 442 0 342 0 c 0,25,26
 221 0 221 0 136 -3 c 128,-1,27
 51 -6 51 -6 0 -11 c 1,28,-1
 37 122 l 1,29,-1
 63 126 l 2,30,31
 112 133 112 133 138 149 c 128,-1,32
 164 165 164 165 179 201 c 2,33,-1
 201 255 l 2,34,35
 268 421 268 421 376.5 705 c 128,-1,36
 485 989 485 989 644 1387 c 1,37,-1
 1683 1387 l 1,38,-1
 1855 1066 l 1,39,-1
 1643 1038 l 1,40,41
 1623 1077 1623 1077 1599.5 1113.5 c 128,-1,42
 1576 1150 1576 1150 1548 1185 c 1,43,44
 1411 1203 1411 1203 1329 1203 c 2,45,-1
 1112 1203 l 1,46,-1
 1268 777 l 1,47,-1
 1441 777 l 2,48,49
 1458 777 1458 777 1463.5 787.5 c 128,-1,50
 1469 798 1469 798 1469 822 c 0,51,52
 1469 855 1469 855 1460 911 c 1,53,-1
 1611 911 l 1,54,-1
 1770 476 l 1,55,56
 1756 475 1756 475 1742 475 c 128,-1,57
 1728 475 1728 475 1714 475 c 2,58,-1
 1619 475 l 1,59,60
 1577 548 1577 548 1551 583.5 c 128,-1,61
 1525 619 1525 619 1498 619 c 2,62,-1
 1325 619 l 1,63,-1
 1490 167 l 1,64,-1
 1770 167 l 2,65,66
 1852 167 1852 167 1887 180 c 1,67,68
 1886 219 1886 219 1879.5 247.5 c 128,-1,69
 1873 276 1873 276 1864 314 c 2,70,-1
 1853 361 l 1,71,72
 1922 359 1922 359 1988 359 c 128,-1,73
 2054 359 2054 359 2120 359 c 1,74,75
 2148 280 2148 280 2176 194 c 128,-1,76
 2204 108 2204 108 2233 14 c 1,77,78
 2003 -1 2003 -1 1835 -1 c 2,79,-1
 1310 0 l 2,0,1
661 543 m 1,80,-1
 924 543 l 1,81,-1
 776 949 l 1,82,-1
 661 543 l 1,80,-1
EndSplineSet
Validated: 1
EndChar

StartChar: Eth
Encoding: 208 208 165
Width: 1711
Flags: W
LayerCount: 2
Fore
SplineSet
934 787 m 1,0,-1
 934 708 l 2,1,2
 934 695 934 695 928 680 c 128,-1,3
 922 665 922 665 908.5 652 c 128,-1,4
 895 639 895 639 871.5 630.5 c 128,-1,5
 848 622 848 622 814 622 c 2,6,-1
 58 622 l 1,7,-1
 58 701 l 2,8,9
 58 727 58 727 67.5 744 c 128,-1,10
 77 761 77 761 93 770.5 c 128,-1,11
 109 780 109 780 129.5 783.5 c 128,-1,12
 150 787 150 787 173 787 c 2,13,-1
 934 787 l 1,0,-1
820 1387 m 0,14,15
 1011 1387 1011 1387 1156.5 1345.5 c 128,-1,16
 1302 1304 1302 1304 1400 1218 c 128,-1,17
 1498 1132 1498 1132 1548 999 c 128,-1,18
 1598 866 1598 866 1598 682 c 0,19,20
 1598 500 1598 500 1540 371 c 128,-1,21
 1482 242 1482 242 1376 159.5 c 128,-1,22
 1270 77 1270 77 1122 38.5 c 128,-1,23
 974 0 974 0 793 0 c 2,24,-1
 65 0 l 1,25,-1
 65 151 l 1,26,-1
 255 151 l 1,27,28
 255 151 255 151 256 161.5 c 128,-1,29
 257 172 257 172 258 189.5 c 128,-1,30
 259 207 259 207 260 230 c 128,-1,31
 261 253 261 253 261 278 c 2,32,-1
 261 1093 l 2,33,34
 261 1161 261 1161 252 1206 c 1,35,-1
 57 1206 l 1,36,-1
 57 1366 l 1,37,38
 396 1387 396 1387 820 1387 c 0,14,15
1147 689 m 0,39,40
 1147 808 1147 808 1132.5 904.5 c 128,-1,41
 1118 1001 1118 1001 1078 1069 c 128,-1,42
 1038 1137 1038 1137 967.5 1174 c 128,-1,43
 897 1211 897 1211 785 1211 c 0,44,45
 781 1211 781 1211 775.5 1211 c 128,-1,46
 770 1211 770 1211 759.5 1210.5 c 128,-1,47
 749 1210 749 1210 732.5 1210 c 128,-1,48
 716 1210 716 1210 690 1210 c 1,49,-1
 690 171 l 1,50,51
 699 170 699 170 707.5 170 c 128,-1,52
 716 170 716 170 724 170 c 0,53,54
 848 170 848 170 929.5 206 c 128,-1,55
 1011 242 1011 242 1059.5 309.5 c 128,-1,56
 1108 377 1108 377 1127.5 473 c 128,-1,57
 1147 569 1147 569 1147 689 c 0,39,40
EndSplineSet
Validated: 5
EndChar

StartChar: multiply
Encoding: 215 215 172
Width: 1358
Flags: W
LayerCount: 2
Fore
SplineSet
348 1143 m 1,0,-1
 678 810 l 1,1,-1
 1008 1143 l 1,2,-1
 1190 957 l 1,3,-1
 860 627 l 1,4,-1
 1190 295 l 1,5,-1
 1006 115 l 1,6,-1
 678 444 l 1,7,-1
 350 115 l 1,8,-1
 166 295 l 1,9,-1
 495 627 l 1,10,-1
 166 957 l 1,11,-1
 348 1143 l 1,0,-1
EndSplineSet
Validated: 1
EndChar

StartChar: Oslash
Encoding: 216 216 173
Width: 1687
Flags: W
LayerCount: 2
Fore
SplineSet
1242 1482 m 1,0,-1
 618 -55 l 2,1,2
 603 -91 603 -91 543 -91 c 2,3,-1
 469 -91 l 1,4,-1
 1090 1437 l 1,5,6
 1098 1462 1098 1462 1115.5 1472 c 128,-1,7
 1133 1482 1133 1482 1167 1482 c 2,8,-1
 1242 1482 l 1,0,-1
565 686 m 0,9,10
 565 434 565 434 634.5 300.5 c 128,-1,11
 704 167 704 167 844 167 c 0,12,13
 977 167 977 167 1050 295.5 c 128,-1,14
 1123 424 1123 424 1123 689 c 0,15,16
 1123 955 1123 955 1051 1089 c 128,-1,17
 979 1223 979 1223 844 1223 c 0,18,19
 712 1223 712 1223 638.5 1090 c 128,-1,20
 565 957 565 957 565 686 c 0,9,10
1574 689 m 0,21,22
 1574 520 1574 520 1523 388 c 128,-1,23
 1472 256 1472 256 1377 165 c 128,-1,24
 1282 74 1282 74 1147 26 c 128,-1,25
 1012 -22 1012 -22 844 -22 c 0,26,27
 672 -22 672 -22 536.5 27.5 c 128,-1,28
 401 77 401 77 307 169 c 128,-1,29
 213 261 213 261 163 392.5 c 128,-1,30
 113 524 113 524 113 689 c 0,31,32
 113 861 113 861 163.5 995.5 c 128,-1,33
 214 1130 214 1130 308.5 1222.5 c 128,-1,34
 403 1315 403 1315 538.5 1363.5 c 128,-1,35
 674 1412 674 1412 844 1412 c 0,36,37
 1016 1412 1016 1412 1151.5 1362 c 128,-1,38
 1287 1312 1287 1312 1381 1218.5 c 128,-1,39
 1475 1125 1475 1125 1524.5 991 c 128,-1,40
 1574 857 1574 857 1574 689 c 0,21,22
EndSplineSet
Validated: 5
EndChar

StartChar: Thorn
Encoding: 222 222 179
Width: 1307
Flags: W
LayerCount: 2
Fore
SplineSet
1361 718 m 1,0,1
 1361 291 1361 291 712 291 c 0,2,3
 707 291 707 291 696.5 291.5 c 128,-1,4
 686 292 686 292 680 293 c 1,5,-1
 680 194 l 2,6,7
 680 176 680 176 682 164 c 128,-1,8
 684 152 684 152 686 147 c 1,9,-1
 874 147 l 1,10,-1
 874 10 l 1,11,12
 783 -3 783 -3 677.5 -9.5 c 128,-1,13
 572 -16 572 -16 446 -16 c 0,14,15
 355 -16 355 -16 259 -8.5 c 128,-1,16
 163 -1 163 -1 57 15 c 1,17,-1
 57 147 l 1,18,-1
 243 147 l 1,19,20
 249 174 249 174 249 239 c 2,21,-1
 249 1143 l 2,22,23
 249 1172 249 1172 247.5 1195 c 128,-1,24
 246 1218 246 1218 244 1235 c 1,25,-1
 57 1235 l 1,26,-1
 57 1367 l 1,27,28
 175 1383 175 1383 277 1391 c 128,-1,29
 379 1399 379 1399 476 1399 c 0,30,31
 593 1399 593 1399 692.5 1392.5 c 128,-1,32
 792 1386 792 1386 874 1373 c 1,33,-1
 874 1235 l 1,34,-1
 687 1235 l 1,35,36
 684 1222 684 1222 682.5 1196 c 128,-1,37
 681 1170 681 1170 681 1144 c 1,38,-1
 756 1144 l 2,39,40
 883 1144 883 1144 993 1124.5 c 128,-1,41
 1103 1105 1103 1105 1184 1056 c 128,-1,42
 1265 1007 1265 1007 1312 925 c 128,-1,43
 1359 843 1359 843 1361 718 c 1,0,1
924 717 m 0,44,45
 924 780 924 780 913 827.5 c 128,-1,46
 902 875 902 875 877 906.5 c 128,-1,47
 852 938 852 938 812 954 c 128,-1,48
 772 970 772 970 715 970 c 2,49,-1
 679 970 l 1,50,-1
 679 468 l 1,51,52
 684 467 684 467 688 467 c 128,-1,53
 692 467 692 467 697 467 c 2,54,-1
 716 467 l 2,55,56
 827 467 827 467 875.5 531.5 c 128,-1,57
 924 596 924 596 924 717 c 0,44,45
EndSplineSet
Validated: 1
EndChar

StartChar: germandbls
Encoding: 223 223 180
Width: 1474
Flags: W
LayerCount: 2
Fore
SplineSet
794 1271 m 0,0,1
 735 1271 735 1271 699.5 1244 c 128,-1,2
 664 1217 664 1217 645 1172 c 128,-1,3
 626 1127 626 1127 620 1069 c 128,-1,4
 614 1011 614 1011 614 949 c 2,5,-1
 614 0 l 1,6,-1
 556 0 l 2,7,8
 444 0 444 0 306.5 -3 c 128,-1,9
 169 -6 169 -6 2 -11 c 1,10,-1
 2 167 l 1,11,-1
 188 167 l 1,12,13
 194 194 194 194 194 259 c 2,14,-1
 194 846 l 1,15,-1
 43 846 l 1,16,17
 43 906 43 906 63.5 931 c 128,-1,18
 84 956 84 956 139 956 c 2,19,-1
 194 956 l 1,20,21
 199 1069 199 1069 242.5 1154.5 c 128,-1,22
 286 1240 286 1240 360.5 1297 c 128,-1,23
 435 1354 435 1354 535.5 1383 c 128,-1,24
 636 1412 636 1412 755 1412 c 0,25,26
 886 1412 886 1412 988.5 1389.5 c 128,-1,27
 1091 1367 1091 1367 1161.5 1322 c 128,-1,28
 1232 1277 1232 1277 1269 1209.5 c 128,-1,29
 1306 1142 1306 1142 1306 1052 c 0,30,31
 1306 1019 1306 1019 1301 993 c 128,-1,32
 1296 967 1296 967 1285 944 c 128,-1,33
 1274 921 1274 921 1257.5 897.5 c 128,-1,34
 1241 874 1241 874 1217 844 c 1,35,36
 1157 867 1157 867 1101 867 c 0,37,38
 1050 867 1050 867 1019 844 c 128,-1,39
 988 821 988 821 988 776 c 0,40,41
 988 740 988 740 999.5 716.5 c 128,-1,42
 1011 693 1011 693 1032 677 c 128,-1,43
 1053 661 1053 661 1083 650 c 128,-1,44
 1113 639 1113 639 1149 629 c 2,45,-1
 1164 625 l 2,46,47
 1230 607 1230 607 1285.5 582 c 128,-1,48
 1341 557 1341 557 1381 520.5 c 128,-1,49
 1421 484 1421 484 1443.5 433 c 128,-1,50
 1466 382 1466 382 1466 313 c 0,51,52
 1466 223 1466 223 1426.5 159.5 c 128,-1,53
 1387 96 1387 96 1324.5 55.5 c 128,-1,54
 1262 15 1262 15 1185 -3.5 c 128,-1,55
 1108 -22 1108 -22 1033 -22 c 0,56,57
 967 -22 967 -22 884 -11.5 c 128,-1,58
 801 -1 801 -1 699 19 c 1,59,-1
 739 305 l 1,60,-1
 874 253 l 1,61,62
 883 201 883 201 915.5 168 c 128,-1,63
 948 135 948 135 997 135 c 0,64,65
 1051 135 1051 135 1082 173.5 c 128,-1,66
 1113 212 1113 212 1113 270 c 0,67,68
 1113 293 1113 293 1103.5 312.5 c 128,-1,69
 1094 332 1094 332 1073.5 352 c 128,-1,70
 1053 372 1053 372 1021.5 393.5 c 128,-1,71
 990 415 990 415 946 443 c 0,72,73
 878 486 878 486 832 522.5 c 128,-1,74
 786 559 786 559 758 595 c 128,-1,75
 730 631 730 631 718 670 c 128,-1,76
 706 709 706 709 706 759 c 0,77,78
 706 819 706 819 718.5 859.5 c 128,-1,79
 731 900 731 900 755 926 c 128,-1,80
 779 952 779 952 815.5 967.5 c 128,-1,81
 852 983 852 983 900 993 c 1,82,83
 924 1013 924 1013 940.5 1049.5 c 128,-1,84
 957 1086 957 1086 957 1128 c 0,85,86
 957 1198 957 1198 913.5 1234.5 c 128,-1,87
 870 1271 870 1271 794 1271 c 0,0,1
EndSplineSet
Validated: 1
EndChar

StartChar: ae
Encoding: 230 230 187
Width: 1792
Flags: W
LayerCount: 2
Fore
SplineSet
1423 169 m 0,0,1
 1548 169 1548 169 1703 245 c 1,2,-1
 1721 95 l 1,3,4
 1557 -22 1557 -22 1297 -22 c 0,5,6
 1046 -22 1046 -22 885 94 c 1,7,8
 838 70 838 70 787.5 49 c 128,-1,9
 737 28 737 28 685 12 c 128,-1,10
 633 -4 633 -4 581 -13 c 128,-1,11
 529 -22 529 -22 480 -22 c 0,12,13
 395 -22 395 -22 324 -3 c 128,-1,14
 253 16 253 16 201.5 53 c 128,-1,15
 150 90 150 90 121 145.5 c 128,-1,16
 92 201 92 201 92 274 c 0,17,18
 92 428 92 428 237 505.5 c 128,-1,19
 382 583 382 583 678 583 c 2,20,-1
 698 583 l 1,21,-1
 698 617 l 2,22,23
 698 742 698 742 686.5 798.5 c 128,-1,24
 675 855 675 855 646 855 c 0,25,26
 588 855 588 855 514 795.5 c 128,-1,27
 440 736 440 736 359 631 c 1,28,-1
 118 785 l 1,29,30
 118 835 118 835 162.5 875.5 c 128,-1,31
 207 916 207 916 277.5 945 c 128,-1,32
 348 974 348 974 435 989.5 c 128,-1,33
 522 1005 522 1005 607 1005 c 0,34,35
 840 1005 840 1005 965 900 c 1,36,37
 1107 1005 1107 1005 1301 1005 c 0,38,39
 1404 1005 1404 1005 1490 978 c 128,-1,40
 1576 951 1576 951 1638.5 901 c 128,-1,41
 1701 851 1701 851 1736 778.5 c 128,-1,42
 1771 706 1771 706 1771 615 c 0,43,44
 1771 561 1771 561 1758.5 527 c 128,-1,45
 1746 493 1746 493 1718 474 c 128,-1,46
 1690 455 1690 455 1646.5 448.5 c 128,-1,47
 1603 442 1603 442 1540 442 c 2,48,-1
 1127 442 l 1,49,50
 1150 316 1150 316 1223 242.5 c 128,-1,51
 1296 169 1296 169 1423 169 c 0,0,1
668 464 m 2,52,53
 590 464 590 464 546.5 414 c 128,-1,54
 503 364 503 364 503 282 c 0,55,56
 503 138 503 138 617 138 c 0,57,58
 685 138 685 138 802 173 c 1,59,60
 709 287 709 287 699 460 c 1,61,-1
 698 464 l 1,62,-1
 668 464 l 2,52,53
1380 590 m 1,63,-1
 1380 608 l 2,64,65
 1380 659 1380 659 1372 702.5 c 128,-1,66
 1364 746 1364 746 1349 777.5 c 128,-1,67
 1334 809 1334 809 1311.5 827 c 128,-1,68
 1289 845 1289 845 1261 845 c 0,69,70
 1150 845 1150 845 1126 590 c 1,71,-1
 1380 590 l 1,63,-1
EndSplineSet
Validated: 1
EndChar

StartChar: eth
Encoding: 240 240 197
Width: 1253
Flags: W
LayerCount: 2
Fore
SplineSet
521 1268 m 1,0,1
 401 1327 401 1327 239 1351 c 1,2,-1
 314 1481 l 1,3,4
 611 1457 611 1457 746 1400 c 1,5,-1
 1007 1555 l 1,6,-1
 1132 1406 l 1,7,8
 1067 1370 1067 1370 1015.5 1339.5 c 128,-1,9
 964 1309 964 1309 931 1291 c 1,10,11
 1234 1036 1234 1036 1234 600 c 0,12,13
 1234 455 1234 455 1194.5 339 c 128,-1,14
 1155 223 1155 223 1080 142 c 128,-1,15
 1005 61 1005 61 896 17.5 c 128,-1,16
 787 -26 787 -26 649 -26 c 0,17,18
 520 -26 520 -26 414.5 10 c 128,-1,19
 309 46 309 46 234 112.5 c 128,-1,20
 159 179 159 179 117.5 274 c 128,-1,21
 76 369 76 369 76 487 c 0,22,23
 76 573 76 573 98.5 643.5 c 128,-1,24
 121 714 121 714 161 769 c 128,-1,25
 201 824 201 824 255 864 c 128,-1,26
 309 904 309 904 373 930.5 c 128,-1,27
 437 957 437 957 507 969.5 c 128,-1,28
 577 982 577 982 649 982 c 0,29,30
 684 982 684 982 713.5 980.5 c 128,-1,31
 743 979 743 979 766 975 c 1,32,33
 728 1085 728 1085 681 1141 c 1,34,-1
 442 1001 l 1,35,-1
 322 1154 l 1,36,-1
 521 1268 l 1,0,1
669 131 m 0,37,38
 704 131 704 131 730 159 c 128,-1,39
 756 187 756 187 773.5 239 c 128,-1,40
 791 291 791 291 799.5 364.5 c 128,-1,41
 808 438 808 438 808 530 c 0,42,43
 808 595 808 595 806 650 c 128,-1,44
 804 705 804 705 796 753 c 1,45,46
 771 796 771 796 730 812.5 c 128,-1,47
 689 829 689 829 649 829 c 0,48,49
 580 829 580 829 545 742.5 c 128,-1,50
 510 656 510 656 510 489 c 0,51,52
 510 395 510 395 517.5 327 c 128,-1,53
 525 259 525 259 543.5 215.5 c 128,-1,54
 562 172 562 172 592.5 151.5 c 128,-1,55
 623 131 623 131 669 131 c 0,37,38
EndSplineSet
Validated: 1
EndChar

StartChar: divide
Encoding: 247 247 204
Width: 1058
Flags: W
LayerCount: 2
Fore
SplineSet
687 859 m 0,0,1
 687 790 687 790 645 749.5 c 128,-1,2
 603 709 603 709 531 709 c 256,3,4
 459 709 459 709 417 749.5 c 128,-1,5
 375 790 375 790 375 859 c 0,6,7
 375 892 375 892 386.5 919 c 128,-1,8
 398 946 398 946 419 965.5 c 128,-1,9
 440 985 440 985 468.5 995.5 c 128,-1,10
 497 1006 497 1006 531 1006 c 256,11,12
 565 1006 565 1006 593.5 995.5 c 128,-1,13
 622 985 622 985 643 965.5 c 128,-1,14
 664 946 664 946 675.5 919 c 128,-1,15
 687 892 687 892 687 859 c 0,0,1
683 149 m 0,16,17
 683 80 683 80 641 40 c 128,-1,18
 599 0 599 0 527 0 c 256,19,20
 455 0 455 0 413 40 c 128,-1,21
 371 80 371 80 371 149 c 0,22,23
 371 182 371 182 382.5 209 c 128,-1,24
 394 236 394 236 415 255.5 c 128,-1,25
 436 275 436 275 464.5 285.5 c 128,-1,26
 493 296 493 296 527 296 c 256,27,28
 561 296 561 296 589.5 285.5 c 128,-1,29
 618 275 618 275 639 255.5 c 128,-1,30
 660 236 660 236 671.5 209 c 128,-1,31
 683 182 683 182 683 149 c 0,16,17
925 515 m 2,32,33
 925 473 925 473 905.5 444 c 128,-1,34
 886 415 886 415 849 415 c 2,35,-1
 133 415 l 1,36,-1
 133 506 l 2,37,38
 133 532 133 532 138.5 548.5 c 128,-1,39
 144 565 144 565 157 574 c 128,-1,40
 170 583 170 583 190 586.5 c 128,-1,41
 210 590 210 590 240 590 c 2,42,-1
 925 590 l 1,43,-1
 925 515 l 2,32,33
EndSplineSet
Validated: 1
EndChar

StartChar: oslash
Encoding: 248 248 205
Width: 1378
Flags: W
LayerCount: 2
Fore
SplineSet
1006 1115 m 1,0,-1
 552 -95 l 2,1,2
 538 -131 538 -131 477 -131 c 2,3,-1
 403 -131 l 1,4,-1
 854 1070 l 2,5,6
 863 1094 863 1094 880 1104.5 c 128,-1,7
 897 1115 897 1115 931 1115 c 2,8,-1
 1006 1115 l 1,0,-1
1282 488 m 0,9,10
 1282 354 1282 354 1231.5 258 c 128,-1,11
 1181 162 1181 162 1098.5 99.5 c 128,-1,12
 1016 37 1016 37 909 7.5 c 128,-1,13
 802 -22 802 -22 690 -22 c 0,14,15
 559 -22 559 -22 449.5 13.5 c 128,-1,16
 340 49 340 49 261.5 115 c 128,-1,17
 183 181 183 181 139.5 275.5 c 128,-1,18
 96 370 96 370 96 488 c 0,19,20
 96 623 96 623 146.5 720.5 c 128,-1,21
 197 818 197 818 280.5 881.5 c 128,-1,22
 364 945 364 945 470.5 975 c 128,-1,23
 577 1005 577 1005 690 1005 c 0,24,25
 821 1005 821 1005 930 969 c 128,-1,26
 1039 933 1039 933 1117 865.5 c 128,-1,27
 1195 798 1195 798 1238.5 702.5 c 128,-1,28
 1282 607 1282 607 1282 488 c 0,9,10
530 489 m 0,29,30
 530 315 530 315 568.5 231 c 128,-1,31
 607 147 607 147 689 147 c 0,32,33
 775 147 775 147 811.5 234.5 c 128,-1,34
 848 322 848 322 848 489 c 0,35,36
 848 667 848 667 809.5 751.5 c 128,-1,37
 771 836 771 836 689 836 c 0,38,39
 604 836 604 836 567 751 c 128,-1,40
 530 666 530 666 530 489 c 0,29,30
EndSplineSet
Validated: 5
EndChar

StartChar: thorn
Encoding: 254 254 211
Width: 1306
Flags: W
LayerCount: 2
Fore
SplineSet
594 937 m 1,0,1
 735 1005 735 1005 864 1005 c 0,2,3
 976 1005 976 1005 1058.5 962.5 c 128,-1,4
 1141 920 1141 920 1195.5 850.5 c 128,-1,5
 1250 781 1250 781 1277 692 c 128,-1,6
 1304 603 1304 603 1304 509 c 0,7,8
 1304 377 1304 377 1256.5 279 c 128,-1,9
 1209 181 1209 181 1129.5 116.5 c 128,-1,10
 1050 52 1050 52 947 20.5 c 128,-1,11
 844 -11 844 -11 732 -11 c 0,12,13
 706 -11 706 -11 671 -10 c 128,-1,14
 636 -9 636 -9 594 -7 c 1,15,-1
 594 -181 l 2,16,17
 594 -223 594 -223 596.5 -247 c 128,-1,18
 599 -271 599 -271 609.5 -284.5 c 128,-1,19
 620 -298 620 -298 642 -305.5 c 128,-1,20
 664 -313 664 -313 703 -323 c 1,21,-1
 714 -454 l 1,22,-1
 599 -443 l 2,23,24
 558 -439 558 -439 526.5 -436.5 c 128,-1,25
 495 -434 495 -434 469 -432.5 c 128,-1,26
 443 -431 443 -431 419 -430 c 128,-1,27
 395 -429 395 -429 368 -429 c 0,28,29
 320 -429 320 -429 243 -435 c 128,-1,30
 166 -441 166 -441 57 -454 c 1,31,-1
 63 -321 l 1,32,-1
 95 -316 l 2,33,34
 117 -313 117 -313 132.5 -308 c 128,-1,35
 148 -303 148 -303 157.5 -292.5 c 128,-1,36
 167 -282 167 -282 171 -264 c 128,-1,37
 175 -246 175 -246 175 -215 c 2,38,-1
 175 1251 l 1,39,-1
 2 1251 l 1,40,-1
 2 1364 l 1,41,42
 198 1412 198 1412 402 1412 c 2,43,-1
 462 1412 l 2,44,45
 504 1412 504 1412 529.5 1407.5 c 128,-1,46
 555 1403 555 1403 569.5 1391 c 128,-1,47
 584 1379 584 1379 589 1356.5 c 128,-1,48
 594 1334 594 1334 594 1298 c 2,49,-1
 594 937 l 1,0,1
760 836 m 0,50,51
 697 836 697 836 594 789 c 1,52,-1
 594 140 l 1,53,54
 608 138 608 138 621 138 c 128,-1,55
 634 138 634 138 648 138 c 2,56,-1
 719 138 l 2,57,58
 791 138 791 138 832 229.5 c 128,-1,59
 873 321 873 321 873 504 c 0,60,61
 873 836 873 836 760 836 c 0,50,51
EndSplineSet
Validated: 1
EndChar

StartChar: hbar
Encoding: 295 295 213
Width: 1386
Flags: W
LayerCount: 2
Fore
SplineSet
393 0 m 0,0,1
 314 0 314 0 237 -3 c 128,-1,2
 160 -6 160 -6 82 -11 c 1,3,-1
 87 126 l 1,4,5
 120 131 120 131 141.5 137 c 128,-1,6
 163 143 163 143 176 157 c 128,-1,7
 189 171 189 171 194 196 c 128,-1,8
 199 221 199 221 199 265 c 2,9,-1
 199 1046 l 1,10,-1
 48 1046 l 1,11,-1
 48 1165 l 1,12,-1
 199 1165 l 1,13,-1
 199 1187 l 2,14,15
 199 1227 199 1227 196 1251 c 1,16,-1
 27 1251 l 1,17,-1
 27 1364 l 1,18,19
 223 1412 223 1412 427 1412 c 2,20,-1
 487 1412 l 2,21,22
 529 1412 529 1412 554.5 1407.5 c 128,-1,23
 580 1403 580 1403 594.5 1391 c 128,-1,24
 609 1379 609 1379 614 1356.5 c 128,-1,25
 619 1334 619 1334 619 1298 c 2,26,-1
 619 1165 l 1,27,-1
 766 1165 l 1,28,-1
 766 1046 l 1,29,-1
 619 1046 l 1,30,-1
 619 882 l 1,31,32
 697 936 697 936 789 970.5 c 128,-1,33
 881 1005 881 1005 975 1005 c 0,34,35
 1049 1005 1049 1005 1103 980 c 128,-1,36
 1157 955 1157 955 1192 908.5 c 128,-1,37
 1227 862 1227 862 1244 795 c 128,-1,38
 1261 728 1261 728 1261 644 c 2,39,-1
 1261 248 l 2,40,41
 1261 183 1261 183 1270 147 c 1,42,-1
 1403 147 l 1,43,-1
 1416 23 l 1,44,45
 1225 -22 1225 -22 1062 -22 c 0,46,47
 836 -22 836 -22 836 85 c 0,48,49
 836 99 836 99 837 124.5 c 128,-1,50
 838 150 838 150 839 178 c 128,-1,51
 840 206 840 206 841 232 c 128,-1,52
 842 258 842 258 842 274 c 2,53,-1
 842 623 l 2,54,55
 842 651 842 651 840.5 683.5 c 128,-1,56
 839 716 839 716 831.5 744 c 128,-1,57
 824 772 824 772 808 790 c 128,-1,58
 792 808 792 808 764 808 c 0,59,60
 735 808 735 808 699.5 792.5 c 128,-1,61
 664 777 664 777 619 739 c 1,62,-1
 619 233 l 2,63,64
 619 205 619 205 623.5 187.5 c 128,-1,65
 628 170 628 170 638.5 158.5 c 128,-1,66
 649 147 649 147 667 140 c 128,-1,67
 685 133 685 133 712 127 c 1,68,-1
 723 -11 l 1,69,70
 585 -6 585 -6 503.5 -3 c 128,-1,71
 422 0 422 0 393 0 c 0,0,1
EndSplineSet
Validated: 1
EndChar

StartChar: dotlessi
Encoding: 305 305 216
Width: 721
Flags: W
LayerCount: 2
Fore
SplineSet
35 950 m 1,0,1
 237 994 237 994 402 994 c 0,2,3
 508 994 508 994 567 970.5 c 128,-1,4
 626 947 626 947 626 899 c 2,5,-1
 626 239 l 2,6,7
 626 184 626 184 635 147 c 1,8,-1
 768 147 l 1,9,-1
 781 33 l 1,10,11
 588 -11 588 -11 427 -11 c 0,12,13
 321 -11 321 -11 261 15 c 128,-1,14
 201 41 201 41 201 95 c 0,15,16
 201 109 201 109 202 134.5 c 128,-1,17
 203 160 203 160 204 188 c 128,-1,18
 205 216 205 216 206 242 c 128,-1,19
 207 268 207 268 207 284 c 2,20,-1
 207 824 l 1,21,-1
 35 824 l 1,22,-1
 35 950 l 1,0,1
EndSplineSet
Validated: 1
EndChar

StartChar: kgreenlandic
Encoding: 312 312 222
Width: 1405
Flags: W
LayerCount: 2
Fore
SplineSet
35 946 m 1,0,1
 149 974 149 974 261 984.5 c 128,-1,2
 373 995 373 995 491 995 c 0,3,4
 515 995 515 995 538 993.5 c 128,-1,5
 561 992 561 992 579 986.5 c 128,-1,6
 597 981 597 981 609 970 c 128,-1,7
 621 959 621 959 623 940 c 0,8,9
 626 917 626 917 626 880 c 2,10,-1
 626 629 l 1,11,-1
 843 777 l 1,12,13
 861 792 861 792 861 804 c 0,14,15
 861 835 861 835 771 835 c 1,16,-1
 771 983 l 1,17,-1
 1404 983 l 1,18,-1
 1404 824 l 1,19,20
 1354 824 1354 824 1315.5 817 c 128,-1,21
 1277 810 1277 810 1243.5 796 c 128,-1,22
 1210 782 1210 782 1177.5 760.5 c 128,-1,23
 1145 739 1145 739 1106 711 c 2,24,-1
 959 603 l 1,25,-1
 1229 189 l 2,26,27
 1244 166 1244 166 1258 152 c 128,-1,28
 1272 138 1272 138 1286 130.5 c 128,-1,29
 1300 123 1300 123 1313.5 120.5 c 128,-1,30
 1327 118 1327 118 1341 118 c 0,31,32
 1354 118 1354 118 1371 119 c 128,-1,33
 1388 120 1388 120 1426 120 c 1,34,-1
 1451 -11 l 1,35,36
 1387 -6 1387 -6 1304 -3 c 128,-1,37
 1221 0 1221 0 1116 0 c 0,38,39
 1057 0 1057 0 1011 -0.5 c 128,-1,40
 965 -1 965 -1 927.5 -2.5 c 128,-1,41
 890 -4 890 -4 858.5 -6 c 128,-1,42
 827 -8 827 -8 799 -11 c 1,43,-1
 794 120 l 1,44,-1
 851 120 l 1,45,-1
 658 453 l 1,46,-1
 626 433 l 1,47,-1
 626 212 l 1,48,49
 629 185 629 185 634.5 169.5 c 128,-1,50
 640 154 640 154 651.5 144 c 128,-1,51
 663 134 663 134 683 128.5 c 128,-1,52
 703 123 703 123 735 117 c 1,53,-1
 741 -11 l 1,54,55
 596 -6 596 -6 512 -3 c 128,-1,56
 428 0 428 0 400 0 c 0,57,58
 321 0 321 0 244 -3 c 128,-1,59
 167 -6 167 -6 89 -11 c 1,60,-1
 95 119 l 1,61,62
 122 124 122 124 143 127 c 128,-1,63
 164 130 164 130 178.5 139 c 128,-1,64
 193 148 193 148 200 167.5 c 128,-1,65
 207 187 207 187 207 225 c 2,66,-1
 207 769 l 2,67,68
 207 809 207 809 204 833 c 1,69,-1
 35 833 l 1,70,-1
 35 946 l 1,0,1
EndSplineSet
Validated: 1
EndChar

StartChar: Lslash
Encoding: 321 321 225
Width: 1398
Flags: W
LayerCount: 2
Fore
SplineSet
1062 1084 m 1,0,-1
 1062 860 l 1,1,-1
 95 378 l 1,2,-1
 95 601 l 1,3,-1
 1062 1084 l 1,0,-1
685 1215 m 1,4,5
 678 1186 678 1186 678 1129 c 2,6,-1
 678 167 l 1,7,-1
 907 167 l 2,8,9
 943 167 943 167 966.5 180.5 c 128,-1,10
 990 194 990 194 1005.5 214.5 c 128,-1,11
 1021 235 1021 235 1029.5 258.5 c 128,-1,12
 1038 282 1038 282 1044 303 c 0,13,14
 1054 338 1054 338 1067 377.5 c 128,-1,15
 1080 417 1080 417 1096 471 c 1,16,-1
 1331 439 l 1,17,-1
 1289 0 l 1,18,-1
 868 0 l 2,19,20
 566 0 566 0 379 -2 c 128,-1,21
 192 -4 192 -4 123 -12 c 1,22,-1
 123 167 l 1,23,-1
 245 167 l 1,24,25
 247 212 247 212 248 251.5 c 128,-1,26
 249 291 249 291 249 326 c 2,27,-1
 249 1129 l 2,28,29
 249 1156 249 1156 247.5 1177.5 c 128,-1,30
 246 1199 246 1199 244 1215 c 1,31,-1
 57 1215 l 1,32,-1
 57 1377 l 1,33,34
 166 1388 166 1388 262 1393.5 c 128,-1,35
 358 1399 358 1399 446 1399 c 0,36,37
 578 1399 578 1399 683 1395 c 128,-1,38
 788 1391 788 1391 872 1383 c 1,39,-1
 872 1215 l 1,40,-1
 685 1215 l 1,4,5
EndSplineSet
Validated: 5
EndChar

StartChar: lslash
Encoding: 322 322 226
Width: 826
Flags: W
LayerCount: 2
Fore
SplineSet
779 1151 m 1,0,-1
 779 906 l 1,1,-1
 45 441 l 1,2,-1
 45 683 l 1,3,-1
 779 1151 l 1,0,-1
35 1366 m 1,4,5
 229 1412 229 1412 416 1412 c 0,6,7
 461 1412 461 1412 492.5 1409.5 c 128,-1,8
 524 1407 524 1407 547.5 1400.5 c 128,-1,9
 571 1394 571 1394 589.5 1381 c 128,-1,10
 608 1368 608 1368 626 1347 c 1,11,-1
 626 227 l 2,12,13
 626 166 626 166 632 145 c 1,14,-1
 791 145 l 1,15,-1
 791 34 l 1,16,17
 609 -9 609 -9 428 -9 c 0,18,19
 343 -9 343 -9 290 12.5 c 128,-1,20
 237 34 237 34 203 82 c 1,21,-1
 203 108 l 1,22,23
 205 148 205 148 206.5 191.5 c 128,-1,24
 208 235 208 235 208 283 c 2,25,-1
 208 1175 l 2,26,27
 208 1198 208 1198 207 1217.5 c 128,-1,28
 206 1237 206 1237 204 1252 c 1,29,-1
 35 1252 l 1,30,-1
 35 1366 l 1,4,5
EndSplineSet
Validated: 5
EndChar

StartChar: OE
Encoding: 338 338 229
Width: 2274
Flags: W
LayerCount: 2
Fore
SplineSet
1123 -12 m 1,0,1
 1038 -17 1038 -17 968.5 -19.5 c 128,-1,2
 899 -22 899 -22 844 -22 c 0,3,4
 675 -22 675 -22 539.5 25.5 c 128,-1,5
 404 73 404 73 309.5 163.5 c 128,-1,6
 215 254 215 254 164 384 c 128,-1,7
 113 514 113 514 113 679 c 0,8,9
 113 846 113 846 164.5 976 c 128,-1,10
 216 1106 216 1106 311 1195 c 128,-1,11
 406 1284 406 1284 541 1330 c 128,-1,12
 676 1376 676 1376 844 1376 c 2,13,-1
 2190 1376 l 1,14,-1
 2245 1054 l 1,15,-1
 2022 1026 l 1,16,17
 2017 1066 2017 1066 2007 1102.5 c 128,-1,18
 1997 1139 1997 1139 1981 1173 c 1,19,20
 1855 1191 1855 1191 1769 1191 c 2,21,-1
 1552 1191 l 1,22,-1
 1552 765 l 1,23,-1
 1725 765 l 2,24,25
 1744 765 1744 765 1755 778.5 c 128,-1,26
 1766 792 1766 792 1773 812.5 c 128,-1,27
 1780 833 1780 833 1784 856 c 128,-1,28
 1788 879 1788 879 1793 899 c 1,29,-1
 1944 899 l 1,30,-1
 1944 464 l 1,31,32
 1930 463 1930 463 1916 463 c 128,-1,33
 1902 463 1902 463 1888 463 c 2,34,-1
 1793 463 l 1,35,36
 1784 506 1784 506 1776.5 534 c 128,-1,37
 1769 562 1769 562 1761 578.5 c 128,-1,38
 1753 595 1753 595 1744.5 601 c 128,-1,39
 1736 607 1736 607 1725 607 c 2,40,-1
 1552 607 l 1,41,-1
 1552 155 l 1,42,-1
 1832 155 l 2,43,44
 1914 155 1914 155 1953 168 c 1,45,46
 1960 188 1960 188 1967.5 232.5 c 128,-1,47
 1975 277 1975 277 1985 349 c 1,48,49
 2020 348 2020 348 2051.5 348 c 128,-1,50
 2083 348 2083 348 2111 348 c 0,51,52
 2160 348 2160 348 2193.5 347.5 c 128,-1,53
 2227 347 2227 347 2252 347 c 1,54,55
 2250 259 2250 259 2247 173 c 128,-1,56
 2244 87 2244 87 2239 2 c 1,57,58
 2003 -13 2003 -13 1835 -13 c 0,59,60
 1706 -13 1706 -13 1610 -13 c 128,-1,61
 1514 -13 1514 -13 1443.5 -13 c 128,-1,62
 1373 -13 1373 -13 1323.5 -13 c 128,-1,63
 1274 -13 1274 -13 1238 -13 c 128,-1,64
 1202 -13 1202 -13 1175 -12.5 c 128,-1,65
 1148 -12 1148 -12 1123 -12 c 1,0,1
565 676 m 0,66,67
 565 427 565 427 634 297 c 128,-1,68
 703 167 703 167 844 167 c 2,69,-1
 1123 167 l 1,70,-1
 1123 1187 l 1,71,-1
 844 1187 l 2,72,73
 712 1187 712 1187 638.5 1059 c 128,-1,74
 565 931 565 931 565 676 c 0,66,67
EndSplineSet
Validated: 1
EndChar

